<svg width="144" height="144" viewBox="0 0 144 144" fill="none" xmlns="http://www.w3.org/2000/svg">
<rect width="144" height="144" fill="#007AFF"/>
<path fill-rule="evenodd" clip-rule="evenodd" d="M33.1875 31.2187C33.1875 26.8695 36.7133 23.3438 41.0625 23.3438C45.4117 23.3438 48.9375 26.8695 48.9375 31.2188V65.0372C49.8872 64.6311 50.933 64.4062 52.0312 64.4062L91.125 64.4063C92.6771 64.4063 94.1242 64.8552 95.3438 65.6304V31.5C95.3438 27.1508 98.8695 23.625 103.219 23.625C107.568 23.625 111.094 27.1508 111.094 31.5V113.062C111.094 117.412 107.568 120.938 103.219 120.938C98.8695 120.938 95.3438 117.412 95.3438 113.062V78.9321C94.1242 79.7073 92.6771 80.1562 91.125 80.1562H52.0312C50.933 80.1562 49.8872 79.9314 48.9375 79.5253V113.062C48.9375 117.412 45.4117 120.938 41.0625 120.938C36.7133 120.938 33.1875 117.412 33.1875 113.062V31.2187Z" fill="white"/>
</svg>
