<svg width="192" height="192" viewBox="0 0 192 192" fill="none" xmlns="http://www.w3.org/2000/svg">
<rect width="192" height="192" fill="#007AFF"/>
<path fill-rule="evenodd" clip-rule="evenodd" d="M44.25 41.625C44.25 35.826 48.951 31.125 54.75 31.125C60.549 31.125 65.25 35.826 65.25 41.625V86.7163C66.5163 86.1748 67.9106 85.875 69.375 85.875L121.5 85.875C123.569 85.875 125.499 86.4737 127.125 87.5072V42C127.125 36.201 131.826 31.5 137.625 31.5C143.424 31.5 148.125 36.201 148.125 42V150.75C148.125 156.549 143.424 161.25 137.625 161.25C131.826 161.25 127.125 156.549 127.125 150.75V105.243C125.499 106.276 123.569 106.875 121.5 106.875L69.375 106.875C67.9106 106.875 66.5163 106.575 65.25 106.034V150.75C65.25 156.549 60.549 161.25 54.75 161.25C48.951 161.25 44.25 156.549 44.25 150.75V41.625Z" fill="white"/>
</svg>
