<svg width="36" height="36" viewBox="0 0 36 36" fill="none" xmlns="http://www.w3.org/2000/svg">
<rect width="36" height="36" fill="#007AFF"/>
<path fill-rule="evenodd" clip-rule="evenodd" d="M8.29688 7.80469C8.29688 6.71738 9.17831 5.83594 10.2656 5.83594C11.3529 5.83594 12.2344 6.71738 12.2344 7.80469V16.2593C12.4718 16.1578 12.7332 16.1016 13.0078 16.1016L22.7812 16.1016C23.1693 16.1016 23.5311 16.2138 23.8359 16.4076V7.875C23.8359 6.78769 24.7174 5.90625 25.8047 5.90625C26.892 5.90625 27.7734 6.78769 27.7734 7.875V28.2656C27.7734 29.3529 26.892 30.2344 25.8047 30.2344C24.7174 30.2344 23.8359 29.3529 23.8359 28.2656V19.733C23.5311 19.9268 23.1693 20.0391 22.7812 20.0391H13.0078C12.7332 20.0391 12.4718 19.9829 12.2344 19.8813V28.2656C12.2344 29.3529 11.3529 30.2344 10.2656 30.2344C9.17831 30.2344 8.29688 29.3529 8.29688 28.2656V7.80469Z" fill="white"/>
</svg>
