<svg width="48" height="48" viewBox="0 0 48 48" fill="none" xmlns="http://www.w3.org/2000/svg">
<rect width="48" height="48" fill="#007AFF"/>
<path fill-rule="evenodd" clip-rule="evenodd" d="M11.0625 10.4062C11.0625 8.9565 12.2378 7.78125 13.6875 7.78125C15.1372 7.78125 16.3125 8.9565 16.3125 10.4062V21.6791C16.6291 21.5437 16.9777 21.4688 17.3437 21.4688L30.375 21.4688C30.8924 21.4688 31.3747 21.6184 31.7812 21.8768V10.5C31.7812 9.05025 32.9565 7.875 34.4062 7.875C35.856 7.875 37.0312 9.05025 37.0312 10.5V37.6875C37.0312 39.1372 35.856 40.3125 34.4062 40.3125C32.9565 40.3125 31.7812 39.1372 31.7812 37.6875V26.3107C31.3747 26.5691 30.8923 26.7187 30.375 26.7187L17.3437 26.7187C16.9777 26.7187 16.6291 26.6438 16.3125 26.5084V37.6875C16.3125 39.1372 15.1372 40.3125 13.6875 40.3125C12.2378 40.3125 11.0625 39.1372 11.0625 37.6875V10.4062Z" fill="white"/>
</svg>
