<svg width="72" height="72" viewBox="0 0 72 72" fill="none" xmlns="http://www.w3.org/2000/svg">
<rect width="72" height="72" fill="#007AFF"/>
<path fill-rule="evenodd" clip-rule="evenodd" d="M16.5938 15.6094C16.5938 13.4348 18.3566 11.6719 20.5312 11.6719C22.7059 11.6719 24.4688 13.4348 24.4688 15.6094V32.5186C24.9436 32.3155 25.4665 32.2031 26.0156 32.2031H45.5625C46.3385 32.2031 47.0621 32.4276 47.6719 32.8152V15.75C47.6719 13.5754 49.4348 11.8125 51.6094 11.8125C53.784 11.8125 55.5469 13.5754 55.5469 15.75V56.5312C55.5469 58.7059 53.784 60.4688 51.6094 60.4688C49.4348 60.4688 47.6719 58.7059 47.6719 56.5312V39.466C47.0621 39.8536 46.3385 40.0781 45.5625 40.0781L26.0156 40.0781C25.4665 40.0781 24.9436 39.9657 24.4688 39.7626V56.5312C24.4688 58.7059 22.7059 60.4688 20.5312 60.4688C18.3566 60.4688 16.5938 58.7059 16.5938 56.5312V15.6094Z" fill="white"/>
</svg>
