<svg width="96" height="96" viewBox="0 0 96 96" fill="none" xmlns="http://www.w3.org/2000/svg">
<rect width="96" height="96" fill="#007AFF"/>
<path fill-rule="evenodd" clip-rule="evenodd" d="M22.125 20.8125C22.125 17.913 24.4755 15.5625 27.375 15.5625C30.2745 15.5625 32.625 17.913 32.625 20.8125V43.3581C33.2582 43.0874 33.9553 42.9375 34.6875 42.9375L60.75 42.9375C61.7847 42.9375 62.7495 43.2368 63.5625 43.7536V21C63.5625 18.1005 65.913 15.75 68.8125 15.75C71.712 15.75 74.0625 18.1005 74.0625 21V75.375C74.0625 78.2745 71.712 80.625 68.8125 80.625C65.913 80.625 63.5625 78.2745 63.5625 75.375V52.6214C62.7495 53.1382 61.7847 53.4375 60.75 53.4375H34.6875C33.9553 53.4375 33.2582 53.2876 32.625 53.0169V75.375C32.625 78.2745 30.2745 80.625 27.375 80.625C24.4755 80.625 22.125 78.2745 22.125 75.375V20.8125Z" fill="white"/>
</svg>
