<svg width="512" height="512" viewBox="0 0 512 512" fill="none" xmlns="http://www.w3.org/2000/svg">
<rect width="512" height="512" fill="#007AFF"/>
<path fill-rule="evenodd" clip-rule="evenodd" d="M118 111C118 95.536 130.536 83 146 83C161.464 83 174 95.536 174 111V229L339 229V112C339 96.536 351.536 84 367 84C382.464 84 395 96.536 395 112V402C395 417.464 382.464 430 367 430C351.536 430 339 417.464 339 402V285H174V402C174 417.464 161.464 430 146 430C130.536 430 118 417.464 118 402V111Z" fill="white"/>
</svg>
