<svg width="328" height="196" viewBox="0 0 328 196" fill="none" xmlns="http://www.w3.org/2000/svg">
<rect x="57.3568" y="57.3568" width="270.286" height="101.286" rx="8.20623" fill="white"/>
<path d="M67.8599 75.177L69.4766 68.883H70.324L70.2292 70.5053L68.501 77H67.6202L67.8599 75.177ZM66.6502 68.883L67.9603 75.1268L68.0773 77H67.1408L65.262 68.883H66.6502ZM72.1582 75.1101L73.4515 68.883H74.8452L72.9665 77H72.0299L72.1582 75.1101ZM70.6529 68.883L72.2529 75.1937L72.4871 77H71.6062L69.9059 70.5053L69.8167 68.883H70.6529ZM78.3006 77.1115C77.8546 77.1115 77.4513 77.039 77.0908 76.8941C76.734 76.7454 76.4293 76.5391 76.1765 76.2753C75.9275 76.0114 75.7361 75.7011 75.6023 75.3443C75.4685 74.9875 75.4016 74.6028 75.4016 74.1903V73.9673C75.4016 73.4953 75.4704 73.0678 75.6079 72.685C75.7454 72.3022 75.9368 71.9752 76.1821 71.7039C76.4274 71.4288 76.7173 71.2188 77.0518 71.0739C77.3863 70.9289 77.7486 70.8565 78.1389 70.8565C78.57 70.8565 78.9472 70.9289 79.2706 71.0739C79.5939 71.2188 79.8615 71.4233 80.0734 71.6871C80.2889 71.9473 80.4488 72.2576 80.5528 72.6181C80.6606 72.9786 80.7145 73.3763 80.7145 73.8112V74.3854H76.0539V73.4209H79.3877V73.315C79.3802 73.0734 79.3319 72.8467 79.2427 72.6349C79.1572 72.423 79.0253 72.2521 78.8469 72.122C78.6685 71.9919 78.4306 71.9269 78.1333 71.9269C77.9103 71.9269 77.7115 71.9752 77.5368 72.0718C77.3658 72.1647 77.2228 72.3004 77.1075 72.4788C76.9923 72.6572 76.9031 72.8727 76.8399 73.1255C76.7805 73.3745 76.7507 73.6551 76.7507 73.9673V74.1903C76.7507 74.4541 76.7861 74.6994 76.8567 74.9261C76.931 75.1491 77.0388 75.3443 77.18 75.5115C77.3212 75.6788 77.4922 75.8107 77.6929 75.9073C77.8936 76.0002 78.1222 76.0467 78.3786 76.0467C78.702 76.0467 78.99 75.9817 79.2427 75.8516C79.4954 75.7215 79.7147 75.5375 79.9006 75.2997L80.6086 75.9854C80.4785 76.1749 80.3094 76.357 80.1013 76.5317C79.8931 76.7027 79.6385 76.842 79.3375 76.9498C79.0402 77.0576 78.6945 77.1115 78.3006 77.1115ZM81.8395 68.437H83.183V75.7122L83.0548 77H81.8395V68.437ZM87.1189 73.9282V74.0453C87.1189 74.4913 87.0687 74.902 86.9684 75.2774C86.8718 75.649 86.7231 75.9724 86.5224 76.2474C86.3254 76.5224 86.0801 76.7361 85.7865 76.8885C85.4966 77.0372 85.1603 77.1115 84.7775 77.1115C84.4021 77.1115 84.075 77.0409 83.7963 76.8997C83.5175 76.7584 83.2834 76.5577 83.0938 76.2976C82.908 76.0374 82.7575 75.7271 82.6423 75.3666C82.5271 75.006 82.4453 74.6084 82.397 74.1735V73.8C82.4453 73.3615 82.5271 72.9638 82.6423 72.607C82.7575 72.2465 82.908 71.9361 83.0938 71.676C83.2834 71.4121 83.5157 71.2096 83.7907 71.0683C84.0695 70.9271 84.3947 70.8565 84.7663 70.8565C85.1528 70.8565 85.4929 70.9308 85.7865 71.0795C86.0838 71.2281 86.331 71.44 86.528 71.715C86.725 71.9863 86.8718 72.3097 86.9684 72.685C87.0687 73.0604 87.1189 73.4748 87.1189 73.9282ZM85.7754 74.0453V73.9282C85.7754 73.6569 85.7531 73.4023 85.7085 73.1645C85.6639 72.9229 85.5895 72.7111 85.4855 72.5289C85.3851 72.3468 85.2476 72.2037 85.0729 72.0997C84.902 71.9919 84.6883 71.938 84.4318 71.938C84.194 71.938 83.9895 71.9789 83.8186 72.0607C83.6476 72.1424 83.5045 72.2539 83.3893 72.3951C83.2741 72.5364 83.183 72.6999 83.1161 72.8857C83.053 73.0716 83.0102 73.2723 82.9879 73.4878V74.4969C83.0214 74.7756 83.092 75.0321 83.1998 75.2662C83.3113 75.4966 83.4674 75.6825 83.6681 75.8237C83.8688 75.9612 84.1271 76.03 84.443 76.03C84.692 76.03 84.902 75.9798 85.0729 75.8794C85.2439 75.7791 85.3796 75.6397 85.4799 75.4613C85.584 75.2792 85.6583 75.0674 85.7029 74.8258C85.7512 74.5842 85.7754 74.3241 85.7754 74.0453ZM94.9215 75.7512V68.437H96.2706V77H95.0497L94.9215 75.7512ZM90.9968 74.0509V73.9338C90.9968 73.4767 91.0507 73.0604 91.1585 72.685C91.2663 72.3059 91.4224 71.9807 91.6268 71.7094C91.8312 71.4344 92.0802 71.2244 92.3738 71.0795C92.6674 70.9308 92.9982 70.8565 93.3661 70.8565C93.7304 70.8565 94.05 70.9271 94.325 71.0683C94.6 71.2096 94.8342 71.4121 95.0274 71.676C95.2207 71.9361 95.375 72.2483 95.4902 72.6126C95.6054 72.9731 95.6871 73.3745 95.7355 73.8167V74.1903C95.6871 74.6214 95.6054 75.0153 95.4902 75.3721C95.375 75.7289 95.2207 76.0374 95.0274 76.2976C94.8342 76.5577 94.5982 76.7584 94.3194 76.8997C94.0444 77.0409 93.7229 77.1115 93.355 77.1115C92.9908 77.1115 92.6618 77.0353 92.3682 76.8829C92.0783 76.7305 91.8312 76.5168 91.6268 76.2418C91.4224 75.9668 91.2663 75.6434 91.1585 75.2718C91.0507 74.8964 90.9968 74.4894 90.9968 74.0509ZM92.3404 73.9338V74.0509C92.3404 74.3259 92.3645 74.5824 92.4128 74.8202C92.4649 75.0581 92.5448 75.2681 92.6525 75.4502C92.7603 75.6286 92.8997 75.7698 93.0707 75.8739C93.2453 75.9742 93.4535 76.0244 93.6951 76.0244C93.9998 76.0244 94.2507 75.9575 94.4477 75.8237C94.6446 75.6899 94.7989 75.5096 94.9104 75.2829C95.0256 75.0525 95.1036 74.7961 95.1445 74.5136V73.5045C95.1222 73.2853 95.0758 73.0809 95.0051 72.8913C94.9383 72.7018 94.8472 72.5364 94.732 72.3951C94.6168 72.2502 94.4737 72.1387 94.3027 72.0607C94.1355 71.9789 93.9366 71.938 93.7062 71.938C93.4609 71.938 93.2528 71.99 93.0818 72.0941C92.9109 72.1982 92.7696 72.3413 92.6581 72.5234C92.5503 72.7055 92.4704 72.9173 92.4184 73.1589C92.3664 73.4005 92.3404 73.6588 92.3404 73.9338ZM101.148 75.7902V72.9136C101.148 72.698 101.109 72.5122 101.03 72.3561C100.952 72.2 100.834 72.0792 100.674 71.9938C100.518 71.9083 100.321 71.8655 100.083 71.8655C99.8635 71.8655 99.6739 71.9027 99.5141 71.977C99.3543 72.0514 99.2298 72.1517 99.1406 72.2781C99.0514 72.4044 99.0068 72.5475 99.0068 72.7073H97.6688C97.6688 72.4695 97.7264 72.239 97.8417 72.0161C97.9569 71.7931 98.1241 71.5942 98.3434 71.4195C98.5627 71.2449 98.8247 71.1073 99.1294 71.007C99.4342 70.9066 99.7761 70.8565 100.155 70.8565C100.609 70.8565 101.01 70.9327 101.359 71.085C101.712 71.2374 101.989 71.4679 102.19 71.7763C102.394 72.0811 102.497 72.4639 102.497 72.9248V75.6063C102.497 75.8813 102.515 76.1285 102.552 76.3477C102.593 76.5633 102.651 76.751 102.725 76.9108V77H101.348C101.285 76.8551 101.235 76.6711 101.198 76.4481C101.164 76.2214 101.148 76.0021 101.148 75.7902ZM101.343 73.3317L101.354 74.1624H100.389C100.14 74.1624 99.9211 74.1865 99.7315 74.2349C99.542 74.2795 99.384 74.3464 99.2577 74.4356C99.1313 74.5248 99.0365 74.6325 98.9734 74.7589C98.9102 74.8853 98.8786 75.0283 98.8786 75.1882C98.8786 75.348 98.9157 75.4948 98.9901 75.6286C99.0644 75.7587 99.1722 75.8609 99.3134 75.9352C99.4584 76.0095 99.633 76.0467 99.8375 76.0467C100.112 76.0467 100.352 75.9909 100.557 75.8794C100.765 75.7642 100.928 75.6249 101.047 75.4613C101.166 75.2941 101.229 75.1361 101.237 74.9875L101.672 75.584C101.627 75.7364 101.551 75.8999 101.443 76.0746C101.335 76.2492 101.194 76.4165 101.019 76.5763C100.848 76.7324 100.642 76.8606 100.401 76.961C100.163 77.0613 99.8876 77.1115 99.5754 77.1115C99.1815 77.1115 98.8303 77.0334 98.5218 76.8774C98.2133 76.7175 97.9717 76.5038 97.7971 76.2362C97.6224 75.9649 97.535 75.6583 97.535 75.3164C97.535 74.9968 97.5945 74.7143 97.7134 74.469C97.8361 74.22 98.0145 74.0119 98.2486 73.8446C98.4865 73.6774 98.7764 73.551 99.1183 73.4655C99.4602 73.3763 99.8505 73.3317 100.289 73.3317H101.343ZM107.357 75.3666C107.357 75.2328 107.323 75.112 107.257 75.0042C107.19 74.8927 107.061 74.7923 106.872 74.7031C106.686 74.6139 106.411 74.5322 106.047 74.4579C105.727 74.3872 105.434 74.3036 105.166 74.207C104.902 74.1066 104.675 73.9858 104.486 73.8446C104.296 73.7034 104.149 73.5361 104.045 73.3429C103.941 73.1496 103.889 72.9266 103.889 72.6739C103.889 72.4286 103.943 72.1963 104.051 71.977C104.159 71.7577 104.313 71.5645 104.514 71.3972C104.714 71.23 104.958 71.0981 105.244 71.0014C105.534 70.9048 105.857 70.8565 106.214 70.8565C106.719 70.8565 107.152 70.942 107.513 71.1129C107.877 71.2802 108.156 71.5087 108.349 71.7986C108.542 72.0848 108.639 72.4082 108.639 72.7687H107.296C107.296 72.6088 107.255 72.4602 107.173 72.3227C107.095 72.1814 106.976 72.0681 106.816 71.9826C106.656 71.8934 106.456 71.8488 106.214 71.8488C105.984 71.8488 105.792 71.886 105.64 71.9603C105.491 72.0309 105.38 72.1238 105.305 72.239C105.235 72.3543 105.199 72.4806 105.199 72.6181C105.199 72.7185 105.218 72.8095 105.255 72.8913C105.296 72.9694 105.363 73.0418 105.456 73.1087C105.549 73.1719 105.675 73.2314 105.835 73.2871C105.998 73.3429 106.203 73.3968 106.448 73.4488C106.909 73.5454 107.305 73.6699 107.636 73.8223C107.97 73.971 108.227 74.1642 108.405 74.4021C108.583 74.6362 108.673 74.9336 108.673 75.2941C108.673 75.5617 108.615 75.807 108.5 76.03C108.388 76.2492 108.225 76.4407 108.009 76.6042C107.794 76.764 107.535 76.8885 107.234 76.9777C106.937 77.0669 106.602 77.1115 106.231 77.1115C105.684 77.1115 105.222 77.0149 104.843 76.8216C104.463 76.6246 104.175 76.3738 103.978 76.069C103.785 75.7605 103.689 75.4409 103.689 75.1101H104.988C105.002 75.3591 105.071 75.558 105.194 75.7066C105.32 75.8516 105.476 75.9575 105.662 76.0244C105.852 76.0876 106.047 76.1192 106.247 76.1192C106.489 76.1192 106.692 76.0876 106.855 76.0244C107.019 75.9575 107.143 75.8683 107.229 75.7568C107.314 75.6416 107.357 75.5115 107.357 75.3666ZM112.685 70.968V71.9492H109.285V70.968H112.685ZM110.266 69.4906H111.609V75.3331C111.609 75.5189 111.635 75.662 111.687 75.7624C111.743 75.859 111.819 75.924 111.916 75.9575C112.013 75.9909 112.126 76.0077 112.256 76.0077C112.349 76.0077 112.438 76.0021 112.524 75.9909C112.609 75.9798 112.678 75.9686 112.73 75.9575L112.736 76.9833C112.624 77.0167 112.494 77.0465 112.345 77.0725C112.2 77.0985 112.033 77.1115 111.844 77.1115C111.535 77.1115 111.262 77.0576 111.024 76.9498C110.786 76.8383 110.6 76.6581 110.467 76.4091C110.333 76.1601 110.266 75.8293 110.266 75.4167V69.4906ZM117.423 75.5784V70.968H118.772V77H117.501L117.423 75.5784ZM117.612 74.3241L118.064 74.3129C118.064 74.718 118.019 75.0915 117.93 75.4335C117.841 75.7717 117.703 76.0671 117.518 76.3199C117.332 76.5689 117.094 76.764 116.804 76.9052C116.514 77.0427 116.167 77.1115 115.762 77.1115C115.468 77.1115 115.199 77.0688 114.953 76.9833C114.708 76.8978 114.496 76.7659 114.318 76.5875C114.143 76.4091 114.007 76.1768 113.911 75.8906C113.814 75.6044 113.766 75.2625 113.766 74.8648V70.968H115.109V74.876C115.109 75.0952 115.135 75.2792 115.187 75.4279C115.239 75.5728 115.31 75.6899 115.399 75.7791C115.488 75.8683 115.592 75.9315 115.711 75.9686C115.83 76.0058 115.957 76.0244 116.09 76.0244C116.473 76.0244 116.774 75.9501 116.994 75.8014C117.217 75.649 117.375 75.4446 117.467 75.1882C117.564 74.9317 117.612 74.6437 117.612 74.3241ZM121.569 72.1164V77H120.226V70.968H121.508L121.569 72.1164ZM123.415 70.9289L123.404 72.1777C123.322 72.1629 123.233 72.1517 123.136 72.1443C123.043 72.1368 122.95 72.1331 122.857 72.1331C122.627 72.1331 122.424 72.1666 122.25 72.2335C122.075 72.2967 121.928 72.3896 121.809 72.5122C121.694 72.6311 121.605 72.7761 121.542 72.9471C121.478 73.118 121.441 73.3094 121.43 73.5213L121.123 73.5436C121.123 73.1645 121.161 72.8133 121.235 72.4899C121.309 72.1666 121.421 71.8823 121.569 71.637C121.722 71.3917 121.911 71.2003 122.138 71.0627C122.369 70.9252 122.634 70.8565 122.935 70.8565C123.017 70.8565 123.104 70.8639 123.197 70.8788C123.294 70.8936 123.366 70.9104 123.415 70.9289ZM125.766 68.437V77H124.417V68.437H125.766ZM130.71 75.7902V72.9136C130.71 72.698 130.671 72.5122 130.593 72.3561C130.515 72.2 130.396 72.0792 130.236 71.9938C130.08 71.9083 129.883 71.8655 129.645 71.8655C129.426 71.8655 129.236 71.9027 129.077 71.977C128.917 72.0514 128.792 72.1517 128.703 72.2781C128.614 72.4044 128.569 72.5475 128.569 72.7073H127.231C127.231 72.4695 127.289 72.239 127.404 72.0161C127.519 71.7931 127.687 71.5942 127.906 71.4195C128.125 71.2449 128.387 71.1073 128.692 71.007C128.997 70.9066 129.339 70.8565 129.718 70.8565C130.171 70.8565 130.573 70.9327 130.922 71.085C131.275 71.2374 131.552 71.4679 131.753 71.7763C131.957 72.0811 132.059 72.4639 132.059 72.9248V75.6063C132.059 75.8813 132.078 76.1285 132.115 76.3477C132.156 76.5633 132.213 76.751 132.288 76.9108V77H130.911C130.848 76.8551 130.797 76.6711 130.76 76.4481C130.727 76.2214 130.71 76.0021 130.71 75.7902ZM130.905 73.3317L130.916 74.1624H129.952C129.703 74.1624 129.484 74.1865 129.294 74.2349C129.104 74.2795 128.947 74.3464 128.82 74.4356C128.694 74.5248 128.599 74.6325 128.536 74.7589C128.473 74.8853 128.441 75.0283 128.441 75.1882C128.441 75.348 128.478 75.4948 128.553 75.6286C128.627 75.7587 128.735 75.8609 128.876 75.9352C129.021 76.0095 129.196 76.0467 129.4 76.0467C129.675 76.0467 129.915 75.9909 130.119 75.8794C130.327 75.7642 130.491 75.6249 130.61 75.4613C130.729 75.2941 130.792 75.1361 130.799 74.9875L131.234 75.584C131.19 75.7364 131.113 75.8999 131.006 76.0746C130.898 76.2492 130.757 76.4165 130.582 76.5763C130.411 76.7324 130.205 76.8606 129.963 76.961C129.725 77.0613 129.45 77.1115 129.138 77.1115C128.744 77.1115 128.393 77.0334 128.084 76.8774C127.776 76.7175 127.534 76.5038 127.36 76.2362C127.185 75.9649 127.098 75.6583 127.098 75.3164C127.098 74.9968 127.157 74.7143 127.276 74.469C127.399 74.22 127.577 74.0119 127.811 73.8446C128.049 73.6774 128.339 73.551 128.681 73.4655C129.023 73.3763 129.413 73.3317 129.852 73.3317H130.905ZM136.919 75.3666C136.919 75.2328 136.886 75.112 136.819 75.0042C136.752 74.8927 136.624 74.7923 136.434 74.7031C136.249 74.6139 135.974 74.5322 135.609 74.4579C135.29 74.3872 134.996 74.3036 134.728 74.207C134.465 74.1066 134.238 73.9858 134.048 73.8446C133.859 73.7034 133.712 73.5361 133.608 73.3429C133.504 73.1496 133.452 72.9266 133.452 72.6739C133.452 72.4286 133.506 72.1963 133.613 71.977C133.721 71.7577 133.875 71.5645 134.076 71.3972C134.277 71.23 134.52 71.0981 134.806 71.0014C135.096 70.9048 135.42 70.8565 135.777 70.8565C136.282 70.8565 136.715 70.942 137.075 71.1129C137.44 71.2802 137.718 71.5087 137.912 71.7986C138.105 72.0848 138.202 72.4082 138.202 72.7687H136.858C136.858 72.6088 136.817 72.4602 136.735 72.3227C136.657 72.1814 136.538 72.0681 136.379 71.9826C136.219 71.8934 136.018 71.8488 135.777 71.8488C135.546 71.8488 135.355 71.886 135.202 71.9603C135.054 72.0309 134.942 72.1238 134.868 72.239C134.797 72.3543 134.762 72.4806 134.762 72.6181C134.762 72.7185 134.78 72.8095 134.818 72.8913C134.859 72.9694 134.925 73.0418 135.018 73.1087C135.111 73.1719 135.238 73.2314 135.397 73.2871C135.561 73.3429 135.765 73.3968 136.011 73.4488C136.472 73.5454 136.867 73.6699 137.198 73.8223C137.533 73.971 137.789 74.1642 137.967 74.4021C138.146 74.6362 138.235 74.9336 138.235 75.2941C138.235 75.5617 138.177 75.807 138.062 76.03C137.951 76.2492 137.787 76.4407 137.572 76.6042C137.356 76.764 137.098 76.8885 136.797 76.9777C136.499 77.0669 136.165 77.1115 135.793 77.1115C135.247 77.1115 134.784 77.0149 134.405 76.8216C134.026 76.6246 133.738 76.3738 133.541 76.069C133.348 75.7605 133.251 75.4409 133.251 75.1101H134.55C134.565 75.3591 134.634 75.558 134.756 75.7066C134.883 75.8516 135.039 75.9575 135.225 76.0244C135.414 76.0876 135.609 76.1192 135.81 76.1192C136.052 76.1192 136.254 76.0876 136.418 76.0244C136.581 75.9575 136.706 75.8683 136.791 75.7568C136.877 75.6416 136.919 75.5115 136.919 75.3666ZM140.81 68.437V77H139.472V68.437H140.81ZM140.575 73.761L140.141 73.7554C140.144 73.3392 140.202 72.9545 140.313 72.6014C140.429 72.2483 140.588 71.9417 140.793 71.6816C141.001 71.4177 141.25 71.2151 141.54 71.0739C141.83 70.9289 142.151 70.8565 142.504 70.8565C142.802 70.8565 143.069 70.8974 143.307 70.9791C143.549 71.0609 143.757 71.1928 143.931 71.3749C144.106 71.5533 144.238 71.7875 144.327 72.0774C144.42 72.3636 144.467 72.7129 144.467 73.1255V77H143.118V73.1143C143.118 72.8244 143.075 72.594 142.989 72.423C142.908 72.2521 142.787 72.1294 142.627 72.0551C142.467 71.977 142.272 71.938 142.042 71.938C141.8 71.938 141.586 71.9863 141.4 72.083C141.218 72.1796 141.066 72.3115 140.943 72.4788C140.821 72.646 140.728 72.8393 140.665 73.0586C140.605 73.2778 140.575 73.512 140.575 73.761ZM149.762 70.968H150.983V76.8328C150.983 77.3754 150.867 77.8362 150.637 78.2153C150.407 78.5944 150.085 78.8825 149.672 79.0794C149.26 79.2801 148.782 79.3805 148.24 79.3805C148.009 79.3805 147.753 79.347 147.47 79.2801C147.192 79.2132 146.92 79.1054 146.656 78.9568C146.396 78.8118 146.179 78.6204 146.004 78.3826L146.634 77.5909C146.85 77.8474 147.088 78.0351 147.348 78.154C147.608 78.2729 147.881 78.3324 148.167 78.3324C148.476 78.3324 148.738 78.2748 148.953 78.1596C149.173 78.0481 149.342 77.8827 149.461 77.6634C149.58 77.4441 149.639 77.1765 149.639 76.8606V72.3338L149.762 70.968ZM145.664 74.0509V73.9338C145.664 73.4767 145.72 73.0604 145.831 72.685C145.943 72.3059 146.103 71.9807 146.311 71.7094C146.519 71.4344 146.772 71.2244 147.069 71.0795C147.366 70.9308 147.703 70.8565 148.078 70.8565C148.468 70.8565 148.801 70.9271 149.076 71.0683C149.355 71.2096 149.587 71.4121 149.773 71.676C149.959 71.9361 150.104 72.2483 150.208 72.6126C150.315 72.9731 150.395 73.3745 150.447 73.8167V74.1903C150.399 74.6214 150.317 75.0153 150.202 75.3721C150.087 75.7289 149.934 76.0374 149.745 76.2976C149.555 76.5577 149.321 76.7584 149.043 76.8997C148.767 77.0409 148.442 77.1115 148.067 77.1115C147.699 77.1115 147.366 77.0353 147.069 76.8829C146.775 76.7305 146.523 76.5168 146.311 76.2418C146.103 75.9668 145.943 75.6434 145.831 75.2718C145.72 74.8964 145.664 74.4894 145.664 74.0509ZM147.008 73.9338V74.0509C147.008 74.3259 147.034 74.5824 147.086 74.8202C147.141 75.0581 147.225 75.2681 147.337 75.4502C147.452 75.6286 147.597 75.7698 147.771 75.8739C147.95 75.9742 148.16 76.0244 148.401 76.0244C148.717 76.0244 148.976 75.9575 149.176 75.8237C149.381 75.6899 149.537 75.5096 149.645 75.2829C149.756 75.0525 149.834 74.7961 149.879 74.5136V73.5045C149.856 73.2853 149.81 73.0809 149.739 72.8913C149.672 72.7018 149.581 72.5364 149.466 72.3951C149.351 72.2502 149.206 72.1387 149.031 72.0607C148.857 71.9789 148.65 71.938 148.413 71.938C148.171 71.938 147.961 71.99 147.783 72.0941C147.604 72.1982 147.457 72.3413 147.342 72.5234C147.231 72.7055 147.147 72.9173 147.091 73.1589C147.036 73.4005 147.008 73.6588 147.008 73.9338ZM155.848 75.7902V72.9136C155.848 72.698 155.809 72.5122 155.731 72.3561C155.653 72.2 155.534 72.0792 155.374 71.9938C155.218 71.9083 155.021 71.8655 154.784 71.8655C154.564 71.8655 154.375 71.9027 154.215 71.977C154.055 72.0514 153.931 72.1517 153.841 72.2781C153.752 72.4044 153.708 72.5475 153.708 72.7073H152.37C152.37 72.4695 152.427 72.239 152.542 72.0161C152.658 71.7931 152.825 71.5942 153.044 71.4195C153.263 71.2449 153.525 71.1073 153.83 71.007C154.135 70.9066 154.477 70.8565 154.856 70.8565C155.309 70.8565 155.711 70.9327 156.06 71.085C156.413 71.2374 156.69 71.4679 156.891 71.7763C157.095 72.0811 157.197 72.4639 157.197 72.9248V75.6063C157.197 75.8813 157.216 76.1285 157.253 76.3477C157.294 76.5633 157.352 76.751 157.426 76.9108V77H156.049C155.986 76.8551 155.936 76.6711 155.899 76.4481C155.865 76.2214 155.848 76.0021 155.848 75.7902ZM156.043 73.3317L156.055 74.1624H155.09C154.841 74.1624 154.622 74.1865 154.432 74.2349C154.243 74.2795 154.085 74.3464 153.958 74.4356C153.832 74.5248 153.737 74.6325 153.674 74.7589C153.611 74.8853 153.579 75.0283 153.579 75.1882C153.579 75.348 153.617 75.4948 153.691 75.6286C153.765 75.7587 153.873 75.8609 154.014 75.9352C154.159 76.0095 154.334 76.0467 154.538 76.0467C154.813 76.0467 155.053 75.9909 155.257 75.8794C155.466 75.7642 155.629 75.6249 155.748 75.4613C155.867 75.2941 155.93 75.1361 155.938 74.9875L156.372 75.584C156.328 75.7364 156.252 75.8999 156.144 76.0746C156.036 76.2492 155.895 76.4165 155.72 76.5763C155.549 76.7324 155.343 76.8606 155.101 76.961C154.863 77.0613 154.588 77.1115 154.276 77.1115C153.882 77.1115 153.531 77.0334 153.223 76.8774C152.914 76.7175 152.673 76.5038 152.498 76.2362C152.323 75.9649 152.236 75.6583 152.236 75.3164C152.236 74.9968 152.295 74.7143 152.414 74.469C152.537 74.22 152.715 74.0119 152.949 73.8446C153.187 73.6774 153.477 73.551 153.819 73.4655C154.161 73.3763 154.551 73.3317 154.99 73.3317H156.043ZM162.943 68.437V77H161.594V68.437H162.943ZM166.689 70.968L164.063 73.8781L162.625 75.3498L162.274 74.2126L163.361 72.869L165.067 70.968H166.689ZM165.357 77L163.4 74.168L164.247 73.2258L166.912 77H165.357ZM169.052 70.968V77H167.703V70.968H169.052ZM167.614 69.3847C167.614 69.1803 167.68 69.0112 167.814 68.8774C167.952 68.7399 168.141 68.6711 168.383 68.6711C168.621 68.6711 168.808 68.7399 168.946 68.8774C169.083 69.0112 169.152 69.1803 169.152 69.3847C169.152 69.5854 169.083 69.7526 168.946 69.8864C168.808 70.0202 168.621 70.0871 168.383 70.0871C168.141 70.0871 167.952 70.0202 167.814 69.8864C167.68 69.7526 167.614 69.5854 167.614 69.3847ZM171.944 72.1164V77H170.601V70.968H171.883L171.944 72.1164ZM173.789 70.9289L173.778 72.1777C173.697 72.1629 173.607 72.1517 173.511 72.1443C173.418 72.1368 173.325 72.1331 173.232 72.1331C173.002 72.1331 172.799 72.1666 172.624 72.2335C172.45 72.2967 172.303 72.3896 172.184 72.5122C172.069 72.6311 171.979 72.7761 171.916 72.9471C171.853 73.118 171.816 73.3094 171.805 73.5213L171.498 73.5436C171.498 73.1645 171.535 72.8133 171.61 72.4899C171.684 72.1666 171.795 71.8823 171.944 71.637C172.097 71.3917 172.286 71.2003 172.513 71.0627C172.743 70.9252 173.009 70.8565 173.31 70.8565C173.392 70.8565 173.479 70.8639 173.572 70.8788C173.669 70.8936 173.741 70.9104 173.789 70.9289ZM176.141 70.968V77H174.792V70.968H176.141ZM174.703 69.3847C174.703 69.1803 174.769 69.0112 174.903 68.8774C175.041 68.7399 175.23 68.6711 175.472 68.6711C175.71 68.6711 175.897 68.7399 176.035 68.8774C176.173 69.0112 176.241 69.1803 176.241 69.3847C176.241 69.5854 176.173 69.7526 176.035 69.8864C175.897 70.0202 175.71 70.0871 175.472 70.0871C175.23 70.0871 175.041 70.0202 174.903 69.8864C174.769 69.7526 174.703 69.5854 174.703 69.3847ZM181.068 75.3666C181.068 75.2328 181.035 75.112 180.968 75.0042C180.901 74.8927 180.773 74.7923 180.583 74.7031C180.397 74.6139 180.122 74.5322 179.758 74.4579C179.438 74.3872 179.145 74.3036 178.877 74.207C178.613 74.1066 178.386 73.9858 178.197 73.8446C178.007 73.7034 177.861 73.5361 177.757 73.3429C177.652 73.1496 177.6 72.9266 177.6 72.6739C177.6 72.4286 177.654 72.1963 177.762 71.977C177.87 71.7577 178.024 71.5645 178.225 71.3972C178.426 71.23 178.669 71.0981 178.955 71.0014C179.245 70.9048 179.568 70.8565 179.925 70.8565C180.431 70.8565 180.864 70.942 181.224 71.1129C181.588 71.2802 181.867 71.5087 182.06 71.7986C182.254 72.0848 182.35 72.4082 182.35 72.7687H181.007C181.007 72.6088 180.966 72.4602 180.884 72.3227C180.806 72.1814 180.687 72.0681 180.527 71.9826C180.367 71.8934 180.167 71.8488 179.925 71.8488C179.695 71.8488 179.503 71.886 179.351 71.9603C179.202 72.0309 179.091 72.1238 179.016 72.239C178.946 72.3543 178.911 72.4806 178.911 72.6181C178.911 72.7185 178.929 72.8095 178.966 72.8913C179.007 72.9694 179.074 73.0418 179.167 73.1087C179.26 73.1719 179.386 73.2314 179.546 73.2871C179.71 73.3429 179.914 73.3968 180.159 73.4488C180.62 73.5454 181.016 73.6699 181.347 73.8223C181.681 73.971 181.938 74.1642 182.116 74.4021C182.294 74.6362 182.384 74.9336 182.384 75.2941C182.384 75.5617 182.326 75.807 182.211 76.03C182.099 76.2492 181.936 76.4407 181.72 76.6042C181.505 76.764 181.246 76.8885 180.945 76.9777C180.648 77.0669 180.314 77.1115 179.942 77.1115C179.396 77.1115 178.933 77.0149 178.554 76.8216C178.175 76.6246 177.887 76.3738 177.69 76.069C177.496 75.7605 177.4 75.4409 177.4 75.1101H178.699C178.714 75.3591 178.782 75.558 178.905 75.7066C179.031 75.8516 179.187 75.9575 179.373 76.0244C179.563 76.0876 179.758 76.1192 179.959 76.1192C180.2 76.1192 180.403 76.0876 180.566 76.0244C180.73 75.9575 180.854 75.8683 180.94 75.7568C181.025 75.6416 181.068 75.5115 181.068 75.3666ZM184.958 68.437V77H183.62V68.437H184.958ZM184.724 73.761L184.289 73.7554C184.293 73.3392 184.351 72.9545 184.462 72.6014C184.577 72.2483 184.737 71.9417 184.941 71.6816C185.15 71.4177 185.399 71.2151 185.688 71.0739C185.978 70.9289 186.3 70.8565 186.653 70.8565C186.95 70.8565 187.218 70.8974 187.456 70.9791C187.697 71.0609 187.905 71.1928 188.08 71.3749C188.255 71.5533 188.387 71.7875 188.476 72.0774C188.569 72.3636 188.615 72.7129 188.615 73.1255V77H187.266V73.1143C187.266 72.8244 187.223 72.594 187.138 72.423C187.056 72.2521 186.935 72.1294 186.776 72.0551C186.616 71.977 186.421 71.938 186.19 71.938C185.949 71.938 185.735 71.9863 185.549 72.083C185.367 72.1796 185.215 72.3115 185.092 72.4788C184.969 72.646 184.876 72.8393 184.813 73.0586C184.754 73.2778 184.724 73.512 184.724 73.761Z" fill="#1C2023"/>
<path d="M308.375 76.2446L311.123 73.4963L308.375 70.7479C308.099 70.4717 308.099 70.0254 308.375 69.7492C308.651 69.4729 309.098 69.4729 309.374 69.7492L312.625 73.0004C312.901 73.2767 312.901 73.7229 312.625 73.9992L309.374 77.2504C309.098 77.5267 308.651 77.5267 308.375 77.2504C308.106 76.9742 308.099 76.5208 308.375 76.2446Z" fill="#787579"/>
<path d="M66.0443 91.9122H66.8262L68.8206 96.8753L70.8108 91.9122H71.5969L69.1216 98H68.5112L66.0443 91.9122ZM65.7893 91.9122H66.4792L66.592 95.6251V98H65.7893V91.9122ZM71.1579 91.9122H71.8478V98H71.045V95.6251L71.1579 91.9122ZM76.1011 97.2265V94.8976C76.1011 94.7192 76.0649 94.5645 75.9924 94.4335C75.9227 94.2997 75.8168 94.1965 75.6746 94.1241C75.5325 94.0516 75.3569 94.0154 75.1478 94.0154C74.9527 94.0154 74.7813 94.0488 74.6335 94.1157C74.4886 94.1826 74.3743 94.2704 74.2907 94.3791C74.2098 94.4878 74.1694 94.6049 74.1694 94.7303H73.3959C73.3959 94.5687 73.4377 94.4084 73.5213 94.2495C73.605 94.0906 73.7248 93.9471 73.8809 93.8188C74.0398 93.6878 74.2294 93.5847 74.4496 93.5094C74.6726 93.4314 74.9206 93.3924 75.1938 93.3924C75.5227 93.3924 75.8126 93.4481 76.0635 93.5596C76.3172 93.6711 76.5151 93.8397 76.6572 94.0655C76.8022 94.2885 76.8746 94.5687 76.8746 94.9059V97.0132C76.8746 97.1638 76.8872 97.324 76.9123 97.4941C76.9401 97.6641 76.9806 97.8105 77.0335 97.9331V98H76.2266C76.1875 97.9108 76.1569 97.7923 76.1346 97.6446C76.1123 97.4941 76.1011 97.3547 76.1011 97.2265ZM76.2349 95.2572L76.2433 95.8007H75.4614C75.2412 95.8007 75.0447 95.8188 74.8719 95.8551C74.699 95.8885 74.5541 95.9401 74.437 96.0098C74.3199 96.0795 74.2308 96.1673 74.1694 96.2732C74.1081 96.3763 74.0774 96.4976 74.0774 96.6369C74.0774 96.7791 74.1095 96.9087 74.1736 97.0258C74.2377 97.1429 74.3339 97.2362 74.4621 97.3059C74.5931 97.3728 74.7534 97.4063 74.9429 97.4063C75.1799 97.4063 75.3889 97.3561 75.5701 97.2558C75.7513 97.1554 75.8949 97.0328 76.0008 96.8878C76.1095 96.7429 76.168 96.6021 76.1764 96.4655L76.5067 96.8376C76.4872 96.9547 76.4342 97.0843 76.3478 97.2265C76.2614 97.3686 76.1457 97.5052 76.0008 97.6362C75.8586 97.7645 75.6886 97.8718 75.4907 97.9582C75.2956 98.0418 75.0753 98.0836 74.8301 98.0836C74.5234 98.0836 74.2544 98.0237 74.0231 97.9038C73.7945 97.784 73.6161 97.6237 73.4879 97.423C73.3625 97.2195 73.2997 96.9923 73.2997 96.7415C73.2997 96.499 73.3471 96.2857 73.4419 96.1018C73.5367 95.915 73.6733 95.7603 73.8517 95.6376C74.0301 95.5122 74.2447 95.4174 74.4956 95.3533C74.7464 95.2892 75.0266 95.2572 75.336 95.2572H76.2349ZM78.3977 93.476H79.1754V98.5394C79.1754 98.8153 79.1308 99.0495 79.0416 99.2418C78.9552 99.4341 78.8242 99.5791 78.6486 99.6766C78.4757 99.777 78.2569 99.8272 77.9921 99.8272C77.9224 99.8272 77.8416 99.8202 77.7496 99.8063C77.6548 99.7923 77.5754 99.7756 77.5113 99.7561L77.5155 99.1331C77.5684 99.1442 77.6284 99.1526 77.6953 99.1582C77.7622 99.1665 77.8207 99.1707 77.8709 99.1707C77.9852 99.1707 78.0813 99.1498 78.1594 99.108C78.2374 99.0662 78.296 98.9993 78.335 98.9073C78.3768 98.8153 78.3977 98.6927 78.3977 98.5394V93.476ZM78.3183 92.276C78.3183 92.1506 78.3573 92.0446 78.4353 91.9582C78.5134 91.8718 78.6263 91.8286 78.774 91.8286C78.9245 91.8286 79.0388 91.8718 79.1169 91.9582C79.1949 92.0446 79.2339 92.1506 79.2339 92.276C79.2339 92.3958 79.1949 92.499 79.1169 92.5854C79.0388 92.669 78.9245 92.7108 78.774 92.7108C78.6263 92.7108 78.5134 92.669 78.4353 92.5854C78.3573 92.499 78.3183 92.3958 78.3183 92.276ZM80.7068 91.5777H81.4845V97.122L81.4176 98H80.7068V91.5777ZM84.5409 95.7004V95.7882C84.5409 96.1171 84.5019 96.4223 84.4239 96.7038C84.3458 96.9826 84.2315 97.2251 84.081 97.4314C83.9305 97.6376 83.7465 97.7979 83.5291 97.9122C83.3117 98.0265 83.0622 98.0836 82.7807 98.0836C82.4936 98.0836 82.2413 98.0348 82.0239 97.9373C81.8092 97.8369 81.6281 97.6934 81.4803 97.5066C81.3326 97.3199 81.2141 97.0941 81.1249 96.8293C81.0385 96.5645 80.9786 96.2662 80.9451 95.9345V95.5498C80.9786 95.2153 81.0385 94.9157 81.1249 94.6509C81.2141 94.3861 81.3326 94.1603 81.4803 93.9735C81.6281 93.784 81.8092 93.6404 82.0239 93.5429C82.2385 93.4425 82.488 93.3924 82.7723 93.3924C83.0566 93.3924 83.3089 93.4481 83.5291 93.5596C83.7493 93.6683 83.9333 93.8244 84.081 94.0279C84.2315 94.2314 84.3458 94.4753 84.4239 94.7596C84.5019 95.0411 84.5409 95.3547 84.5409 95.7004ZM83.7632 95.7882V95.7004C83.7632 95.4746 83.7423 95.2627 83.7005 95.0648C83.6587 94.8641 83.5918 94.6885 83.4998 94.538C83.4078 94.3847 83.2866 94.2648 83.1361 94.1784C82.9856 94.0892 82.8002 94.0446 82.58 94.0446C82.3849 94.0446 82.2148 94.0781 82.0699 94.145C81.9277 94.2119 81.8065 94.3025 81.7061 94.4167C81.6058 94.5282 81.5235 94.6565 81.4594 94.8014C81.3981 94.9436 81.3521 95.0913 81.3214 95.2446V96.2523C81.366 96.4474 81.4385 96.6355 81.5389 96.8167C81.642 96.9951 81.7786 97.1415 81.9486 97.2558C82.1214 97.37 82.3347 97.4272 82.5883 97.4272C82.7974 97.4272 82.9758 97.3854 83.1235 97.3017C83.2741 97.2153 83.3953 97.0969 83.4873 96.9463C83.5821 96.7958 83.6517 96.6216 83.6963 96.4237C83.7409 96.2258 83.7632 96.0139 83.7632 95.7882ZM88.5727 96.9547V93.476H89.3504V98H88.6103L88.5727 96.9547ZM88.719 96.0014L89.041 95.993C89.041 96.2941 89.0089 96.5728 88.9448 96.8293C88.8835 97.0829 88.7832 97.3031 88.6438 97.4899C88.5044 97.6767 88.3218 97.823 88.096 97.9289C87.8703 98.0321 87.5957 98.0836 87.2724 98.0836C87.0522 98.0836 86.8501 98.0516 86.6661 97.9875C86.4849 97.9233 86.3288 97.8244 86.1978 97.6906C86.0668 97.5568 85.965 97.3826 85.8926 97.1679C85.8229 96.9533 85.788 96.6955 85.788 96.3944V93.476H86.5616V96.4028C86.5616 96.6063 86.5839 96.7749 86.6285 96.9087C86.6758 97.0397 86.7386 97.1443 86.8166 97.2223C86.8974 97.2976 86.9866 97.3505 87.0842 97.3812C87.1846 97.4118 87.2877 97.4272 87.3936 97.4272C87.7225 97.4272 87.9832 97.3645 88.1755 97.239C88.3678 97.1108 88.5058 96.9394 88.5894 96.7247C88.6758 96.5073 88.719 96.2662 88.719 96.0014ZM91.5884 94.1868V98H90.8149V93.476H91.5675L91.5884 94.1868ZM93.0017 93.4509L92.9975 94.1701C92.9334 94.1561 92.8721 94.1478 92.8135 94.145C92.7578 94.1394 92.6937 94.1366 92.6212 94.1366C92.4428 94.1366 92.2853 94.1645 92.1487 94.2202C92.0121 94.276 91.8964 94.354 91.8017 94.4544C91.7069 94.5547 91.6316 94.6746 91.5759 94.814C91.5229 94.9505 91.4881 95.1011 91.4714 95.2655L91.2539 95.391C91.2539 95.1178 91.2804 94.8613 91.3334 94.6216C91.3891 94.3819 91.4742 94.1701 91.5884 93.9861C91.7027 93.7993 91.8477 93.6544 92.0233 93.5512C92.2017 93.4453 92.4135 93.3924 92.6588 93.3924C92.7146 93.3924 92.7787 93.3993 92.8511 93.4133C92.9236 93.4244 92.9738 93.437 93.0017 93.4509ZM94.8425 93.476V98H94.0648V93.476H94.8425ZM94.0063 92.276C94.0063 92.1506 94.0439 92.0446 94.1192 91.9582C94.1972 91.8718 94.3115 91.8286 94.462 91.8286C94.6097 91.8286 94.7226 91.8718 94.8007 91.9582C94.8815 92.0446 94.9219 92.1506 94.9219 92.276C94.9219 92.3958 94.8815 92.499 94.8007 92.5854C94.7226 92.669 94.6097 92.7108 94.462 92.7108C94.3115 92.7108 94.1972 92.669 94.1192 92.5854C94.0439 92.499 94.0063 92.3958 94.0063 92.276ZM97.6408 97.5317L98.8993 93.476H99.7272L97.9126 98.6983C97.8708 98.8098 97.815 98.9296 97.7453 99.0578C97.6784 99.1888 97.592 99.3129 97.4861 99.43C97.3802 99.547 97.252 99.6418 97.1014 99.7143C96.9537 99.7895 96.7767 99.8272 96.5704 99.8272C96.5091 99.8272 96.4311 99.8188 96.3363 99.8021C96.2415 99.7854 96.1746 99.7714 96.1356 99.7603L96.1314 99.1331C96.1537 99.1359 96.1886 99.1387 96.2359 99.1415C96.2861 99.147 96.321 99.1498 96.3405 99.1498C96.5161 99.1498 96.6652 99.1261 96.7879 99.0787C96.9105 99.0341 97.0136 98.9575 97.0973 98.8488C97.1837 98.7429 97.2575 98.5965 97.3189 98.4098L97.6408 97.5317ZM96.7168 93.476L97.8917 96.9882L98.0924 97.8035L97.5363 98.0878L95.8722 93.476H96.7168Z" fill="#49454F"/>
<line x1="106.148" y1="91" x2="106.148" y2="99" stroke="#605D66" stroke-width="0.713585"/>
<path d="M114.548 91.8788V98H113.775V92.8446L112.215 93.4133V92.715L114.427 91.8788H114.548ZM120.946 96.3526C120.946 96.7234 120.86 97.0383 120.687 97.2976C120.517 97.554 120.286 97.7491 119.993 97.8829C119.703 98.0167 119.376 98.0836 119.01 98.0836C118.645 98.0836 118.316 98.0167 118.024 97.8829C117.731 97.7491 117.5 97.554 117.33 97.2976C117.16 97.0383 117.075 96.7234 117.075 96.3526C117.075 96.1101 117.121 95.8885 117.213 95.6878C117.307 95.4843 117.44 95.3073 117.61 95.1568C117.783 95.0063 117.986 94.8906 118.22 94.8098C118.457 94.7261 118.718 94.6843 119.002 94.6843C119.376 94.6843 119.709 94.7568 120.001 94.9018C120.294 95.0439 120.524 95.2404 120.691 95.4913C120.861 95.7422 120.946 96.0293 120.946 96.3526ZM120.169 96.3359C120.169 96.1101 120.12 95.9108 120.022 95.738C119.925 95.5624 119.788 95.4258 119.613 95.3282C119.437 95.2307 119.233 95.1819 119.002 95.1819C118.765 95.1819 118.56 95.2307 118.387 95.3282C118.217 95.4258 118.085 95.5624 117.99 95.738C117.896 95.9108 117.848 96.1101 117.848 96.3359C117.848 96.57 117.894 96.7707 117.986 96.938C118.081 97.1024 118.215 97.2293 118.387 97.3185C118.563 97.4049 118.771 97.4481 119.01 97.4481C119.25 97.4481 119.456 97.4049 119.629 97.3185C119.802 97.2293 119.935 97.1024 120.027 96.938C120.121 96.7707 120.169 96.57 120.169 96.3359ZM120.804 93.4969C120.804 93.7924 120.726 94.0586 120.57 94.2955C120.414 94.5324 120.201 94.7192 119.93 94.8558C119.66 94.9923 119.353 95.0606 119.01 95.0606C118.662 95.0606 118.351 94.9923 118.078 94.8558C117.808 94.7192 117.596 94.5324 117.443 94.2955C117.289 94.0586 117.213 93.7924 117.213 93.4969C117.213 93.1429 117.289 92.8418 117.443 92.5938C117.599 92.3457 117.812 92.1561 118.082 92.0251C118.353 91.8941 118.661 91.8286 119.006 91.8286C119.355 91.8286 119.664 91.8941 119.935 92.0251C120.205 92.1561 120.417 92.3457 120.57 92.5938C120.726 92.8418 120.804 93.1429 120.804 93.4969ZM120.031 93.5094C120.031 93.3059 119.987 93.1262 119.901 92.9701C119.815 92.814 119.695 92.6913 119.541 92.6021C119.388 92.5101 119.21 92.4641 119.006 92.4641C118.803 92.4641 118.624 92.5073 118.471 92.5938C118.321 92.6774 118.202 92.7972 118.116 92.9533C118.032 93.1094 117.99 93.2948 117.99 93.5094C117.99 93.7185 118.032 93.9011 118.116 94.0572C118.202 94.2133 118.322 94.3345 118.475 94.4209C118.629 94.5073 118.807 94.5505 119.01 94.5505C119.214 94.5505 119.391 94.5073 119.541 94.4209C119.695 94.3345 119.815 94.2133 119.901 94.0572C119.987 93.9011 120.031 93.7185 120.031 93.5094ZM126.032 94.4711V95.3993C126.032 95.8983 125.987 96.3192 125.898 96.662C125.809 97.0049 125.681 97.2808 125.513 97.4899C125.346 97.699 125.144 97.8509 124.907 97.9456C124.673 98.0376 124.408 98.0836 124.113 98.0836C123.878 98.0836 123.662 98.0544 123.465 97.9958C123.267 97.9373 123.088 97.8439 122.929 97.7157C122.773 97.5847 122.639 97.4146 122.528 97.2056C122.416 96.9965 122.331 96.7429 122.273 96.4446C122.214 96.1464 122.185 95.7979 122.185 95.3993V94.4711C122.185 93.9721 122.23 93.554 122.319 93.2167C122.411 92.8795 122.541 92.6091 122.708 92.4056C122.875 92.1993 123.076 92.0516 123.31 91.9624C123.547 91.8732 123.812 91.8286 124.104 91.8286C124.341 91.8286 124.559 91.8579 124.757 91.9164C124.957 91.9722 125.136 92.0627 125.292 92.1882C125.448 92.3108 125.58 92.4753 125.689 92.6816C125.8 92.885 125.885 93.1345 125.944 93.43C126.003 93.7255 126.032 94.0725 126.032 94.4711ZM125.254 95.5248V94.3415C125.254 94.0683 125.237 93.8286 125.204 93.6223C125.173 93.4133 125.127 93.2349 125.066 93.0871C125.005 92.9394 124.927 92.8195 124.832 92.7276C124.74 92.6356 124.632 92.5687 124.51 92.5269C124.39 92.4823 124.255 92.46 124.104 92.46C123.92 92.46 123.757 92.4948 123.615 92.5645C123.473 92.6314 123.353 92.7387 123.255 92.8864C123.161 93.0342 123.088 93.2279 123.038 93.4676C122.988 93.7073 122.963 93.9986 122.963 94.3415V95.5248C122.963 95.7979 122.978 96.039 123.009 96.2481C123.042 96.4572 123.091 96.6383 123.155 96.7916C123.219 96.9422 123.297 97.0662 123.389 97.1638C123.481 97.2613 123.587 97.3338 123.707 97.3812C123.83 97.4258 123.965 97.4481 124.113 97.4481C124.302 97.4481 124.468 97.4118 124.61 97.3394C124.752 97.2669 124.871 97.154 124.966 97.0007C125.063 96.8446 125.136 96.6453 125.183 96.4028C125.23 96.1575 125.254 95.8648 125.254 95.5248ZM132.44 96.8C132.44 96.6885 132.414 96.5854 132.364 96.4906C132.317 96.393 132.218 96.3052 132.067 96.2272C131.92 96.1464 131.697 96.0767 131.398 96.0181C131.148 95.9652 130.92 95.9024 130.717 95.83C130.516 95.7575 130.345 95.6697 130.203 95.5666C130.063 95.4634 129.956 95.3422 129.881 95.2028C129.805 95.0634 129.768 94.9004 129.768 94.7136C129.768 94.5352 129.807 94.3666 129.885 94.2077C129.966 94.0488 130.079 93.908 130.224 93.7854C130.371 93.6627 130.548 93.5666 130.755 93.4969C130.961 93.4272 131.191 93.3924 131.444 93.3924C131.807 93.3924 132.116 93.4565 132.373 93.5847C132.629 93.7129 132.826 93.8843 132.962 94.099C133.099 94.3108 133.167 94.5464 133.167 94.8056H132.394C132.394 94.6802 132.356 94.5589 132.281 94.4418C132.208 94.322 132.101 94.223 131.959 94.145C131.819 94.0669 131.648 94.0279 131.444 94.0279C131.23 94.0279 131.056 94.0613 130.922 94.1282C130.791 94.1924 130.695 94.2746 130.633 94.3749C130.575 94.4753 130.545 94.5812 130.545 94.6927C130.545 94.7763 130.559 94.8516 130.587 94.9185C130.618 94.9826 130.671 95.0425 130.746 95.0983C130.821 95.1512 130.927 95.2014 131.064 95.2488C131.201 95.2962 131.375 95.3436 131.587 95.391C131.957 95.4746 132.263 95.5749 132.502 95.692C132.742 95.8091 132.92 95.9526 133.037 96.1227C133.155 96.2927 133.213 96.499 133.213 96.7415C133.213 96.9394 133.171 97.1206 133.088 97.285C133.007 97.4495 132.888 97.5916 132.732 97.7115C132.579 97.8286 132.395 97.9206 132.18 97.9875C131.968 98.0516 131.73 98.0836 131.465 98.0836C131.067 98.0836 130.729 98.0125 130.453 97.8704C130.178 97.7282 129.968 97.5443 129.826 97.3185C129.684 97.0927 129.613 96.8544 129.613 96.6035H130.391C130.402 96.8153 130.463 96.984 130.575 97.1094C130.686 97.2321 130.823 97.3199 130.985 97.3728C131.146 97.423 131.306 97.4481 131.465 97.4481C131.677 97.4481 131.854 97.4202 131.996 97.3645C132.141 97.3087 132.251 97.2321 132.327 97.1345C132.402 97.0369 132.44 96.9254 132.44 96.8ZM134.31 95.7882V95.692C134.31 95.3659 134.357 95.0634 134.452 94.7847C134.547 94.5032 134.683 94.2593 134.862 94.053C135.04 93.8439 135.256 93.6823 135.51 93.568C135.763 93.4509 136.048 93.3924 136.363 93.3924C136.68 93.3924 136.966 93.4509 137.22 93.568C137.476 93.6823 137.694 93.8439 137.872 94.053C138.053 94.2593 138.191 94.5032 138.286 94.7847C138.381 95.0634 138.428 95.3659 138.428 95.692V95.7882C138.428 96.1143 138.381 96.4167 138.286 96.6955C138.191 96.9742 138.053 97.2181 137.872 97.4272C137.694 97.6335 137.478 97.7951 137.224 97.9122C136.973 98.0265 136.689 98.0836 136.371 98.0836C136.053 98.0836 135.767 98.0265 135.514 97.9122C135.26 97.7951 135.043 97.6335 134.862 97.4272C134.683 97.2181 134.547 96.9742 134.452 96.6955C134.357 96.4167 134.31 96.1143 134.31 95.7882ZM135.083 95.692V95.7882C135.083 96.0139 135.11 96.2272 135.163 96.4279C135.216 96.6258 135.295 96.8014 135.401 96.9547C135.51 97.108 135.645 97.2293 135.807 97.3185C135.968 97.4049 136.156 97.4481 136.371 97.4481C136.583 97.4481 136.768 97.4049 136.927 97.3185C137.089 97.2293 137.223 97.108 137.328 96.9547C137.434 96.8014 137.514 96.6258 137.567 96.4279C137.623 96.2272 137.65 96.0139 137.65 95.7882V95.692C137.65 95.469 137.623 95.2585 137.567 95.0606C137.514 94.8599 137.433 94.6829 137.324 94.5296C137.218 94.3735 137.085 94.2509 136.923 94.1617C136.764 94.0725 136.577 94.0279 136.363 94.0279C136.151 94.0279 135.964 94.0725 135.802 94.1617C135.643 94.2509 135.51 94.3735 135.401 94.5296C135.295 94.6829 135.216 94.8599 135.163 95.0606C135.11 95.2585 135.083 95.469 135.083 95.692ZM142.351 97.2265V94.8976C142.351 94.7192 142.315 94.5645 142.242 94.4335C142.173 94.2997 142.067 94.1965 141.925 94.1241C141.782 94.0516 141.607 94.0154 141.398 94.0154C141.203 94.0154 141.031 94.0488 140.884 94.1157C140.739 94.1826 140.624 94.2704 140.541 94.3791C140.46 94.4878 140.419 94.6049 140.419 94.7303H139.646C139.646 94.5687 139.688 94.4084 139.771 94.2495C139.855 94.0906 139.975 93.9471 140.131 93.8188C140.29 93.6878 140.479 93.5847 140.7 93.5094C140.923 93.4314 141.171 93.3924 141.444 93.3924C141.773 93.3924 142.063 93.4481 142.314 93.5596C142.567 93.6711 142.765 93.8397 142.907 94.0655C143.052 94.2885 143.125 94.5687 143.125 94.9059V97.0132C143.125 97.1638 143.137 97.324 143.162 97.4941C143.19 97.6641 143.231 97.8105 143.284 97.9331V98H142.477C142.438 97.9108 142.407 97.7923 142.385 97.6446C142.362 97.4941 142.351 97.3547 142.351 97.2265ZM142.485 95.2572L142.493 95.8007H141.711C141.491 95.8007 141.295 95.8188 141.122 95.8551C140.949 95.8885 140.804 95.9401 140.687 96.0098C140.57 96.0795 140.481 96.1673 140.419 96.2732C140.358 96.3763 140.327 96.4976 140.327 96.6369C140.327 96.7791 140.36 96.9087 140.424 97.0258C140.488 97.1429 140.584 97.2362 140.712 97.3059C140.843 97.3728 141.003 97.4063 141.193 97.4063C141.43 97.4063 141.639 97.3561 141.82 97.2558C142.001 97.1554 142.145 97.0328 142.251 96.8878C142.36 96.7429 142.418 96.6021 142.426 96.4655L142.757 96.8376C142.737 96.9547 142.684 97.0843 142.598 97.2265C142.511 97.3686 142.396 97.5052 142.251 97.6362C142.109 97.7645 141.939 97.8718 141.741 97.9582C141.546 98.0418 141.325 98.0836 141.08 98.0836C140.773 98.0836 140.504 98.0237 140.273 97.9038C140.045 97.784 139.866 97.6237 139.738 97.423C139.612 97.2195 139.55 96.9923 139.55 96.7415C139.55 96.499 139.597 96.2857 139.692 96.1018C139.787 95.915 139.923 95.7603 140.102 95.6376C140.28 95.5122 140.495 95.4174 140.746 95.3533C140.996 95.2892 141.277 95.2572 141.586 95.2572H142.485ZM146.521 93.476V94.0697H144.075V93.476H146.521ZM144.903 92.3763H145.676V96.8794C145.676 97.0328 145.7 97.1484 145.747 97.2265C145.795 97.3045 145.856 97.3561 145.931 97.3812C146.007 97.4063 146.087 97.4188 146.174 97.4188C146.238 97.4188 146.305 97.4132 146.375 97.4021C146.447 97.3882 146.501 97.377 146.538 97.3686L146.542 98C146.48 98.0195 146.4 98.0376 146.299 98.0544C146.202 98.0739 146.083 98.0836 145.944 98.0836C145.754 98.0836 145.58 98.046 145.421 97.9707C145.262 97.8955 145.136 97.77 145.041 97.5944C144.949 97.416 144.903 97.1763 144.903 96.8753V92.3763Z" fill="#49454F"/>
<line x1="153.565" y1="91" x2="153.565" y2="99" stroke="#605D66" stroke-width="0.713585"/>
<path d="M162.392 91.9039H162.459V92.5603H162.392C161.982 92.5603 161.639 92.6272 161.363 92.761C161.087 92.892 160.869 93.069 160.707 93.292C160.545 93.5122 160.428 93.7603 160.356 94.0363C160.286 94.3122 160.251 94.5924 160.251 94.8767V95.7714C160.251 96.0418 160.283 96.2815 160.347 96.4906C160.411 96.6969 160.499 96.8711 160.611 97.0132C160.722 97.1554 160.848 97.2627 160.987 97.3352C161.129 97.4077 161.277 97.4439 161.43 97.4439C161.609 97.4439 161.768 97.4105 161.907 97.3436C162.046 97.2739 162.163 97.1777 162.258 97.0551C162.356 96.9296 162.43 96.7819 162.48 96.6119C162.53 96.4418 162.555 96.2551 162.555 96.0516C162.555 95.8704 162.533 95.6962 162.488 95.5289C162.443 95.3589 162.375 95.2084 162.283 95.0774C162.191 94.9436 162.076 94.839 161.936 94.7638C161.8 94.6857 161.637 94.6467 161.447 94.6467C161.232 94.6467 161.032 94.6997 160.845 94.8056C160.661 94.9087 160.509 95.0453 160.389 95.2153C160.272 95.3826 160.205 95.5652 160.188 95.7631L159.779 95.7589C159.818 95.4467 159.89 95.1805 159.996 94.9603C160.105 94.7373 160.239 94.5561 160.397 94.4167C160.559 94.2746 160.739 94.1714 160.937 94.1073C161.138 94.0404 161.349 94.007 161.572 94.007C161.876 94.007 162.138 94.0641 162.358 94.1784C162.579 94.2927 162.76 94.446 162.902 94.6383C163.044 94.8279 163.149 95.0425 163.216 95.2822C163.285 95.5192 163.32 95.7631 163.32 96.0139C163.32 96.3011 163.28 96.57 163.199 96.8209C163.118 97.0718 162.997 97.292 162.835 97.4815C162.676 97.6711 162.48 97.8188 162.246 97.9247C162.011 98.0307 161.74 98.0836 161.43 98.0836C161.101 98.0836 160.814 98.0167 160.569 97.8829C160.324 97.7463 160.12 97.5652 159.958 97.3394C159.797 97.1136 159.676 96.8627 159.595 96.5868C159.514 96.3108 159.473 96.0307 159.473 95.7464V95.3826C159.473 94.9533 159.517 94.5324 159.603 94.1199C159.689 93.7073 159.839 93.3338 160.05 92.9993C160.265 92.6648 160.562 92.3986 160.941 92.2007C161.32 92.0028 161.804 91.9039 162.392 91.9039ZM164.622 97.5902C164.622 97.4592 164.662 97.3491 164.743 97.2599C164.826 97.1679 164.946 97.122 165.102 97.122C165.259 97.122 165.377 97.1679 165.458 97.2599C165.541 97.3491 165.583 97.4592 165.583 97.5902C165.583 97.7185 165.541 97.8272 165.458 97.9164C165.377 98.0056 165.259 98.0502 165.102 98.0502C164.946 98.0502 164.826 98.0056 164.743 97.9164C164.662 97.8272 164.622 97.7185 164.622 97.5902ZM170.89 94.4711V95.3993C170.89 95.8983 170.846 96.3192 170.756 96.662C170.667 97.0049 170.539 97.2808 170.372 97.4899C170.205 97.699 170.002 97.8509 169.766 97.9456C169.531 98.0376 169.267 98.0836 168.971 98.0836C168.737 98.0836 168.521 98.0544 168.323 97.9958C168.125 97.9373 167.947 97.8439 167.788 97.7157C167.632 97.5847 167.498 97.4146 167.386 97.2056C167.275 96.9965 167.19 96.7429 167.131 96.4446C167.073 96.1464 167.044 95.7979 167.044 95.3993V94.4711C167.044 93.9721 167.088 93.554 167.177 93.2167C167.269 92.8795 167.399 92.6091 167.566 92.4056C167.733 92.1993 167.934 92.0516 168.168 91.9624C168.405 91.8732 168.67 91.8286 168.963 91.8286C169.2 91.8286 169.417 91.8579 169.615 91.9164C169.816 91.9722 169.994 92.0627 170.15 92.1882C170.306 92.3108 170.439 92.4753 170.547 92.6816C170.659 92.885 170.744 93.1345 170.802 93.43C170.861 93.7255 170.89 94.0725 170.89 94.4711ZM170.113 95.5248V94.3415C170.113 94.0683 170.096 93.8286 170.062 93.6223C170.032 93.4133 169.986 93.2349 169.924 93.0871C169.863 92.9394 169.785 92.8195 169.69 92.7276C169.598 92.6356 169.491 92.5687 169.368 92.5269C169.248 92.4823 169.113 92.46 168.963 92.46C168.779 92.46 168.616 92.4948 168.474 92.5645C168.331 92.6314 168.212 92.7387 168.114 92.8864C168.019 93.0342 167.947 93.2279 167.897 93.4676C167.846 93.7073 167.821 93.9986 167.821 94.3415V95.5248C167.821 95.7979 167.837 96.039 167.867 96.2481C167.901 96.4572 167.95 96.6383 168.014 96.7916C168.078 96.9422 168.156 97.0662 168.248 97.1638C168.34 97.2613 168.446 97.3338 168.566 97.3812C168.688 97.4258 168.823 97.4481 168.971 97.4481C169.161 97.4481 169.327 97.4118 169.469 97.3394C169.611 97.2669 169.729 97.154 169.824 97.0007C169.922 96.8446 169.994 96.6453 170.041 96.4028C170.089 96.1575 170.113 95.8648 170.113 95.5248ZM175.442 91.5777V98H174.664V91.5777H175.442ZM178.205 93.476L176.232 95.5875L175.128 96.7331L175.065 95.9094L175.856 94.9645L177.26 93.476H178.205ZM177.499 98L175.885 95.8425L176.286 95.1526L178.41 98H177.499ZM180.063 94.1868V98H179.289V93.476H180.042L180.063 94.1868ZM181.476 93.4509L181.472 94.1701C181.408 94.1561 181.347 94.1478 181.288 94.145C181.232 94.1394 181.168 94.1366 181.096 94.1366C180.917 94.1366 180.76 94.1645 180.623 94.2202C180.487 94.276 180.371 94.354 180.276 94.4544C180.181 94.5547 180.106 94.6746 180.05 94.814C179.997 94.9505 179.963 95.1011 179.946 95.2655L179.728 95.391C179.728 95.1178 179.755 94.8613 179.808 94.6216C179.864 94.3819 179.949 94.1701 180.063 93.9861C180.177 93.7993 180.322 93.6544 180.498 93.5512C180.676 93.4453 180.888 93.3924 181.133 93.3924C181.189 93.3924 181.253 93.3993 181.326 93.4133C181.398 93.4244 181.448 93.437 181.476 93.4509ZM184.27 98.0836C183.955 98.0836 183.67 98.0307 183.413 97.9247C183.159 97.816 182.941 97.6641 182.757 97.469C182.576 97.2739 182.436 97.0425 182.339 96.7749C182.241 96.5073 182.192 96.2146 182.192 95.8969V95.7213C182.192 95.3533 182.247 95.0258 182.355 94.7387C182.464 94.4488 182.612 94.2035 182.798 94.0028C182.985 93.8021 183.197 93.6502 183.434 93.5471C183.671 93.4439 183.916 93.3924 184.17 93.3924C184.493 93.3924 184.772 93.4481 185.006 93.5596C185.243 93.6711 185.437 93.8272 185.587 94.0279C185.738 94.2258 185.849 94.4599 185.922 94.7303C185.994 94.9979 186.031 95.2906 186.031 95.6084V95.9554H182.652V95.3241H185.257V95.2655C185.246 95.0648 185.204 94.8697 185.132 94.6802C185.062 94.4906 184.95 94.3345 184.797 94.2119C184.644 94.0892 184.435 94.0279 184.17 94.0279C183.994 94.0279 183.833 94.0655 183.685 94.1408C183.537 94.2133 183.41 94.322 183.304 94.4669C183.198 94.6119 183.116 94.7889 183.058 94.9979C182.999 95.207 182.97 95.4481 182.97 95.7213V95.8969C182.97 96.1115 182.999 96.3136 183.058 96.5031C183.119 96.6899 183.207 96.8544 183.321 96.9965C183.438 97.1387 183.579 97.2502 183.743 97.331C183.911 97.4118 184.1 97.4523 184.312 97.4523C184.585 97.4523 184.817 97.3965 185.006 97.285C185.196 97.1735 185.362 97.0244 185.504 96.8376L185.972 97.2098C185.874 97.3575 185.75 97.4983 185.6 97.6321C185.449 97.7659 185.264 97.8746 185.044 97.9582C184.826 98.0418 184.569 98.0836 184.27 98.0836ZM190.071 97.122V91.5777H190.848V98H190.138L190.071 97.122ZM187.027 95.7882V95.7004C187.027 95.3547 187.069 95.0411 187.152 94.7596C187.239 94.4753 187.36 94.2314 187.516 94.0279C187.675 93.8244 187.863 93.6683 188.08 93.5596C188.301 93.4481 188.546 93.3924 188.816 93.3924C189.101 93.3924 189.349 93.4425 189.561 93.5429C189.775 93.6404 189.956 93.784 190.104 93.9735C190.255 94.1603 190.373 94.3861 190.46 94.6509C190.546 94.9157 190.606 95.2153 190.639 95.5498V95.9345C190.609 96.2662 190.549 96.5645 190.46 96.8293C190.373 97.0941 190.255 97.3199 190.104 97.5066C189.956 97.6934 189.775 97.8369 189.561 97.9373C189.346 98.0348 189.095 98.0836 188.808 98.0836C188.543 98.0836 188.301 98.0265 188.08 97.9122C187.863 97.7979 187.675 97.6376 187.516 97.4314C187.36 97.2251 187.239 96.9826 187.152 96.7038C187.069 96.4223 187.027 96.1171 187.027 95.7882ZM187.804 95.7004V95.7882C187.804 96.0139 187.827 96.2258 187.871 96.4237C187.919 96.6216 187.991 96.7958 188.089 96.9463C188.186 97.0969 188.31 97.2153 188.461 97.3017C188.611 97.3854 188.791 97.4272 189 97.4272C189.257 97.4272 189.467 97.3728 189.632 97.2641C189.799 97.1554 189.933 97.0119 190.033 96.8335C190.133 96.6551 190.211 96.4613 190.267 96.2523V95.2446C190.234 95.0913 190.185 94.9436 190.121 94.8014C190.06 94.6565 189.979 94.5282 189.878 94.4167C189.781 94.3025 189.66 94.2119 189.515 94.145C189.372 94.0781 189.204 94.0446 189.009 94.0446C188.797 94.0446 188.614 94.0892 188.461 94.1784C188.31 94.2648 188.186 94.3847 188.089 94.538C187.991 94.6885 187.919 94.8641 187.871 95.0648C187.827 95.2627 187.804 95.4746 187.804 95.7004ZM193.178 93.476V98H192.401V93.476H193.178ZM192.342 92.276C192.342 92.1506 192.38 92.0446 192.455 91.9582C192.533 91.8718 192.647 91.8286 192.798 91.8286C192.946 91.8286 193.059 91.8718 193.137 91.9582C193.217 92.0446 193.258 92.1506 193.258 92.276C193.258 92.3958 193.217 92.499 193.137 92.5854C193.059 92.669 192.946 92.7108 192.798 92.7108C192.647 92.7108 192.533 92.669 192.455 92.5854C192.38 92.499 192.342 92.3958 192.342 92.276ZM196.6 93.476V94.0697H194.154V93.476H196.6ZM194.982 92.3763H195.755V96.8794C195.755 97.0328 195.779 97.1484 195.826 97.2265C195.874 97.3045 195.935 97.3561 196.01 97.3812C196.085 97.4063 196.166 97.4188 196.253 97.4188C196.317 97.4188 196.384 97.4132 196.453 97.4021C196.526 97.3882 196.58 97.377 196.616 97.3686L196.621 98C196.559 98.0195 196.478 98.0376 196.378 98.0544C196.281 98.0739 196.162 98.0836 196.023 98.0836C195.833 98.0836 195.659 98.046 195.5 97.9707C195.341 97.8955 195.214 97.77 195.12 97.5944C195.028 97.416 194.982 97.1763 194.982 96.8753V92.3763Z" fill="#49454F"/>
<path d="M67.8631 141.42V147H66.9087V141.42H67.8631ZM69.6146 141.42V142.186H65.1725V141.42H69.6146ZM69.5456 144.972V144.884C69.5456 144.585 69.5891 144.308 69.6759 144.053C69.7628 143.795 69.888 143.571 70.0515 143.382C70.2176 143.19 70.4195 143.042 70.6571 142.937C70.8973 142.83 71.1681 142.776 71.4697 142.776C71.7737 142.776 72.0446 142.83 72.2822 142.937C72.5224 143.042 72.7255 143.19 72.8916 143.382C73.0577 143.571 73.1842 143.795 73.271 144.053C73.3579 144.308 73.4014 144.585 73.4014 144.884V144.972C73.4014 145.271 73.3579 145.549 73.271 145.804C73.1842 146.06 73.0577 146.283 72.8916 146.475C72.7255 146.664 72.5237 146.812 72.286 146.92C72.0484 147.024 71.7788 147.077 71.4773 147.077C71.1733 147.077 70.9011 147.024 70.6609 146.92C70.4233 146.812 70.2215 146.664 70.0554 146.475C69.8893 146.283 69.7628 146.06 69.6759 145.804C69.5891 145.549 69.5456 145.271 69.5456 144.972ZM70.4693 144.884V144.972C70.4693 145.159 70.4885 145.335 70.5268 145.501C70.5651 145.667 70.6252 145.813 70.7069 145.938C70.7887 146.064 70.8935 146.162 71.0212 146.233C71.149 146.305 71.301 146.341 71.4773 146.341C71.6485 146.341 71.7967 146.305 71.9219 146.233C72.0497 146.162 72.1544 146.064 72.2362 145.938C72.318 145.813 72.378 145.667 72.4163 145.501C72.4572 145.335 72.4777 145.159 72.4777 144.972V144.884C72.4777 144.7 72.4572 144.527 72.4163 144.363C72.378 144.197 72.3167 144.05 72.2324 143.922C72.1506 143.795 72.0458 143.695 71.9181 143.623C71.7929 143.549 71.6434 143.512 71.4697 143.512C71.2959 143.512 71.1452 143.549 71.0174 143.623C70.8922 143.695 70.7887 143.795 70.7069 143.922C70.6252 144.05 70.5651 144.197 70.5268 144.363C70.4885 144.527 70.4693 144.7 70.4693 144.884ZM75.1031 143.65V148.594H74.1794V142.853H75.0303L75.1031 143.65ZM77.8052 144.888V144.969C77.8052 145.27 77.7694 145.55 77.6978 145.808C77.6289 146.064 77.5254 146.287 77.3874 146.479C77.252 146.668 77.0846 146.815 76.8853 146.92C76.686 147.024 76.456 147.077 76.1954 147.077C75.9373 147.077 75.7112 147.029 75.517 146.935C75.3254 146.838 75.1631 146.701 75.0303 146.525C74.8974 146.348 74.7901 146.141 74.7083 145.904C74.6291 145.664 74.5729 145.4 74.5397 145.114V144.804C74.5729 144.5 74.6291 144.224 74.7083 143.976C74.7901 143.728 74.8974 143.515 75.0303 143.336C75.1631 143.157 75.3254 143.019 75.517 142.922C75.7087 142.825 75.9322 142.776 76.1878 142.776C76.4484 142.776 76.6796 142.827 76.8815 142.93C77.0833 143.029 77.2533 143.172 77.3912 143.359C77.5292 143.543 77.6327 143.765 77.7017 144.026C77.7707 144.284 77.8052 144.571 77.8052 144.888ZM76.8815 144.969V144.888C76.8815 144.697 76.8636 144.519 76.8278 144.355C76.792 144.189 76.7358 144.044 76.6592 143.918C76.5825 143.793 76.4841 143.696 76.3641 143.627C76.2465 143.556 76.1047 143.52 75.9386 143.52C75.7751 143.52 75.6346 143.548 75.517 143.604C75.3995 143.658 75.3011 143.733 75.2219 143.83C75.1427 143.927 75.0814 144.041 75.0379 144.171C74.9945 144.299 74.9638 144.438 74.9459 144.589V145.333C74.9766 145.517 75.029 145.685 75.1031 145.839C75.1772 145.992 75.2819 146.115 75.4174 146.207C75.5553 146.296 75.7317 146.341 75.9463 146.341C76.1124 146.341 76.2542 146.305 76.3717 146.233C76.4893 146.162 76.5851 146.064 76.6592 145.938C76.7358 145.811 76.792 145.664 76.8278 145.498C76.8636 145.331 76.8815 145.155 76.8815 144.969ZM80.9173 145.877C80.9173 145.785 80.8943 145.702 80.8484 145.628C80.8024 145.551 80.7142 145.482 80.5839 145.421C80.4561 145.36 80.2671 145.303 80.0167 145.252C79.7969 145.204 79.5951 145.146 79.4111 145.08C79.2297 145.011 79.0738 144.928 78.9435 144.831C78.8132 144.734 78.7122 144.619 78.6407 144.486C78.5692 144.353 78.5334 144.2 78.5334 144.026C78.5334 143.857 78.5704 143.697 78.6445 143.547C78.7186 143.396 78.8247 143.263 78.9627 143.148C79.1006 143.033 79.268 142.942 79.4647 142.876C79.664 142.81 79.8863 142.776 80.1316 142.776C80.4791 142.776 80.7768 142.835 81.0247 142.953C81.2751 143.068 81.4667 143.225 81.5996 143.424C81.7324 143.621 81.7989 143.843 81.7989 144.091H80.8752C80.8752 143.981 80.8471 143.879 80.7909 143.784C80.7372 143.687 80.6554 143.609 80.5456 143.551C80.4357 143.489 80.2977 143.459 80.1316 143.459C79.9732 143.459 79.8416 143.484 79.7369 143.535C79.6347 143.584 79.558 143.648 79.5069 143.727C79.4584 143.806 79.4341 143.893 79.4341 143.987C79.4341 144.056 79.4469 144.119 79.4724 144.175C79.5005 144.229 79.5465 144.279 79.6104 144.325C79.6743 144.368 79.7611 144.409 79.871 144.447C79.9834 144.486 80.124 144.523 80.2926 144.559C80.6094 144.625 80.8816 144.711 81.109 144.815C81.3389 144.918 81.5153 145.05 81.6379 145.214C81.7605 145.375 81.8219 145.579 81.8219 145.827C81.8219 146.011 81.7823 146.18 81.7031 146.333C81.6264 146.484 81.514 146.615 81.3658 146.728C81.2176 146.838 81.04 146.923 80.833 146.985C80.6286 147.046 80.3986 147.077 80.1431 147.077C79.7675 147.077 79.4494 147.01 79.1888 146.877C78.9282 146.742 78.7301 146.569 78.5947 146.36C78.4618 146.148 78.3954 145.928 78.3954 145.701H79.2884C79.2987 145.872 79.3459 146.009 79.4302 146.111C79.5171 146.21 79.6244 146.283 79.7522 146.329C79.8825 146.373 80.0167 146.394 80.1546 146.394C80.3207 146.394 80.46 146.373 80.5724 146.329C80.6848 146.283 80.7704 146.222 80.8292 146.145C80.888 146.066 80.9173 145.977 80.9173 145.877ZM83.5428 141.113V147H82.6229V141.113H83.5428ZM83.3818 144.773L83.0828 144.769C83.0854 144.483 83.125 144.219 83.2017 143.976C83.2809 143.733 83.3907 143.522 83.5313 143.344C83.6744 143.162 83.8456 143.023 84.0449 142.926C84.2442 142.826 84.4652 142.776 84.7079 142.776C84.9123 142.776 85.0963 142.804 85.2598 142.861C85.4259 142.917 85.569 143.008 85.6891 143.133C85.8092 143.255 85.8999 143.416 85.9612 143.616C86.0251 143.812 86.057 144.053 86.057 144.336V147H85.1295V144.329C85.1295 144.129 85.1001 143.971 85.0414 143.853C84.9852 143.736 84.9021 143.651 84.7922 143.6C84.6824 143.547 84.5482 143.52 84.3898 143.52C84.2237 143.52 84.0768 143.553 83.949 143.62C83.8238 143.686 83.7191 143.777 83.6348 143.892C83.5504 144.007 83.4866 144.14 83.4431 144.29C83.4022 144.441 83.3818 144.602 83.3818 144.773ZM87.9811 142.853V147H87.0536V142.853H87.9811ZM86.9922 141.764C86.9922 141.624 87.0382 141.508 87.1302 141.416C87.2247 141.321 87.3551 141.274 87.5211 141.274C87.6847 141.274 87.8137 141.321 87.9083 141.416C88.0028 141.508 88.0501 141.624 88.0501 141.764C88.0501 141.902 88.0028 142.017 87.9083 142.109C87.8137 142.201 87.6847 142.247 87.5211 142.247C87.3551 142.247 87.2247 142.201 87.1302 142.109C87.0382 142.017 86.9922 141.902 86.9922 141.764ZM89.9204 143.643V147H88.9967V142.853H89.8783L89.9204 143.643ZM91.1891 142.826L91.1814 143.685C91.1252 143.674 91.0639 143.667 90.9974 143.662C90.9336 143.657 90.8697 143.654 90.8058 143.654C90.6474 143.654 90.5081 143.677 90.388 143.723C90.2679 143.766 90.167 143.83 90.0852 143.915C90.006 143.996 89.9447 144.096 89.9013 144.214C89.8578 144.331 89.8323 144.463 89.8246 144.608L89.6138 144.624C89.6138 144.363 89.6394 144.122 89.6905 143.899C89.7416 143.677 89.8182 143.482 89.9204 143.313C90.0252 143.144 90.1555 143.013 90.3114 142.918C90.4698 142.824 90.6525 142.776 90.8595 142.776C90.9157 142.776 90.9757 142.781 91.0396 142.792C91.106 142.802 91.1559 142.813 91.1891 142.826ZM92.7567 142.853V147H91.8291V142.853H92.7567ZM91.7678 141.764C91.7678 141.624 91.8138 141.508 91.9058 141.416C92.0003 141.321 92.1306 141.274 92.2967 141.274C92.4603 141.274 92.5893 141.321 92.6838 141.416C92.7784 141.508 92.8257 141.624 92.8257 141.764C92.8257 141.902 92.7784 142.017 92.6838 142.109C92.5893 142.201 92.4603 142.247 92.2967 142.247C92.1306 142.247 92.0003 142.201 91.9058 142.109C91.8138 142.017 91.7678 141.902 91.7678 141.764ZM96.2943 148.594V143.677L96.4016 142.853H97.2256V148.594H96.2943ZM93.5999 144.969V144.888C93.5999 144.574 93.6356 144.288 93.7072 144.03C93.7787 143.769 93.8848 143.545 94.0253 143.359C94.1658 143.172 94.337 143.029 94.5389 142.93C94.7407 142.827 94.9733 142.776 95.2364 142.776C95.492 142.776 95.7143 142.825 95.9033 142.922C96.095 143.019 96.2559 143.158 96.3863 143.34C96.5191 143.519 96.6252 143.732 96.7044 143.98C96.7836 144.228 96.8411 144.504 96.8768 144.808V145.064C96.8436 145.361 96.7874 145.632 96.7082 145.877C96.629 146.122 96.523 146.334 96.3901 146.513C96.2572 146.692 96.095 146.831 95.9033 146.931C95.7117 147.028 95.4868 147.077 95.2288 147.077C94.9707 147.077 94.7407 147.024 94.5389 146.92C94.337 146.815 94.1658 146.668 94.0253 146.479C93.8873 146.287 93.7813 146.064 93.7072 145.808C93.6356 145.55 93.5999 145.27 93.5999 144.969ZM94.5236 144.888V144.969C94.5236 145.158 94.5402 145.335 94.5734 145.501C94.6091 145.665 94.6654 145.811 94.742 145.938C94.8187 146.064 94.9158 146.162 95.0333 146.233C95.1508 146.305 95.2927 146.341 95.4587 146.341C95.6759 146.341 95.8535 146.293 95.9915 146.199C96.132 146.104 96.2393 145.978 96.3134 145.82C96.3901 145.659 96.4438 145.481 96.4744 145.287V144.593C96.4565 144.442 96.4246 144.302 96.3786 144.171C96.3326 144.039 96.2687 143.924 96.187 143.826C96.1077 143.727 96.0081 143.65 95.888 143.597C95.7705 143.54 95.6299 143.512 95.4664 143.512C95.3003 143.512 95.1572 143.548 95.0371 143.62C94.917 143.691 94.8187 143.791 94.742 143.918C94.6679 144.044 94.613 144.189 94.5772 144.355C94.5414 144.521 94.5236 144.699 94.5236 144.888ZM99.2033 141.113V147H98.2758V141.113H99.2033ZM102.553 146.168V144.191C102.553 144.042 102.526 143.915 102.473 143.807C102.419 143.7 102.337 143.617 102.227 143.558C102.12 143.499 101.985 143.47 101.821 143.47C101.67 143.47 101.54 143.496 101.43 143.547C101.32 143.598 101.235 143.667 101.173 143.754C101.112 143.841 101.081 143.939 101.081 144.049H100.162C100.162 143.885 100.201 143.727 100.28 143.574C100.36 143.42 100.475 143.284 100.625 143.163C100.776 143.043 100.956 142.949 101.166 142.88C101.375 142.811 101.61 142.776 101.871 142.776C102.183 142.776 102.459 142.829 102.699 142.933C102.942 143.038 103.132 143.197 103.27 143.409C103.41 143.618 103.481 143.881 103.481 144.198V146.042C103.481 146.231 103.493 146.401 103.519 146.552C103.547 146.7 103.587 146.829 103.638 146.939V147H102.691C102.648 146.9 102.613 146.774 102.588 146.621C102.565 146.465 102.553 146.314 102.553 146.168ZM102.687 144.478L102.695 145.049H102.032C101.861 145.049 101.71 145.066 101.58 145.099C101.449 145.13 101.341 145.176 101.254 145.237C101.167 145.298 101.102 145.372 101.058 145.459C101.015 145.546 100.993 145.644 100.993 145.754C100.993 145.864 101.019 145.965 101.07 146.057C101.121 146.147 101.195 146.217 101.292 146.268C101.392 146.319 101.512 146.345 101.652 146.345C101.842 146.345 102.006 146.306 102.147 146.23C102.29 146.15 102.402 146.055 102.484 145.942C102.566 145.827 102.609 145.719 102.614 145.616L102.913 146.026C102.883 146.131 102.83 146.244 102.756 146.364C102.682 146.484 102.585 146.599 102.465 146.709C102.347 146.816 102.206 146.904 102.04 146.973C101.876 147.042 101.687 147.077 101.472 147.077C101.201 147.077 100.96 147.023 100.748 146.916C100.536 146.806 100.37 146.659 100.25 146.475C100.13 146.288 100.07 146.078 100.07 145.843C100.07 145.623 100.11 145.429 100.192 145.26C100.276 145.089 100.399 144.946 100.56 144.831C100.724 144.716 100.923 144.629 101.158 144.57C101.393 144.509 101.661 144.478 101.963 144.478H102.687ZM105.374 143.643V147H104.45V142.853H105.332L105.374 143.643ZM106.643 142.826L106.635 143.685C106.579 143.674 106.517 143.667 106.451 143.662C106.387 143.657 106.323 143.654 106.259 143.654C106.101 143.654 105.962 143.677 105.842 143.723C105.722 143.766 105.621 143.83 105.539 143.915C105.46 143.996 105.398 144.096 105.355 144.214C105.311 144.331 105.286 144.463 105.278 144.608L105.067 144.624C105.067 144.363 105.093 144.122 105.144 143.899C105.195 143.677 105.272 143.482 105.374 143.313C105.479 143.144 105.609 143.013 105.765 142.918C105.923 142.824 106.106 142.776 106.313 142.776C106.369 142.776 106.429 142.781 106.493 142.792C106.56 142.802 106.609 142.813 106.643 142.826Z" fill="#027F6D"/>
<path d="M68.7826 126.81L67.3108 126.45L67.9164 120.839H73.9338V122.403H69.4495L69.1428 125.139C69.3166 125.037 69.5568 124.938 69.8634 124.84C70.17 124.738 70.5201 124.687 70.9136 124.687C71.4399 124.687 71.9101 124.774 72.324 124.948C72.7431 125.116 73.0982 125.364 73.3895 125.691C73.6808 126.013 73.9031 126.407 74.0564 126.872C74.2097 127.332 74.2864 127.85 74.2864 128.428C74.2864 128.944 74.2097 129.427 74.0564 129.877C73.9082 130.326 73.6834 130.722 73.3818 131.065C73.0803 131.407 72.6996 131.675 72.2397 131.87C71.7849 132.059 71.2457 132.153 70.6223 132.153C70.1572 132.153 69.7101 132.087 69.2808 131.954C68.8567 131.816 68.4759 131.614 68.1387 131.348C67.8014 131.078 67.5305 130.745 67.3261 130.352C67.1217 129.953 67.0042 129.496 66.9735 128.98H68.7826C68.8286 129.343 68.9282 129.652 69.0815 129.907C69.2399 130.158 69.4495 130.349 69.7101 130.482C69.9707 130.615 70.2722 130.682 70.6146 130.682C70.9263 130.682 71.1946 130.628 71.4195 130.521C71.6443 130.408 71.8309 130.25 71.9791 130.045C72.1324 129.836 72.2448 129.59 72.3163 129.309C72.393 129.028 72.4313 128.717 72.4313 128.374C72.4313 128.047 72.3879 127.748 72.301 127.477C72.2193 127.207 72.094 126.971 71.9254 126.772C71.7619 126.573 71.5549 126.42 71.3045 126.312C71.0541 126.2 70.7654 126.144 70.4383 126.144C69.9988 126.144 69.6615 126.207 69.4265 126.335C69.1965 126.463 68.9819 126.621 68.7826 126.81ZM80.7254 120.839L76.379 132.958H74.9303L79.2843 120.839H80.7254ZM86.9421 120.801V132H85.0947V122.993L82.3581 123.921V122.395L86.7198 120.801H86.9421ZM98.0953 125.484V127.309C98.0953 128.183 98.0084 128.929 97.8347 129.547C97.666 130.16 97.4208 130.659 97.0988 131.042C96.7769 131.425 96.391 131.706 95.9413 131.885C95.4967 132.064 94.9985 132.153 94.4466 132.153C94.0071 132.153 93.5982 132.097 93.2201 131.985C92.847 131.872 92.5097 131.696 92.2082 131.456C91.9067 131.216 91.6487 130.906 91.434 130.528C91.2245 130.145 91.061 129.688 90.9434 129.156C90.831 128.625 90.7748 128.009 90.7748 127.309V125.484C90.7748 124.605 90.8617 123.864 91.0354 123.261C91.2092 122.653 91.457 122.16 91.779 121.782C92.1009 121.399 92.4842 121.12 92.9288 120.946C93.3785 120.773 93.8793 120.686 94.4312 120.686C94.8758 120.686 95.2846 120.742 95.6577 120.854C96.0359 120.962 96.3731 121.133 96.6695 121.368C96.971 121.603 97.2266 121.91 97.4361 122.288C97.6507 122.661 97.8142 123.113 97.9267 123.645C98.0391 124.171 98.0953 124.784 98.0953 125.484ZM96.2479 127.569V125.208C96.2479 124.764 96.2224 124.373 96.1713 124.036C96.1202 123.693 96.0435 123.404 95.9413 123.169C95.8442 122.929 95.7216 122.735 95.5734 122.587C95.4252 122.433 95.2565 122.324 95.0675 122.257C94.8784 122.186 94.6663 122.15 94.4312 122.15C94.145 122.15 93.8895 122.206 93.6647 122.319C93.4398 122.426 93.2507 122.6 93.0974 122.84C92.9441 123.08 92.8266 123.397 92.7448 123.79C92.6682 124.179 92.6298 124.651 92.6298 125.208V127.569C92.6298 128.019 92.6554 128.415 92.7065 128.758C92.7576 129.1 92.8342 129.394 92.9365 129.639C93.0387 129.879 93.1613 130.079 93.3044 130.237C93.4526 130.39 93.6212 130.503 93.8103 130.574C94.0045 130.646 94.2166 130.682 94.4466 130.682C94.7378 130.682 94.9959 130.625 95.2208 130.513C95.4456 130.4 95.6347 130.222 95.788 129.976C95.9413 129.726 96.0563 129.401 96.133 129.003C96.2096 128.604 96.2479 128.126 96.2479 127.569Z" fill="#027F6D"/>
<path d="M128 126.854C128 125.278 129.278 124 130.854 124H317.146C318.722 124 320 125.278 320 126.854V127.146C320 128.722 318.722 130 317.146 130H130.854C129.278 130 128 128.722 128 127.146V126.854Z" fill="#EAFAF7"/>
<path d="M128 126.854C128 125.278 129.278 124 130.854 124H197.146C198.722 124 200 125.278 200 126.854V127.146C200 128.722 198.722 130 197.146 130H130.854C129.278 130 128 128.722 128 127.146V126.854Z" fill="#00C3A5"/>
<rect x="57.3568" y="57.3568" width="270.286" height="101.286" rx="8.20623" stroke="#EEEFF1" stroke-width="0.713585"/>
<rect x="90" y="25" width="1" height="36" fill="#E959D9"/>
<circle cx="91" cy="9" r="9" fill="#F8D22A"/>
<path d="M91.7917 4.42492V12H90.8344V5.62017L88.9044 6.32387V5.45977L91.6416 4.42492H91.7917Z" fill="#1C2023"/>
<rect x="309" y="25" width="1" height="36" fill="#E959D9"/>
<circle cx="310" cy="9" r="9" fill="#F8D22A"/>
<path d="M308.856 8.41426L308.091 8.21764L308.468 4.46632H312.334V5.35111H309.281L309.053 7.40011C309.191 7.32077 309.365 7.2466 309.576 7.17761C309.79 7.10862 310.034 7.07413 310.31 7.07413C310.659 7.07413 310.971 7.1345 311.247 7.25523C311.523 7.37251 311.758 7.54154 311.951 7.7623C312.147 7.98307 312.297 8.24868 312.401 8.55913C312.504 8.86959 312.556 9.21626 312.556 9.59916C312.556 9.96135 312.506 10.2942 312.406 10.5978C312.309 10.9013 312.163 11.1669 311.966 11.3946C311.77 11.6188 311.521 11.793 311.221 11.9172C310.924 12.0414 310.574 12.1035 310.171 12.1035C309.867 12.1035 309.579 12.0621 309.307 11.9793C309.038 11.8931 308.796 11.7637 308.582 11.5912C308.372 11.4153 308.199 11.198 308.065 10.9393C307.934 10.6771 307.851 10.3701 307.816 10.0183H308.727C308.769 10.3011 308.851 10.5391 308.976 10.7323C309.1 10.9255 309.262 11.0721 309.462 11.1721C309.665 11.2687 309.902 11.317 310.171 11.317C310.398 11.317 310.6 11.2773 310.776 11.198C310.952 11.1187 311.1 11.0048 311.221 10.8565C311.342 10.7082 311.433 10.5288 311.495 10.3184C311.561 10.108 311.594 9.87167 311.594 9.6095C311.594 9.37149 311.561 9.15072 311.495 8.9472C311.43 8.74368 311.332 8.56603 311.2 8.41426C311.073 8.26248 310.916 8.1452 310.73 8.06241C310.543 7.97617 310.329 7.93305 310.088 7.93305C309.767 7.93305 309.524 7.97617 309.358 8.06241C309.196 8.14865 309.029 8.26593 308.856 8.41426Z" fill="#1C2023"/>
<circle cx="9" cy="94" r="9" fill="#F8D22A"/>
<path d="M11.5623 96.2135V97H6.63126V96.3118L9.09937 93.5643C9.40292 93.2263 9.63749 92.94 9.80306 92.7054C9.97209 92.4674 10.0894 92.2552 10.1549 92.069C10.2239 91.8792 10.2584 91.6861 10.2584 91.4894C10.2584 91.2411 10.2067 91.0169 10.1032 90.8168C10.0031 90.6133 9.8548 90.4511 9.65818 90.3304C9.46156 90.2097 9.22355 90.1493 8.94414 90.1493C8.60954 90.1493 8.33013 90.2149 8.10591 90.3459C7.88515 90.4736 7.71957 90.6529 7.60919 90.8841C7.4988 91.1152 7.44361 91.3808 7.44361 91.6809H6.48638C6.48638 91.2566 6.57951 90.8685 6.76579 90.5167C6.95206 90.1648 7.22802 89.8854 7.59366 89.6785C7.95931 89.468 8.40947 89.3628 8.94414 89.3628C9.42017 89.3628 9.82721 89.4473 10.1653 89.6164C10.5033 89.7819 10.762 90.0165 10.9414 90.3201C11.1242 90.6202 11.2156 90.972 11.2156 91.3756C11.2156 91.5964 11.1777 91.8206 11.1018 92.0483C11.0294 92.2725 10.9276 92.4967 10.7965 92.7209C10.6689 92.9451 10.5188 93.1659 10.3464 93.3832C10.1773 93.6005 9.99623 93.8144 9.80306 94.0248L7.78511 96.2135H11.5623Z" fill="#1C2023"/>
<rect x="25" y="93" width="36" height="1" fill="#E959D9"/>
<circle cx="10" cy="127" r="9" fill="#F8D22A"/>
<path d="M9.04277 125.762H9.72577C10.0604 125.762 10.3363 125.707 10.5536 125.597C10.7744 125.483 10.9383 125.329 11.0452 125.136C11.1556 124.94 11.2108 124.719 11.2108 124.474C11.2108 124.184 11.1625 123.941 11.0659 123.744C10.9693 123.548 10.8244 123.399 10.6313 123.299C10.4381 123.199 10.1932 123.149 9.89652 123.149C9.62746 123.149 9.38944 123.203 9.18247 123.31C8.97895 123.413 8.81855 123.562 8.70127 123.755C8.58743 123.948 8.53052 124.176 8.53052 124.438H7.57328C7.57328 124.055 7.66987 123.706 7.86304 123.393C8.05621 123.079 8.327 122.829 8.6754 122.642C9.02724 122.456 9.43428 122.363 9.89652 122.363C10.3518 122.363 10.7503 122.444 11.0918 122.606C11.4333 122.765 11.6989 123.003 11.8886 123.32C12.0783 123.634 12.1732 124.025 12.1732 124.495C12.1732 124.684 12.1283 124.888 12.0386 125.105C11.9524 125.319 11.8162 125.519 11.6299 125.705C11.4471 125.892 11.209 126.045 10.9158 126.166C10.6226 126.283 10.2708 126.342 9.8603 126.342H9.04277V125.762ZM9.04277 126.549V125.974H9.8603C10.3398 125.974 10.7365 126.031 11.0504 126.145C11.3643 126.259 11.6109 126.411 11.7903 126.601C11.9731 126.79 12.1007 126.999 12.1732 127.227C12.2491 127.451 12.287 127.675 12.287 127.899C12.287 128.251 12.2266 128.563 12.1059 128.836C11.9886 129.108 11.8213 129.339 11.604 129.529C11.3901 129.719 11.1383 129.862 10.8486 129.959C10.5588 130.055 10.2432 130.103 9.90169 130.103C9.57399 130.103 9.26526 130.057 8.9755 129.964C8.68919 129.871 8.43566 129.736 8.21489 129.56C7.99412 129.381 7.82165 129.162 7.69747 128.903C7.57328 128.641 7.51119 128.343 7.51119 128.008H8.46843C8.46843 128.27 8.52534 128.499 8.63918 128.696C8.75646 128.893 8.92203 129.046 9.1359 129.157C9.35322 129.264 9.60848 129.317 9.90169 129.317C10.1949 129.317 10.4467 129.267 10.6571 129.167C10.871 129.063 11.0348 128.908 11.1487 128.701C11.266 128.494 11.3246 128.234 11.3246 127.92C11.3246 127.606 11.2591 127.349 11.128 127.149C10.9969 126.945 10.8106 126.795 10.5692 126.699C10.3312 126.599 10.05 126.549 9.72577 126.549H9.04277Z" fill="#1C2023"/>
<rect x="26" y="126" width="36" height="1" fill="#E959D9"/>
<rect x="168" y="135" width="1" height="36" fill="#E959D9"/>
<circle cx="169" cy="187" r="9" fill="#F8D22A"/>
<path d="M171.737 187.465V188.251H166.294V187.687L169.667 182.466H170.449L169.611 183.977L167.38 187.465H171.737ZM170.687 182.466V190H169.73V182.466H170.687Z" fill="#1C2023"/>
</svg>
