<svg width="328" height="176" viewBox="0 0 328 176" fill="none" xmlns="http://www.w3.org/2000/svg">
<rect x="45.3729" y="45.3729" width="282.254" height="86.2542" rx="8.57627" fill="white"/>
<path d="M103.274 57.5773H104.416L106.563 63.3024L108.704 57.5773H109.846L107.011 65H106.104L103.274 57.5773ZM102.755 57.5773H103.84L104.029 62.5326V65H102.755V57.5773ZM109.28 57.5773H110.371V65H109.091V62.5326L109.28 57.5773ZM114.952 63.8937V61.2632C114.952 61.0661 114.916 60.8961 114.845 60.7534C114.774 60.6106 114.665 60.5002 114.519 60.422C114.376 60.3438 114.196 60.3048 113.978 60.3048C113.778 60.3048 113.605 60.3387 113.458 60.4067C113.312 60.4747 113.198 60.5665 113.117 60.682C113.035 60.7976 112.994 60.9284 112.994 61.0745H111.771C111.771 60.857 111.824 60.6463 111.929 60.4424C112.034 60.2385 112.187 60.0567 112.388 59.8969C112.588 59.7372 112.828 59.6114 113.107 59.5197C113.385 59.4279 113.698 59.382 114.045 59.382C114.459 59.382 114.826 59.4517 115.146 59.591C115.469 59.7304 115.722 59.9411 115.905 60.2232C116.092 60.5019 116.186 60.8519 116.186 61.2734V63.7255C116.186 63.977 116.203 64.203 116.237 64.4035C116.274 64.6007 116.327 64.7723 116.395 64.9184V65H115.136C115.078 64.8675 115.032 64.6992 114.998 64.4953C114.967 64.288 114.952 64.0875 114.952 63.8937ZM115.131 61.6455L115.141 62.4051H114.259C114.031 62.4051 113.831 62.4272 113.657 62.4714C113.484 62.5122 113.339 62.5734 113.224 62.6549C113.108 62.7365 113.022 62.8351 112.964 62.9506C112.906 63.0662 112.877 63.197 112.877 63.3432C112.877 63.4893 112.911 63.6235 112.979 63.7459C113.047 63.8648 113.146 63.9583 113.275 64.0263C113.407 64.0943 113.567 64.1282 113.754 64.1282C114.006 64.1282 114.225 64.0773 114.412 63.9753C114.602 63.8699 114.752 63.7425 114.86 63.593C114.969 63.44 115.027 63.2956 115.034 63.1596L115.431 63.7051C115.391 63.8445 115.321 63.994 115.222 64.1537C115.124 64.3135 114.995 64.4664 114.835 64.6126C114.679 64.7553 114.49 64.8726 114.269 64.9643C114.051 65.0561 113.8 65.102 113.514 65.102C113.154 65.102 112.833 65.0306 112.551 64.8878C112.269 64.7417 112.048 64.5463 111.888 64.3016C111.728 64.0535 111.649 63.7731 111.649 63.4604C111.649 63.1681 111.703 62.9098 111.812 62.6855C111.924 62.4578 112.087 62.2675 112.301 62.1145C112.519 61.9616 112.784 61.846 113.096 61.7679C113.409 61.6863 113.766 61.6455 114.167 61.6455H115.131ZM117.173 59.5859V58.8926C117.173 58.6785 117.21 58.4576 117.285 58.2299C117.363 57.9988 117.47 57.7796 117.606 57.5722C117.746 57.3615 117.904 57.1814 118.08 57.0318L118.692 57.4142C118.556 57.6283 118.444 57.8543 118.356 58.0922C118.271 58.3267 118.228 58.5918 118.228 58.8875V59.5859H117.173ZM120.964 57.1695V65H119.73V57.1695H120.964ZM125.703 63.7V59.484H126.937V65H125.775L125.703 63.7ZM125.876 62.553L126.289 62.5428C126.289 62.9132 126.249 63.2548 126.167 63.5675C126.086 63.8767 125.96 64.1469 125.79 64.378C125.62 64.6058 125.402 64.7842 125.137 64.9133C124.872 65.0391 124.554 65.102 124.184 65.102C123.915 65.102 123.669 65.0629 123.445 64.9847C123.22 64.9065 123.027 64.7859 122.864 64.6227C122.704 64.4596 122.58 64.2472 122.491 63.9855C122.403 63.7238 122.359 63.4111 122.359 63.0475V59.484H123.587V63.0577C123.587 63.2582 123.611 63.4264 123.659 63.5624C123.706 63.6949 123.771 63.802 123.853 63.8835C123.934 63.9651 124.029 64.0229 124.138 64.0569C124.247 64.0909 124.362 64.1079 124.485 64.1079C124.835 64.1079 125.11 64.0399 125.311 63.9039C125.515 63.7646 125.659 63.5777 125.744 63.3432C125.832 63.1086 125.876 62.8453 125.876 62.553ZM129.499 60.6055V65H128.271V59.484H129.428L129.499 60.6055ZM129.3 62.0381L128.882 62.033C128.882 61.6523 128.93 61.3006 129.025 60.9777C129.12 60.6548 129.26 60.3744 129.443 60.1365C129.627 59.8952 129.854 59.71 130.126 59.5808C130.402 59.4483 130.719 59.382 131.08 59.382C131.331 59.382 131.561 59.4194 131.768 59.4942C131.979 59.5655 132.16 59.6794 132.313 59.8357C132.47 59.9921 132.589 60.1926 132.67 60.4373C132.755 60.682 132.798 60.9777 132.798 61.3244V65H131.569V61.4314C131.569 61.1629 131.528 60.9522 131.447 60.7993C131.369 60.6463 131.255 60.5376 131.105 60.473C130.959 60.405 130.784 60.371 130.58 60.371C130.349 60.371 130.152 60.4152 129.989 60.5036C129.829 60.5919 129.698 60.7126 129.596 60.8655C129.494 61.0185 129.419 61.1952 129.372 61.3957C129.324 61.5962 129.3 61.8104 129.3 62.0381ZM132.721 61.7118L132.145 61.8392C132.145 61.5062 132.191 61.1918 132.283 60.8961C132.378 60.597 132.516 60.3353 132.696 60.111C132.879 59.8833 133.105 59.7049 133.374 59.5757C133.642 59.4466 133.95 59.382 134.296 59.382C134.579 59.382 134.83 59.4211 135.051 59.4993C135.275 59.574 135.466 59.693 135.622 59.8561C135.778 60.0193 135.897 60.2317 135.979 60.4934C136.06 60.7517 136.101 61.0644 136.101 61.4314V65H134.867V61.4263C134.867 61.1476 134.827 60.9318 134.745 60.7789C134.667 60.6259 134.555 60.5206 134.409 60.4628C134.262 60.4016 134.087 60.371 133.884 60.371C133.693 60.371 133.525 60.4067 133.379 60.4781C133.236 60.5461 133.115 60.6429 133.017 60.7687C132.918 60.891 132.844 61.0321 132.793 61.1918C132.745 61.3515 132.721 61.5249 132.721 61.7118ZM137.206 62.3032V62.1859C137.206 61.7883 137.263 61.4195 137.379 61.0796C137.494 60.7364 137.661 60.439 137.878 60.1875C138.099 59.9326 138.368 59.7355 138.684 59.5961C139.003 59.4534 139.364 59.382 139.765 59.382C140.169 59.382 140.529 59.4534 140.845 59.5961C141.165 59.7355 141.435 59.9326 141.656 60.1875C141.877 60.439 142.045 60.7364 142.161 61.0796C142.276 61.4195 142.334 61.7883 142.334 62.1859V62.3032C142.334 62.7008 142.276 63.0696 142.161 63.4094C142.045 63.7493 141.877 64.0467 141.656 64.3016C141.435 64.5531 141.167 64.7502 140.851 64.8929C140.535 65.0323 140.176 65.102 139.775 65.102C139.37 65.102 139.009 65.0323 138.689 64.8929C138.373 64.7502 138.104 64.5531 137.884 64.3016C137.663 64.0467 137.494 63.7493 137.379 63.4094C137.263 63.0696 137.206 62.7008 137.206 62.3032ZM138.434 62.1859V62.3032C138.434 62.5513 138.46 62.7858 138.511 63.0067C138.562 63.2276 138.641 63.4213 138.75 63.5879C138.859 63.7544 138.998 63.8852 139.168 63.9804C139.338 64.0756 139.54 64.1231 139.775 64.1231C140.003 64.1231 140.2 64.0756 140.366 63.9804C140.536 63.8852 140.676 63.7544 140.784 63.5879C140.893 63.4213 140.973 63.2276 141.024 63.0067C141.078 62.7858 141.105 62.5513 141.105 62.3032V62.1859C141.105 61.9412 141.078 61.7101 141.024 61.4926C140.973 61.2717 140.891 61.0762 140.779 60.9063C140.67 60.7364 140.531 60.6038 140.361 60.5087C140.195 60.4101 139.996 60.3608 139.765 60.3608C139.534 60.3608 139.333 60.4101 139.163 60.5087C138.997 60.6038 138.859 60.7364 138.75 60.9063C138.641 61.0762 138.562 61.2717 138.511 61.4926C138.46 61.7101 138.434 61.9412 138.434 62.1859ZM145.967 59.484V60.3812H142.857V59.484H145.967ZM143.755 58.133H144.983V63.4757C144.983 63.6456 145.007 63.7765 145.055 63.8682C145.106 63.9566 145.175 64.0161 145.264 64.0467C145.352 64.0773 145.456 64.0926 145.575 64.0926C145.66 64.0926 145.741 64.0875 145.819 64.0773C145.897 64.0671 145.96 64.0569 146.008 64.0467L146.013 64.9847C145.911 65.0153 145.792 65.0425 145.656 65.0663C145.524 65.0901 145.371 65.102 145.197 65.102C144.915 65.102 144.665 65.0527 144.448 64.9541C144.23 64.8522 144.06 64.6873 143.938 64.4596C143.816 64.2319 143.755 63.9294 143.755 63.5522V58.133ZM148.305 57.1695V65H147.071V57.1695H148.305ZM152.835 63.8937V61.2632C152.835 61.0661 152.8 60.8961 152.728 60.7534C152.657 60.6106 152.548 60.5002 152.402 60.422C152.259 60.3438 152.079 60.3048 151.862 60.3048C151.661 60.3048 151.488 60.3387 151.342 60.4067C151.196 60.4747 151.082 60.5665 151 60.682C150.919 60.7976 150.878 60.9284 150.878 61.0745H149.654C149.654 60.857 149.707 60.6463 149.812 60.4424C149.918 60.2385 150.071 60.0567 150.271 59.8969C150.472 59.7372 150.711 59.6114 150.99 59.5197C151.269 59.4279 151.581 59.382 151.928 59.382C152.343 59.382 152.71 59.4517 153.029 59.591C153.352 59.7304 153.605 59.9411 153.789 60.2232C153.976 60.5019 154.069 60.8519 154.069 61.2734V63.7255C154.069 63.977 154.086 64.203 154.12 64.4035C154.157 64.6007 154.21 64.7723 154.278 64.9184V65H153.019C152.961 64.8675 152.915 64.6992 152.881 64.4953C152.851 64.288 152.835 64.0875 152.835 63.8937ZM153.014 61.6455L153.024 62.4051H152.142C151.914 62.4051 151.714 62.4272 151.54 62.4714C151.367 62.5122 151.223 62.5734 151.107 62.6549C150.992 62.7365 150.905 62.8351 150.847 62.9506C150.789 63.0662 150.76 63.197 150.76 63.3432C150.76 63.4893 150.794 63.6235 150.862 63.7459C150.93 63.8648 151.029 63.9583 151.158 64.0263C151.291 64.0943 151.45 64.1282 151.637 64.1282C151.889 64.1282 152.108 64.0773 152.295 63.9753C152.485 63.8699 152.635 63.7425 152.744 63.593C152.852 63.44 152.91 63.2956 152.917 63.1596L153.315 63.7051C153.274 63.8445 153.204 63.994 153.106 64.1537C153.007 64.3135 152.878 64.4664 152.718 64.6126C152.562 64.7553 152.373 64.8726 152.152 64.9643C151.935 65.0561 151.683 65.102 151.398 65.102C151.037 65.102 150.716 65.0306 150.434 64.8878C150.152 64.7417 149.931 64.5463 149.771 64.3016C149.612 64.0535 149.532 63.7731 149.532 63.4604C149.532 63.1681 149.586 62.9098 149.695 62.6855C149.807 62.4578 149.97 62.2675 150.184 62.1145C150.402 61.9616 150.667 61.846 150.98 61.7679C151.292 61.6863 151.649 61.6455 152.05 61.6455H153.014ZM156.662 60.5342V65H155.433V59.484H156.606L156.662 60.5342ZM158.35 59.4483L158.339 60.5902C158.265 60.5766 158.183 60.5665 158.095 60.5597C158.01 60.5529 157.925 60.5495 157.84 60.5495C157.629 60.5495 157.444 60.58 157.284 60.6412C157.124 60.699 156.99 60.784 156.881 60.8961C156.776 61.0049 156.694 61.1374 156.637 61.2938C156.579 61.4501 156.545 61.6251 156.535 61.8189L156.254 61.8392C156.254 61.4926 156.288 61.1714 156.356 60.8757C156.424 60.58 156.526 60.32 156.662 60.0957C156.801 59.8714 156.975 59.6964 157.182 59.5706C157.393 59.4449 157.636 59.382 157.911 59.382C157.986 59.382 158.066 59.3888 158.151 59.4024C158.239 59.416 158.305 59.4313 158.35 59.4483ZM164.397 59.484V60.3812H161.287V59.484H164.397ZM162.185 58.133H163.413V63.4757C163.413 63.6456 163.437 63.7765 163.484 63.8682C163.535 63.9566 163.605 64.0161 163.694 64.0467C163.782 64.0773 163.886 64.0926 164.004 64.0926C164.089 64.0926 164.171 64.0875 164.249 64.0773C164.327 64.0671 164.39 64.0569 164.438 64.0467L164.443 64.9847C164.341 65.0153 164.222 65.0425 164.086 65.0663C163.954 65.0901 163.801 65.102 163.627 65.102C163.345 65.102 163.095 65.0527 162.878 64.9541C162.66 64.8522 162.49 64.6873 162.368 64.4596C162.246 64.2319 162.185 63.9294 162.185 63.5522V58.133ZM168.739 63.7V59.484H169.972V65H168.81L168.739 63.7ZM168.912 62.553L169.325 62.5428C169.325 62.9132 169.284 63.2548 169.203 63.5675C169.121 63.8767 168.995 64.1469 168.825 64.378C168.655 64.6058 168.438 64.7842 168.173 64.9133C167.908 65.0391 167.59 65.102 167.219 65.102C166.951 65.102 166.705 65.0629 166.48 64.9847C166.256 64.9065 166.062 64.7859 165.899 64.6227C165.739 64.4596 165.615 64.2472 165.527 63.9855C165.439 63.7238 165.394 63.4111 165.394 63.0475V59.484H166.623V63.0577C166.623 63.2582 166.647 63.4264 166.694 63.5624C166.742 63.6949 166.806 63.802 166.888 63.8835C166.97 63.9651 167.065 64.0229 167.174 64.0569C167.282 64.0909 167.398 64.1079 167.52 64.1079C167.87 64.1079 168.146 64.0399 168.346 63.9039C168.55 63.7646 168.694 63.5777 168.779 63.3432C168.868 63.1086 168.912 62.8453 168.912 62.553ZM175.573 64.0212V65H171.464V64.0212H175.573ZM175.461 60.2487L171.882 65H171.087V64.2098L174.645 59.484H175.461V60.2487ZM174.987 59.484V60.4628H171.148V59.484H174.987ZM179.95 63.7V59.484H181.184V65H180.022L179.95 63.7ZM180.124 62.553L180.537 62.5428C180.537 62.9132 180.496 63.2548 180.414 63.5675C180.333 63.8767 180.207 64.1469 180.037 64.378C179.867 64.6058 179.65 64.7842 179.385 64.9133C179.119 65.0391 178.802 65.102 178.431 65.102C178.163 65.102 177.916 65.0629 177.692 64.9847C177.468 64.9065 177.274 64.7859 177.111 64.6227C176.951 64.4596 176.827 64.2472 176.739 63.9855C176.65 63.7238 176.606 63.4111 176.606 63.0475V59.484H177.835V63.0577C177.835 63.2582 177.859 63.4264 177.906 63.5624C177.954 63.6949 178.018 63.802 178.1 63.8835C178.181 63.9651 178.277 64.0229 178.385 64.0569C178.494 64.0909 178.61 64.1079 178.732 64.1079C179.082 64.1079 179.357 64.0399 179.558 63.9039C179.762 63.7646 179.906 63.5777 179.991 63.3432C180.08 63.1086 180.124 62.8453 180.124 62.553ZM183.833 57.1695V65H182.599V57.1695H183.833ZM186.482 60.6055V65H185.254V59.484H186.411L186.482 60.6055ZM186.283 62.0381L185.865 62.033C185.865 61.6523 185.913 61.3006 186.008 60.9777C186.103 60.6548 186.243 60.3744 186.426 60.1365C186.61 59.8952 186.837 59.71 187.109 59.5808C187.385 59.4483 187.702 59.382 188.063 59.382C188.314 59.382 188.544 59.4194 188.751 59.4942C188.962 59.5655 189.143 59.6794 189.296 59.8357C189.453 59.9921 189.572 60.1926 189.653 60.4373C189.738 60.682 189.781 60.9777 189.781 61.3244V65H188.552V61.4314C188.552 61.1629 188.511 60.9522 188.43 60.7993C188.352 60.6463 188.238 60.5376 188.088 60.473C187.942 60.405 187.767 60.371 187.563 60.371C187.332 60.371 187.135 60.4152 186.972 60.5036C186.812 60.5919 186.681 60.7126 186.579 60.8655C186.477 61.0185 186.402 61.1952 186.355 61.3957C186.307 61.5962 186.283 61.8104 186.283 62.0381ZM189.704 61.7118L189.128 61.8392C189.128 61.5062 189.174 61.1918 189.266 60.8961C189.361 60.597 189.499 60.3353 189.679 60.111C189.862 59.8833 190.088 59.7049 190.357 59.5757C190.625 59.4466 190.933 59.382 191.279 59.382C191.562 59.382 191.813 59.4211 192.034 59.4993C192.258 59.574 192.449 59.693 192.605 59.8561C192.761 60.0193 192.88 60.2317 192.962 60.4934C193.043 60.7517 193.084 61.0644 193.084 61.4314V65H191.85V61.4263C191.85 61.1476 191.81 60.9318 191.728 60.7789C191.65 60.6259 191.538 60.5206 191.392 60.4628C191.245 60.4016 191.07 60.371 190.867 60.371C190.676 60.371 190.508 60.4067 190.362 60.4781C190.219 60.5461 190.098 60.6429 190 60.7687C189.901 60.891 189.827 61.0321 189.776 61.1918C189.728 61.3515 189.704 61.5249 189.704 61.7118ZM197.533 63.8937V61.2632C197.533 61.0661 197.497 60.8961 197.426 60.7534C197.354 60.6106 197.246 60.5002 197.099 60.422C196.957 60.3438 196.777 60.3048 196.559 60.3048C196.359 60.3048 196.185 60.3387 196.039 60.4067C195.893 60.4747 195.779 60.5665 195.698 60.682C195.616 60.7976 195.575 60.9284 195.575 61.0745H194.352C194.352 60.857 194.404 60.6463 194.51 60.4424C194.615 60.2385 194.768 60.0567 194.968 59.8969C195.169 59.7372 195.409 59.6114 195.687 59.5197C195.966 59.4279 196.279 59.382 196.625 59.382C197.04 59.382 197.407 59.4517 197.727 59.591C198.049 59.7304 198.303 59.9411 198.486 60.2232C198.673 60.5019 198.766 60.8519 198.766 61.2734V63.7255C198.766 63.977 198.783 64.203 198.817 64.4035C198.855 64.6007 198.908 64.7723 198.976 64.9184V65H197.716C197.659 64.8675 197.613 64.6992 197.579 64.4953C197.548 64.288 197.533 64.0875 197.533 63.8937ZM197.711 61.6455L197.721 62.4051H196.839C196.612 62.4051 196.411 62.4272 196.238 62.4714C196.065 62.5122 195.92 62.5734 195.805 62.6549C195.689 62.7365 195.602 62.8351 195.545 62.9506C195.487 63.0662 195.458 63.197 195.458 63.3432C195.458 63.4893 195.492 63.6235 195.56 63.7459C195.628 63.8648 195.726 63.9583 195.856 64.0263C195.988 64.0943 196.148 64.1282 196.335 64.1282C196.586 64.1282 196.805 64.0773 196.992 63.9753C197.183 63.8699 197.332 63.7425 197.441 63.593C197.55 63.44 197.608 63.2956 197.614 63.1596L198.012 63.7051C197.971 63.8445 197.902 63.994 197.803 64.1537C197.704 64.3135 197.575 64.4664 197.416 64.6126C197.259 64.7553 197.071 64.8726 196.85 64.9643C196.632 65.0561 196.381 65.102 196.095 65.102C195.735 65.102 195.414 65.0306 195.132 64.8878C194.85 64.7417 194.629 64.5463 194.469 64.3016C194.309 64.0535 194.229 63.7731 194.229 63.4604C194.229 63.1681 194.284 62.9098 194.392 62.6855C194.505 62.4578 194.668 62.2675 194.882 62.1145C195.099 61.9616 195.364 61.846 195.677 61.7679C195.99 61.6863 196.347 61.6455 196.748 61.6455H197.711ZM203.22 63.5063C203.22 63.3839 203.19 63.2735 203.128 63.1749C203.067 63.073 202.95 62.9812 202.777 62.8996C202.607 62.8181 202.355 62.7433 202.022 62.6753C201.73 62.6107 201.461 62.5343 201.217 62.4459C200.975 62.3541 200.768 62.2437 200.595 62.1145C200.421 61.9854 200.287 61.8325 200.192 61.6557C200.097 61.479 200.049 61.2751 200.049 61.044C200.049 60.8197 200.099 60.6072 200.197 60.4067C200.296 60.2062 200.437 60.0295 200.62 59.8765C200.804 59.7236 201.026 59.6029 201.288 59.5146C201.553 59.4262 201.849 59.382 202.175 59.382C202.637 59.382 203.033 59.4602 203.363 59.6165C203.696 59.7695 203.951 59.9785 204.128 60.2436C204.304 60.5053 204.393 60.801 204.393 61.1306H203.164C203.164 60.9845 203.127 60.8485 203.052 60.7228C202.981 60.5936 202.872 60.49 202.726 60.4118C202.58 60.3302 202.396 60.2895 202.175 60.2895C201.964 60.2895 201.789 60.3234 201.65 60.3914C201.514 60.456 201.412 60.541 201.344 60.6463C201.28 60.7517 201.247 60.8672 201.247 60.993C201.247 61.0847 201.264 61.168 201.298 61.2428C201.336 61.3142 201.397 61.3804 201.482 61.4416C201.567 61.4994 201.682 61.5538 201.828 61.6047C201.978 61.6557 202.165 61.705 202.389 61.7526C202.811 61.8409 203.173 61.9548 203.475 62.0941C203.781 62.2301 204.016 62.4068 204.179 62.6243C204.342 62.8385 204.423 63.1103 204.423 63.44C204.423 63.6847 204.371 63.909 204.265 64.113C204.163 64.3135 204.014 64.4885 203.817 64.638C203.62 64.7842 203.383 64.898 203.108 64.9796C202.836 65.0612 202.53 65.102 202.19 65.102C201.691 65.102 201.268 65.0136 200.921 64.8369C200.574 64.6567 200.311 64.4273 200.131 64.1486C199.954 63.8665 199.866 63.5743 199.866 63.2718H201.054C201.067 63.4995 201.13 63.6813 201.242 63.8173C201.358 63.9498 201.501 64.0467 201.67 64.1079C201.844 64.1656 202.022 64.1945 202.206 64.1945C202.427 64.1945 202.612 64.1656 202.761 64.1079C202.911 64.0467 203.025 63.9651 203.103 63.8631C203.181 63.7578 203.22 63.6388 203.22 63.5063ZM206.889 59.484V65H205.655V59.484H206.889ZM205.574 58.0361C205.574 57.8492 205.635 57.6946 205.757 57.5722C205.883 57.4465 206.056 57.3836 206.277 57.3836C206.495 57.3836 206.666 57.4465 206.792 57.5722C206.918 57.6946 206.981 57.8492 206.981 58.0361C206.981 58.2197 206.918 58.3726 206.792 58.495C206.666 58.6173 206.495 58.6785 206.277 58.6785C206.056 58.6785 205.883 58.6173 205.757 58.495C205.635 58.3726 205.574 58.2197 205.574 58.0361ZM212.778 64.0263L214.129 59.484H215.404L213.487 65H212.692L212.778 64.0263ZM211.743 59.484L213.12 64.0467L213.186 65H212.391L210.464 59.484H211.743ZM219.266 63.8937V61.2632C219.266 61.0661 219.231 60.8961 219.159 60.7534C219.088 60.6106 218.979 60.5002 218.833 60.422C218.69 60.3438 218.51 60.3048 218.293 60.3048C218.092 60.3048 217.919 60.3387 217.773 60.4067C217.626 60.4747 217.513 60.5665 217.431 60.682C217.349 60.7976 217.309 60.9284 217.309 61.0745H216.085C216.085 60.857 216.138 60.6463 216.243 60.4424C216.348 60.2385 216.501 60.0567 216.702 59.8969C216.902 59.7372 217.142 59.6114 217.421 59.5197C217.699 59.4279 218.012 59.382 218.359 59.382C218.773 59.382 219.14 59.4517 219.46 59.591C219.783 59.7304 220.036 59.9411 220.22 60.2232C220.406 60.5019 220.5 60.8519 220.5 61.2734V63.7255C220.5 63.977 220.517 64.203 220.551 64.4035C220.588 64.6007 220.641 64.7723 220.709 64.9184V65H219.45C219.392 64.8675 219.346 64.6992 219.312 64.4953C219.282 64.288 219.266 64.0875 219.266 63.8937ZM219.445 61.6455L219.455 62.4051H218.573C218.345 62.4051 218.145 62.4272 217.971 62.4714C217.798 62.5122 217.654 62.5734 217.538 62.6549C217.422 62.7365 217.336 62.8351 217.278 62.9506C217.22 63.0662 217.191 63.197 217.191 63.3432C217.191 63.4893 217.225 63.6235 217.293 63.7459C217.361 63.8648 217.46 63.9583 217.589 64.0263C217.722 64.0943 217.881 64.1282 218.068 64.1282C218.32 64.1282 218.539 64.0773 218.726 63.9753C218.916 63.8699 219.066 63.7425 219.174 63.593C219.283 63.44 219.341 63.2956 219.348 63.1596L219.745 63.7051C219.705 63.8445 219.635 63.994 219.536 64.1537C219.438 64.3135 219.309 64.4664 219.149 64.6126C218.993 64.7553 218.804 64.8726 218.583 64.9643C218.366 65.0561 218.114 65.102 217.829 65.102C217.468 65.102 217.147 65.0306 216.865 64.8878C216.583 64.7417 216.362 64.5463 216.202 64.3016C216.043 64.0535 215.963 63.7731 215.963 63.4604C215.963 63.1681 216.017 62.9098 216.126 62.6855C216.238 62.4578 216.401 62.2675 216.615 62.1145C216.833 61.9616 217.098 61.846 217.411 61.7679C217.723 61.6863 218.08 61.6455 218.481 61.6455H219.445ZM227.644 63.8937V61.2632C227.644 61.0661 227.608 60.8961 227.536 60.7534C227.465 60.6106 227.356 60.5002 227.21 60.422C227.067 60.3438 226.887 60.3048 226.67 60.3048C226.469 60.3048 226.296 60.3387 226.15 60.4067C226.004 60.4747 225.89 60.5665 225.808 60.682C225.727 60.7976 225.686 60.9284 225.686 61.0745H224.462C224.462 60.857 224.515 60.6463 224.62 60.4424C224.726 60.2385 224.879 60.0567 225.079 59.8969C225.28 59.7372 225.519 59.6114 225.798 59.5197C226.077 59.4279 226.389 59.382 226.736 59.382C227.151 59.382 227.518 59.4517 227.837 59.591C228.16 59.7304 228.413 59.9411 228.597 60.2232C228.784 60.5019 228.877 60.8519 228.877 61.2734V63.7255C228.877 63.977 228.894 64.203 228.928 64.4035C228.966 64.6007 229.018 64.7723 229.086 64.9184V65H227.827C227.769 64.8675 227.723 64.6992 227.689 64.4953C227.659 64.288 227.644 64.0875 227.644 63.8937ZM227.822 61.6455L227.832 62.4051H226.95C226.722 62.4051 226.522 62.4272 226.349 62.4714C226.175 62.5122 226.031 62.5734 225.915 62.6549C225.8 62.7365 225.713 62.8351 225.655 62.9506C225.598 63.0662 225.569 63.197 225.569 63.3432C225.569 63.4893 225.603 63.6235 225.671 63.7459C225.739 63.8648 225.837 63.9583 225.966 64.0263C226.099 64.0943 226.259 64.1282 226.446 64.1282C226.697 64.1282 226.916 64.0773 227.103 63.9753C227.293 63.8699 227.443 63.7425 227.552 63.593C227.661 63.44 227.718 63.2956 227.725 63.1596L228.123 63.7051C228.082 63.8445 228.012 63.994 227.914 64.1537C227.815 64.3135 227.686 64.4664 227.526 64.6126C227.37 64.7553 227.181 64.8726 226.96 64.9643C226.743 65.0561 226.491 65.102 226.206 65.102C225.846 65.102 225.524 65.0306 225.242 64.8878C224.96 64.7417 224.739 64.5463 224.58 64.3016C224.42 64.0535 224.34 63.7731 224.34 63.4604C224.34 63.1681 224.394 62.9098 224.503 62.6855C224.615 62.4578 224.778 62.2675 224.993 62.1145C225.21 61.9616 225.475 61.846 225.788 61.7679C226.101 61.6863 226.457 61.6455 226.858 61.6455H227.822ZM231.552 57.1695V65H230.318V57.1695H231.552ZM236.505 59.484H237.622V64.8471C237.622 65.3433 237.516 65.7647 237.306 66.1114C237.095 66.458 236.801 66.7214 236.424 66.9015C236.046 67.0851 235.61 67.1768 235.113 67.1768C234.903 67.1768 234.668 67.1463 234.41 67.0851C234.155 67.0239 233.907 66.9253 233.666 66.7894C233.428 66.6568 233.229 66.4818 233.069 66.2643L233.645 65.5404C233.842 65.7749 234.06 65.9465 234.298 66.0553C234.536 66.164 234.785 66.2184 235.047 66.2184C235.329 66.2184 235.569 66.1657 235.766 66.0604C235.966 65.9584 236.121 65.8072 236.23 65.6067C236.339 65.4061 236.393 65.1614 236.393 64.8726V60.733L236.505 59.484ZM232.758 62.3032V62.1961C232.758 61.7781 232.809 61.3974 232.911 61.0542C233.013 60.7075 233.159 60.4101 233.349 60.162C233.54 59.9105 233.771 59.7185 234.043 59.5859C234.315 59.45 234.622 59.382 234.966 59.382C235.322 59.382 235.627 59.4466 235.878 59.5757C236.133 59.7049 236.345 59.8901 236.515 60.1314C236.685 60.3693 236.818 60.6548 236.913 60.9879C237.012 61.3176 237.085 61.6846 237.132 62.089V62.4306C237.088 62.8249 237.013 63.1851 236.908 63.5114C236.803 63.8377 236.663 64.1197 236.49 64.3577C236.317 64.5956 236.102 64.7791 235.848 64.9082C235.596 65.0374 235.299 65.102 234.955 65.102C234.619 65.102 234.315 65.0323 234.043 64.8929C233.774 64.7536 233.543 64.5582 233.349 64.3067C233.159 64.0552 233.013 63.7595 232.911 63.4196C232.809 63.0764 232.758 62.7042 232.758 62.3032ZM233.987 62.1961V62.3032C233.987 62.5547 234.011 62.7892 234.058 63.0067C234.109 63.2242 234.186 63.4162 234.288 63.5828C234.393 63.7459 234.525 63.875 234.685 63.9702C234.848 64.062 235.04 64.1079 235.261 64.1079C235.55 64.1079 235.786 64.0467 235.97 63.9243C236.157 63.802 236.3 63.6371 236.398 63.4298C236.5 63.2191 236.571 62.9846 236.612 62.7263V61.8036C236.592 61.603 236.549 61.4161 236.485 61.2428C236.424 61.0695 236.34 60.9182 236.235 60.7891C236.13 60.6565 235.997 60.5546 235.837 60.4832C235.678 60.4084 235.489 60.371 235.271 60.371C235.051 60.371 234.858 60.4186 234.695 60.5138C234.532 60.6089 234.398 60.7398 234.293 60.9063C234.191 61.0729 234.114 61.2666 234.063 61.4875C234.012 61.7084 233.987 61.9446 233.987 62.1961ZM242.08 63.8937V61.2632C242.08 61.0661 242.045 60.8961 241.973 60.7534C241.902 60.6106 241.793 60.5002 241.647 60.422C241.504 60.3438 241.324 60.3048 241.107 60.3048C240.906 60.3048 240.733 60.3387 240.587 60.4067C240.441 60.4747 240.327 60.5665 240.245 60.682C240.164 60.7976 240.123 60.9284 240.123 61.0745H238.899C238.899 60.857 238.952 60.6463 239.057 60.4424C239.163 60.2385 239.316 60.0567 239.516 59.8969C239.717 59.7372 239.956 59.6114 240.235 59.5197C240.514 59.4279 240.826 59.382 241.173 59.382C241.588 59.382 241.955 59.4517 242.274 59.591C242.597 59.7304 242.85 59.9411 243.034 60.2232C243.221 60.5019 243.314 60.8519 243.314 61.2734V63.7255C243.314 63.977 243.331 64.203 243.365 64.4035C243.403 64.6007 243.455 64.7723 243.523 64.9184V65H242.264C242.206 64.8675 242.16 64.6992 242.126 64.4953C242.096 64.288 242.08 64.0875 242.08 63.8937ZM242.259 61.6455L242.269 62.4051H241.387C241.159 62.4051 240.959 62.4272 240.786 62.4714C240.612 62.5122 240.468 62.5734 240.352 62.6549C240.237 62.7365 240.15 62.8351 240.092 62.9506C240.034 63.0662 240.006 63.197 240.006 63.3432C240.006 63.4893 240.04 63.6235 240.108 63.7459C240.176 63.8648 240.274 63.9583 240.403 64.0263C240.536 64.0943 240.696 64.1282 240.882 64.1282C241.134 64.1282 241.353 64.0773 241.54 63.9753C241.73 63.8699 241.88 63.7425 241.989 63.593C242.097 63.44 242.155 63.2956 242.162 63.1596L242.56 63.7051C242.519 63.8445 242.449 63.994 242.351 64.1537C242.252 64.3135 242.123 64.4664 241.963 64.6126C241.807 64.7553 241.618 64.8726 241.397 64.9643C241.18 65.0561 240.928 65.102 240.643 65.102C240.283 65.102 239.961 65.0306 239.679 64.8878C239.397 64.7417 239.176 64.5463 239.017 64.3016C238.857 64.0535 238.777 63.7731 238.777 63.4604C238.777 63.1681 238.831 62.9098 238.94 62.6855C239.052 62.4578 239.215 62.2675 239.43 62.1145C239.647 61.9616 239.912 61.846 240.225 61.7679C240.537 61.6863 240.894 61.6455 241.295 61.6455H242.259ZM245.907 60.5342V65H244.679V59.484H245.851L245.907 60.5342ZM247.595 59.4483L247.584 60.5902C247.51 60.5766 247.428 60.5665 247.34 60.5597C247.255 60.5529 247.17 60.5495 247.085 60.5495C246.874 60.5495 246.689 60.58 246.529 60.6412C246.369 60.699 246.235 60.784 246.126 60.8961C246.021 61.0049 245.939 61.1374 245.882 61.2938C245.824 61.4501 245.79 61.6251 245.78 61.8189L245.499 61.8392C245.499 61.4926 245.533 61.1714 245.601 60.8757C245.669 60.58 245.771 60.32 245.907 60.0957C246.046 59.8714 246.22 59.6964 246.427 59.5706C246.638 59.4449 246.881 59.382 247.156 59.382C247.231 59.382 247.311 59.3888 247.396 59.4024C247.484 59.416 247.55 59.4313 247.595 59.4483ZM249.754 59.484V65H248.521V59.484H249.754ZM248.439 58.0361C248.439 57.8492 248.5 57.6946 248.622 57.5722C248.748 57.4465 248.922 57.3836 249.142 57.3836C249.36 57.3836 249.532 57.4465 249.657 57.5722C249.783 57.6946 249.846 57.8492 249.846 58.0361C249.846 58.2197 249.783 58.3726 249.657 58.495C249.532 58.6173 249.36 58.6785 249.142 58.6785C248.922 58.6785 248.748 58.6173 248.622 58.495C248.5 58.3726 248.439 58.2197 248.439 58.0361ZM253.703 59.484V60.3812H250.594V59.484H253.703ZM251.491 58.133H252.719V63.4757C252.719 63.6456 252.743 63.7765 252.791 63.8682C252.842 63.9566 252.911 64.0161 253 64.0467C253.088 64.0773 253.192 64.0926 253.311 64.0926C253.396 64.0926 253.477 64.0875 253.555 64.0773C253.634 64.0671 253.696 64.0569 253.744 64.0467L253.749 64.9847C253.647 65.0153 253.528 65.0425 253.392 65.0663C253.26 65.0901 253.107 65.102 252.933 65.102C252.651 65.102 252.402 65.0527 252.184 64.9541C251.967 64.8522 251.797 64.6873 251.674 64.4596C251.552 64.2319 251.491 63.9294 251.491 63.5522V58.133ZM255.955 60.6055V65H254.726V59.484H255.883L255.955 60.6055ZM255.756 62.0381L255.338 62.033C255.338 61.6523 255.385 61.3006 255.481 60.9777C255.576 60.6548 255.715 60.3744 255.899 60.1365C256.082 59.8952 256.31 59.71 256.582 59.5808C256.857 59.4483 257.175 59.382 257.535 59.382C257.787 59.382 258.016 59.4194 258.223 59.4942C258.434 59.5655 258.616 59.6794 258.769 59.8357C258.925 59.9921 259.044 60.1926 259.126 60.4373C259.211 60.682 259.253 60.9777 259.253 61.3244V65H258.024V61.4314C258.024 61.1629 257.984 60.9522 257.902 60.7993C257.824 60.6463 257.71 60.5376 257.561 60.473C257.414 60.405 257.239 60.371 257.035 60.371C256.804 60.371 256.607 60.4152 256.444 60.5036C256.284 60.5919 256.154 60.7126 256.052 60.8655C255.95 61.0185 255.875 61.1952 255.827 61.3957C255.78 61.5962 255.756 61.8104 255.756 62.0381ZM259.177 61.7118L258.601 61.8392C258.601 61.5062 258.646 61.1918 258.738 60.8961C258.833 60.597 258.971 60.3353 259.151 60.111C259.335 59.8833 259.561 59.7049 259.829 59.5757C260.098 59.4466 260.405 59.382 260.752 59.382C261.034 59.382 261.285 59.4211 261.506 59.4993C261.731 59.574 261.921 59.693 262.077 59.8561C262.234 60.0193 262.353 60.2317 262.434 60.4934C262.516 60.7517 262.557 61.0644 262.557 61.4314V65H261.323V61.4263C261.323 61.1476 261.282 60.9318 261.201 60.7789C261.122 60.6259 261.01 60.5206 260.864 60.4628C260.718 60.4016 260.543 60.371 260.339 60.371C260.149 60.371 259.98 60.4067 259.834 60.4781C259.692 60.5461 259.571 60.6429 259.472 60.7687C259.374 60.891 259.299 61.0321 259.248 61.1918C259.2 61.3515 259.177 61.5249 259.177 61.7118ZM265.211 57.1695V65H263.977V57.1695H265.211ZM269.741 63.8937V61.2632C269.741 61.0661 269.705 60.8961 269.634 60.7534C269.563 60.6106 269.454 60.5002 269.308 60.422C269.165 60.3438 268.985 60.3048 268.767 60.3048C268.567 60.3048 268.393 60.3387 268.247 60.4067C268.101 60.4747 267.987 60.5665 267.906 60.682C267.824 60.7976 267.783 60.9284 267.783 61.0745H266.56C266.56 60.857 266.612 60.6463 266.718 60.4424C266.823 60.2385 266.976 60.0567 267.177 59.8969C267.377 59.7372 267.617 59.6114 267.895 59.5197C268.174 59.4279 268.487 59.382 268.834 59.382C269.248 59.382 269.615 59.4517 269.935 59.591C270.258 59.7304 270.511 59.9411 270.694 60.2232C270.881 60.5019 270.975 60.8519 270.975 61.2734V63.7255C270.975 63.977 270.992 64.203 271.026 64.4035C271.063 64.6007 271.116 64.7723 271.184 64.9184V65H269.924C269.867 64.8675 269.821 64.6992 269.787 64.4953C269.756 64.288 269.741 64.0875 269.741 63.8937ZM269.919 61.6455L269.93 62.4051H269.048C268.82 62.4051 268.619 62.4272 268.446 62.4714C268.273 62.5122 268.128 62.5734 268.013 62.6549C267.897 62.7365 267.811 62.8351 267.753 62.9506C267.695 63.0662 267.666 63.197 267.666 63.3432C267.666 63.4893 267.7 63.6235 267.768 63.7459C267.836 63.8648 267.935 63.9583 268.064 64.0263C268.196 64.0943 268.356 64.1282 268.543 64.1282C268.794 64.1282 269.014 64.0773 269.201 63.9753C269.391 63.8699 269.54 63.7425 269.649 63.593C269.758 63.44 269.816 63.2956 269.823 63.1596L270.22 63.7051C270.179 63.8445 270.11 63.994 270.011 64.1537C269.913 64.3135 269.783 64.4664 269.624 64.6126C269.467 64.7553 269.279 64.8726 269.058 64.9643C268.84 65.0561 268.589 65.102 268.303 65.102C267.943 65.102 267.622 65.0306 267.34 64.8878C267.058 64.7417 266.837 64.5463 266.677 64.3016C266.517 64.0535 266.437 63.7731 266.437 63.4604C266.437 63.1681 266.492 62.9098 266.601 62.6855C266.713 62.4578 266.876 62.2675 267.09 62.1145C267.308 61.9616 267.573 61.846 267.885 61.7679C268.198 61.6863 268.555 61.6455 268.956 61.6455H269.919ZM273.568 60.5342V65H272.339V59.484H273.512L273.568 60.5342ZM275.255 59.4483L275.245 60.5902C275.17 60.5766 275.089 60.5665 275 60.5597C274.915 60.5529 274.83 60.5495 274.745 60.5495C274.535 60.5495 274.349 60.58 274.19 60.6412C274.03 60.699 273.896 60.784 273.787 60.8961C273.682 61.0049 273.6 61.1374 273.542 61.2938C273.484 61.4501 273.45 61.6251 273.44 61.8189L273.16 61.8392C273.16 61.4926 273.194 61.1714 273.262 60.8757C273.33 60.58 273.432 60.32 273.568 60.0957C273.707 59.8714 273.88 59.6964 274.088 59.5706C274.298 59.4449 274.541 59.382 274.817 59.382C274.891 59.382 274.971 59.3888 275.056 59.4024C275.145 59.416 275.211 59.4313 275.255 59.4483Z" fill="#1C2023"/>
<path d="M45 54.2034C45 49.6728 48.6728 46 53.2034 46H93V131H53.2034C48.6728 131 45 127.327 45 122.797V54.2034Z" fill="#8E8E93"/>
<rect x="102" y="108" width="37" height="15" rx="2.98305" fill="#8E8E93"/>
<path d="M111.417 112.701L109.311 118.5H108.45L110.876 112.138H111.431L111.417 112.701ZM113.183 118.5L111.072 112.701L111.059 112.138H111.614L114.048 118.5H113.183ZM113.074 116.145V116.835H109.499V116.145H113.074ZM121.807 116.359V117.023H117.21V116.547L120.059 112.138H120.718L120.011 113.414L118.127 116.359H121.807ZM120.919 112.138V118.5H120.111V112.138H120.919ZM123.861 115.472L123.215 115.306L123.534 112.138H126.798V112.885H124.22L124.028 114.615C124.144 114.548 124.291 114.486 124.469 114.427C124.649 114.369 124.856 114.34 125.089 114.34C125.384 114.34 125.647 114.391 125.88 114.493C126.113 114.592 126.311 114.735 126.475 114.921C126.641 115.108 126.767 115.332 126.855 115.594C126.942 115.856 126.986 116.149 126.986 116.472C126.986 116.778 126.944 117.059 126.859 117.316C126.778 117.572 126.654 117.796 126.488 117.989C126.322 118.178 126.112 118.325 125.858 118.43C125.608 118.535 125.312 118.587 124.971 118.587C124.715 118.587 124.472 118.552 124.242 118.483C124.014 118.41 123.81 118.3 123.63 118.155C123.452 118.006 123.307 117.823 123.193 117.604C123.082 117.383 123.012 117.124 122.983 116.826H123.752C123.787 117.065 123.857 117.266 123.962 117.429C124.067 117.593 124.204 117.716 124.373 117.801C124.545 117.882 124.744 117.923 124.971 117.923C125.164 117.923 125.334 117.89 125.483 117.823C125.631 117.756 125.756 117.66 125.858 117.534C125.96 117.409 126.038 117.258 126.09 117.08C126.145 116.902 126.173 116.703 126.173 116.481C126.173 116.28 126.145 116.094 126.09 115.922C126.035 115.75 125.952 115.6 125.841 115.472C125.733 115.344 125.601 115.245 125.443 115.175C125.286 115.102 125.105 115.065 124.901 115.065C124.631 115.065 124.425 115.102 124.285 115.175C124.148 115.247 124.007 115.347 123.861 115.472ZM132.165 114.812V115.782C132.165 116.303 132.118 116.743 132.025 117.102C131.932 117.46 131.798 117.748 131.623 117.967C131.448 118.185 131.237 118.344 130.99 118.443C130.745 118.539 130.468 118.587 130.159 118.587C129.915 118.587 129.689 118.557 129.482 118.496C129.275 118.434 129.089 118.337 128.923 118.203C128.76 118.066 128.62 117.888 128.503 117.67C128.387 117.451 128.298 117.186 128.237 116.874C128.176 116.563 128.145 116.199 128.145 115.782V114.812C128.145 114.291 128.192 113.854 128.285 113.501C128.381 113.149 128.516 112.866 128.691 112.653C128.866 112.438 129.076 112.283 129.32 112.19C129.568 112.097 129.845 112.05 130.151 112.05C130.398 112.05 130.625 112.081 130.832 112.142C131.042 112.2 131.228 112.295 131.392 112.426C131.555 112.554 131.693 112.726 131.807 112.942C131.923 113.154 132.012 113.415 132.073 113.724C132.134 114.033 132.165 114.395 132.165 114.812ZM131.352 115.913V114.677C131.352 114.391 131.335 114.14 131.3 113.925C131.268 113.706 131.22 113.52 131.156 113.366C131.092 113.211 131.01 113.086 130.911 112.99C130.815 112.894 130.703 112.824 130.574 112.78C130.449 112.733 130.308 112.71 130.151 112.71C129.958 112.71 129.788 112.747 129.639 112.819C129.491 112.889 129.366 113.001 129.264 113.156C129.165 113.31 129.089 113.513 129.036 113.763C128.984 114.014 128.958 114.318 128.958 114.677V115.913C128.958 116.199 128.974 116.451 129.006 116.669C129.041 116.888 129.092 117.077 129.159 117.237C129.226 117.394 129.307 117.524 129.403 117.626C129.5 117.728 129.61 117.804 129.736 117.853C129.864 117.9 130.005 117.923 130.159 117.923C130.357 117.923 130.531 117.885 130.679 117.81C130.828 117.734 130.952 117.616 131.051 117.456C131.153 117.293 131.228 117.084 131.278 116.831C131.328 116.574 131.352 116.269 131.352 115.913Z" fill="white"/>
<path d="M237.978 112.235L235.521 119H234.517L237.346 111.577H237.994L237.978 112.235ZM240.038 119L237.575 112.235L237.56 111.577H238.208L241.047 119H240.038ZM239.91 116.252V117.058H235.74V116.252H239.91ZM243.023 114.58V119H242.075V113.484H242.972L243.023 114.58ZM242.829 116.033L242.391 116.018C242.394 115.64 242.444 115.292 242.539 114.973C242.634 114.65 242.775 114.369 242.962 114.131C243.149 113.894 243.382 113.71 243.66 113.581C243.939 113.448 244.262 113.382 244.629 113.382C244.887 113.382 245.125 113.419 245.343 113.494C245.56 113.566 245.749 113.679 245.909 113.836C246.068 113.992 246.192 114.193 246.281 114.437C246.369 114.682 246.413 114.978 246.413 115.324V119H245.47V115.37C245.47 115.081 245.421 114.85 245.322 114.677C245.227 114.504 245.091 114.378 244.914 114.3C244.738 114.218 244.53 114.177 244.292 114.177C244.014 114.177 243.781 114.227 243.594 114.325C243.407 114.424 243.258 114.56 243.145 114.733C243.033 114.906 242.952 115.105 242.901 115.329C242.853 115.55 242.829 115.785 242.829 116.033ZM246.403 115.513L245.771 115.707C245.774 115.404 245.824 115.114 245.919 114.835C246.017 114.556 246.158 114.308 246.342 114.091C246.529 113.873 246.758 113.701 247.03 113.576C247.302 113.447 247.613 113.382 247.963 113.382C248.259 113.382 248.52 113.421 248.748 113.499C248.979 113.577 249.173 113.698 249.329 113.861C249.489 114.021 249.61 114.227 249.691 114.478C249.773 114.73 249.814 115.029 249.814 115.375V119H248.865V115.365C248.865 115.056 248.816 114.816 248.717 114.646C248.622 114.473 248.486 114.352 248.31 114.284C248.136 114.213 247.929 114.177 247.688 114.177C247.48 114.177 247.297 114.213 247.137 114.284C246.977 114.356 246.843 114.454 246.734 114.58C246.626 114.702 246.542 114.843 246.485 115.003C246.43 115.163 246.403 115.333 246.403 115.513ZM254.68 118.057V115.217C254.68 115 254.636 114.811 254.547 114.651C254.462 114.488 254.333 114.363 254.16 114.274C253.987 114.186 253.773 114.142 253.518 114.142C253.28 114.142 253.071 114.182 252.891 114.264C252.714 114.346 252.574 114.453 252.473 114.585C252.374 114.718 252.325 114.86 252.325 115.013H251.382C251.382 114.816 251.433 114.621 251.534 114.427C251.636 114.233 251.783 114.058 251.973 113.902C252.167 113.742 252.398 113.617 252.666 113.525C252.938 113.43 253.241 113.382 253.574 113.382C253.975 113.382 254.328 113.45 254.634 113.586C254.943 113.722 255.185 113.928 255.358 114.203C255.535 114.475 255.623 114.816 255.623 115.227V117.797C255.623 117.98 255.638 118.176 255.669 118.383C255.703 118.59 255.752 118.769 255.817 118.918V119H254.833C254.785 118.891 254.748 118.747 254.721 118.567C254.694 118.383 254.68 118.213 254.68 118.057ZM254.843 115.656L254.853 116.318H253.9C253.631 116.318 253.392 116.341 253.181 116.385C252.97 116.426 252.794 116.488 252.651 116.573C252.508 116.658 252.399 116.765 252.325 116.895C252.25 117.02 252.213 117.168 252.213 117.338C252.213 117.511 252.252 117.669 252.33 117.812C252.408 117.955 252.525 118.069 252.682 118.154C252.841 118.235 253.037 118.276 253.268 118.276C253.557 118.276 253.812 118.215 254.033 118.093C254.253 117.97 254.428 117.821 254.558 117.644C254.69 117.467 254.762 117.296 254.772 117.129L255.174 117.583C255.151 117.726 255.086 117.884 254.981 118.057C254.875 118.23 254.734 118.397 254.558 118.556C254.384 118.713 254.177 118.844 253.936 118.949C253.698 119.051 253.429 119.102 253.13 119.102C252.756 119.102 252.428 119.029 252.146 118.883C251.868 118.737 251.65 118.541 251.494 118.296C251.341 118.048 251.264 117.771 251.264 117.466C251.264 117.17 251.322 116.91 251.438 116.686C251.553 116.458 251.72 116.269 251.937 116.12C252.155 115.967 252.416 115.851 252.722 115.773C253.028 115.695 253.37 115.656 253.747 115.656H254.843ZM258.318 111.169V119H257.37V111.169H258.318ZM261.043 113.484V119H260.095V113.484H261.043ZM260.023 112.021C260.023 111.868 260.069 111.739 260.161 111.633C260.256 111.528 260.396 111.475 260.579 111.475C260.759 111.475 260.897 111.528 260.992 111.633C261.091 111.739 261.14 111.868 261.14 112.021C261.14 112.167 261.091 112.293 260.992 112.398C260.897 112.5 260.759 112.551 260.579 112.551C260.396 112.551 260.256 112.5 260.161 112.398C260.069 112.293 260.023 112.167 260.023 112.021ZM264.293 118.429L265.828 113.484H266.837L264.625 119.851C264.574 119.987 264.506 120.133 264.421 120.29C264.339 120.45 264.234 120.601 264.105 120.744C263.976 120.886 263.819 121.002 263.636 121.09C263.456 121.182 263.24 121.228 262.988 121.228C262.913 121.228 262.818 121.218 262.703 121.197C262.587 121.177 262.506 121.16 262.458 121.146L262.453 120.382C262.48 120.385 262.523 120.388 262.58 120.392C262.642 120.399 262.684 120.402 262.708 120.402C262.922 120.402 263.104 120.373 263.253 120.315C263.403 120.261 263.529 120.167 263.631 120.035C263.736 119.906 263.826 119.727 263.901 119.5L264.293 118.429ZM263.167 113.484L264.599 117.766L264.844 118.76L264.166 119.107L262.137 113.484H263.167ZM267.544 116.303V116.186C267.544 115.788 267.601 115.42 267.717 115.08C267.833 114.736 267.999 114.439 268.217 114.188C268.434 113.933 268.697 113.735 269.007 113.596C269.316 113.453 269.663 113.382 270.047 113.382C270.434 113.382 270.783 113.453 271.092 113.596C271.405 113.735 271.67 113.933 271.887 114.188C272.108 114.439 272.276 114.736 272.392 115.08C272.507 115.42 272.565 115.788 272.565 116.186V116.303C272.565 116.701 272.507 117.07 272.392 117.409C272.276 117.749 272.108 118.047 271.887 118.302C271.67 118.553 271.406 118.75 271.097 118.893C270.791 119.032 270.444 119.102 270.057 119.102C269.669 119.102 269.321 119.032 269.012 118.893C268.703 118.75 268.437 118.553 268.217 118.302C267.999 118.047 267.833 117.749 267.717 117.409C267.601 117.07 267.544 116.701 267.544 116.303ZM268.487 116.186V116.303C268.487 116.578 268.519 116.838 268.584 117.083C268.648 117.324 268.745 117.539 268.874 117.726C269.007 117.912 269.172 118.06 269.369 118.169C269.566 118.274 269.795 118.327 270.057 118.327C270.315 118.327 270.541 118.274 270.735 118.169C270.932 118.06 271.095 117.912 271.224 117.726C271.354 117.539 271.45 117.324 271.515 117.083C271.583 116.838 271.617 116.578 271.617 116.303V116.186C271.617 115.914 271.583 115.657 271.515 115.416C271.45 115.171 271.352 114.956 271.219 114.769C271.09 114.578 270.927 114.429 270.73 114.32C270.536 114.211 270.308 114.157 270.047 114.157C269.788 114.157 269.561 114.211 269.364 114.32C269.17 114.429 269.007 114.578 268.874 114.769C268.745 114.956 268.648 115.171 268.584 115.416C268.519 115.657 268.487 115.914 268.487 116.186ZM276.244 113.484V114.208H273.261V113.484H276.244ZM274.271 112.143H275.214V117.634C275.214 117.821 275.243 117.962 275.301 118.057C275.358 118.152 275.433 118.215 275.525 118.245C275.617 118.276 275.715 118.291 275.821 118.291C275.899 118.291 275.98 118.285 276.065 118.271C276.154 118.254 276.22 118.24 276.264 118.23L276.269 119C276.194 119.024 276.096 119.046 275.974 119.066C275.855 119.09 275.71 119.102 275.54 119.102C275.309 119.102 275.097 119.056 274.903 118.964C274.709 118.873 274.555 118.72 274.439 118.505C274.327 118.288 274.271 117.996 274.271 117.629V112.143Z" fill="#49454F"/>
<path d="M157.376 111.577L159.303 115.304L161.235 111.577H162.351L159.792 116.227V119H158.808V116.227L156.249 111.577H157.376ZM166.519 117.726V113.484H167.467V119H166.565L166.519 117.726ZM166.698 116.563L167.09 116.553C167.09 116.92 167.051 117.26 166.973 117.573C166.898 117.882 166.776 118.15 166.606 118.378C166.436 118.606 166.213 118.784 165.938 118.913C165.663 119.039 165.328 119.102 164.934 119.102C164.665 119.102 164.419 119.063 164.194 118.985C163.974 118.907 163.783 118.786 163.623 118.623C163.464 118.46 163.34 118.247 163.251 117.986C163.166 117.724 163.124 117.409 163.124 117.042V113.484H164.067V117.053C164.067 117.301 164.094 117.506 164.149 117.669C164.206 117.829 164.283 117.957 164.378 118.052C164.477 118.144 164.585 118.208 164.704 118.245C164.827 118.283 164.952 118.302 165.082 118.302C165.483 118.302 165.8 118.225 166.035 118.072C166.269 117.916 166.438 117.707 166.54 117.445C166.645 117.18 166.698 116.886 166.698 116.563ZM172.303 117.537C172.303 117.401 172.273 117.275 172.211 117.16C172.154 117.041 172.033 116.934 171.849 116.838C171.669 116.74 171.397 116.655 171.034 116.584C170.728 116.519 170.451 116.443 170.203 116.354C169.958 116.266 169.749 116.159 169.576 116.033C169.406 115.907 169.275 115.759 169.183 115.589C169.091 115.42 169.046 115.221 169.046 114.993C169.046 114.775 169.093 114.57 169.188 114.376C169.287 114.182 169.425 114.011 169.601 113.861C169.781 113.712 169.997 113.594 170.249 113.509C170.5 113.425 170.781 113.382 171.09 113.382C171.532 113.382 171.909 113.46 172.222 113.617C172.534 113.773 172.774 113.982 172.94 114.244C173.107 114.502 173.19 114.789 173.19 115.105H172.247C172.247 114.952 172.201 114.804 172.109 114.662C172.021 114.515 171.89 114.395 171.717 114.3C171.547 114.204 171.338 114.157 171.09 114.157C170.828 114.157 170.616 114.198 170.453 114.279C170.293 114.357 170.176 114.458 170.101 114.58C170.029 114.702 169.994 114.832 169.994 114.967C169.994 115.069 170.011 115.161 170.045 115.243C170.082 115.321 170.147 115.394 170.238 115.462C170.33 115.527 170.459 115.588 170.626 115.646C170.792 115.703 171.005 115.761 171.263 115.819C171.715 115.921 172.087 116.043 172.38 116.186C172.672 116.329 172.889 116.504 173.032 116.711C173.175 116.918 173.246 117.17 173.246 117.466C173.246 117.707 173.195 117.928 173.093 118.128C172.995 118.329 172.85 118.502 172.66 118.648C172.473 118.791 172.249 118.903 171.987 118.985C171.729 119.063 171.438 119.102 171.115 119.102C170.629 119.102 170.218 119.015 169.882 118.842C169.545 118.669 169.29 118.444 169.117 118.169C168.944 117.894 168.857 117.603 168.857 117.297H169.805C169.819 117.556 169.894 117.761 170.029 117.914C170.165 118.064 170.332 118.171 170.529 118.235C170.726 118.296 170.922 118.327 171.115 118.327C171.374 118.327 171.589 118.293 171.763 118.225C171.94 118.157 172.074 118.064 172.166 117.945C172.257 117.826 172.303 117.69 172.303 117.537ZM178.046 117.726V113.484H178.995V119H178.092L178.046 117.726ZM178.225 116.563L178.617 116.553C178.617 116.92 178.578 117.26 178.5 117.573C178.425 117.882 178.303 118.15 178.133 118.378C177.963 118.606 177.741 118.784 177.465 118.913C177.19 119.039 176.855 119.102 176.461 119.102C176.192 119.102 175.946 119.063 175.722 118.985C175.501 118.907 175.31 118.786 175.151 118.623C174.991 118.46 174.867 118.247 174.779 117.986C174.694 117.724 174.651 117.409 174.651 117.042V113.484H175.594V117.053C175.594 117.301 175.621 117.506 175.676 117.669C175.734 117.829 175.81 117.957 175.905 118.052C176.004 118.144 176.113 118.208 176.232 118.245C176.354 118.283 176.48 118.302 176.609 118.302C177.01 118.302 177.328 118.225 177.562 118.072C177.797 117.916 177.965 117.707 178.067 117.445C178.172 117.18 178.225 116.886 178.225 116.563ZM181.562 114.544V121.121H180.614V113.484H181.48L181.562 114.544ZM185.278 116.196V116.303C185.278 116.704 185.231 117.076 185.136 117.42C185.04 117.759 184.901 118.055 184.717 118.307C184.537 118.558 184.315 118.754 184.05 118.893C183.785 119.032 183.48 119.102 183.137 119.102C182.787 119.102 182.478 119.044 182.209 118.929C181.941 118.813 181.713 118.645 181.526 118.424C181.339 118.203 181.19 117.938 181.078 117.629C180.969 117.319 180.894 116.971 180.853 116.584V116.013C180.894 115.605 180.97 115.239 181.083 114.917C181.195 114.594 181.343 114.318 181.526 114.091C181.713 113.86 181.939 113.684 182.204 113.566C182.469 113.443 182.775 113.382 183.122 113.382C183.468 113.382 183.776 113.45 184.045 113.586C184.313 113.718 184.539 113.909 184.723 114.157C184.906 114.405 185.044 114.702 185.136 115.049C185.231 115.392 185.278 115.775 185.278 116.196ZM184.33 116.303V116.196C184.33 115.921 184.301 115.663 184.243 115.421C184.186 115.177 184.096 114.962 183.973 114.779C183.854 114.592 183.701 114.446 183.514 114.34C183.327 114.232 183.105 114.177 182.847 114.177C182.609 114.177 182.401 114.218 182.225 114.3C182.051 114.381 181.903 114.492 181.781 114.631C181.659 114.767 181.558 114.923 181.48 115.1C181.406 115.273 181.349 115.454 181.312 115.64V116.961C181.38 117.199 181.475 117.423 181.598 117.634C181.72 117.841 181.883 118.009 182.087 118.138C182.291 118.264 182.547 118.327 182.857 118.327C183.112 118.327 183.331 118.274 183.514 118.169C183.701 118.06 183.854 117.912 183.973 117.726C184.096 117.539 184.186 117.324 184.243 117.083C184.301 116.838 184.33 116.578 184.33 116.303ZM186.418 116.303V116.186C186.418 115.788 186.476 115.42 186.591 115.08C186.707 114.736 186.873 114.439 187.091 114.188C187.308 113.933 187.572 113.735 187.881 113.596C188.19 113.453 188.537 113.382 188.921 113.382C189.309 113.382 189.657 113.453 189.966 113.596C190.279 113.735 190.544 113.933 190.762 114.188C190.982 114.439 191.151 114.736 191.266 115.08C191.382 115.42 191.44 115.788 191.44 116.186V116.303C191.44 116.701 191.382 117.07 191.266 117.409C191.151 117.749 190.982 118.047 190.762 118.302C190.544 118.553 190.281 118.75 189.971 118.893C189.665 119.032 189.319 119.102 188.931 119.102C188.544 119.102 188.196 119.032 187.886 118.893C187.577 118.75 187.312 118.553 187.091 118.302C186.873 118.047 186.707 117.749 186.591 117.409C186.476 117.07 186.418 116.701 186.418 116.303ZM187.361 116.186V116.303C187.361 116.578 187.393 116.838 187.458 117.083C187.523 117.324 187.619 117.539 187.749 117.726C187.881 117.912 188.046 118.06 188.243 118.169C188.44 118.274 188.67 118.327 188.931 118.327C189.19 118.327 189.416 118.274 189.609 118.169C189.806 118.06 189.97 117.912 190.099 117.726C190.228 117.539 190.325 117.324 190.389 117.083C190.457 116.838 190.491 116.578 190.491 116.303V116.186C190.491 115.914 190.457 115.657 190.389 115.416C190.325 115.171 190.226 114.956 190.094 114.769C189.965 114.578 189.801 114.429 189.604 114.32C189.411 114.211 189.183 114.157 188.921 114.157C188.663 114.157 188.435 114.211 188.238 114.32C188.044 114.429 187.881 114.578 187.749 114.769C187.619 114.956 187.523 115.171 187.458 115.416C187.393 115.657 187.361 115.914 187.361 116.186ZM194.404 118.149L195.913 113.484H196.877L194.894 119H194.262L194.404 118.149ZM193.145 113.484L194.7 118.174L194.807 119H194.175L192.177 113.484H193.145ZM197.436 118.5C197.436 118.341 197.485 118.206 197.583 118.098C197.685 117.986 197.831 117.929 198.022 117.929C198.212 117.929 198.357 117.986 198.455 118.098C198.557 118.206 198.608 118.341 198.608 118.5C198.608 118.657 198.557 118.789 198.455 118.898C198.357 119.007 198.212 119.061 198.022 119.061C197.831 119.061 197.685 119.007 197.583 118.898C197.485 118.789 197.436 118.657 197.436 118.5ZM203.148 115.528H201.267L201.257 114.738H202.965C203.247 114.738 203.493 114.691 203.704 114.595C203.915 114.5 204.078 114.364 204.193 114.188C204.312 114.007 204.372 113.793 204.372 113.545C204.372 113.273 204.319 113.052 204.214 112.882C204.112 112.709 203.954 112.583 203.74 112.505C203.529 112.424 203.26 112.383 202.934 112.383H201.486V119H200.502V111.577H202.934C203.315 111.577 203.655 111.616 203.954 111.695C204.253 111.769 204.506 111.888 204.713 112.051C204.924 112.211 205.084 112.415 205.192 112.663C205.301 112.911 205.356 113.209 205.356 113.555C205.356 113.861 205.277 114.138 205.121 114.386C204.965 114.631 204.747 114.832 204.469 114.988C204.193 115.144 203.87 115.244 203.5 115.289L203.148 115.528ZM203.102 119H200.88L201.435 118.2H203.102C203.415 118.2 203.68 118.145 203.898 118.036C204.118 117.928 204.287 117.775 204.402 117.578C204.518 117.377 204.576 117.141 204.576 116.869C204.576 116.594 204.526 116.356 204.428 116.155C204.329 115.955 204.175 115.8 203.964 115.691C203.753 115.583 203.481 115.528 203.148 115.528H201.746L201.756 114.738H203.673L203.882 115.024C204.239 115.054 204.542 115.156 204.79 115.329C205.038 115.499 205.226 115.717 205.356 115.982C205.488 116.247 205.554 116.539 205.554 116.859C205.554 117.321 205.452 117.712 205.249 118.031C205.048 118.347 204.764 118.589 204.397 118.755C204.03 118.918 203.598 119 203.102 119ZM207.066 118.5C207.066 118.341 207.116 118.206 207.214 118.098C207.316 117.986 207.462 117.929 207.653 117.929C207.843 117.929 207.987 117.986 208.086 118.098C208.188 118.206 208.239 118.341 208.239 118.5C208.239 118.657 208.188 118.789 208.086 118.898C207.987 119.007 207.843 119.061 207.653 119.061C207.462 119.061 207.316 119.007 207.214 118.898C207.116 118.789 207.066 118.657 207.066 118.5ZM211.117 111.577V119H210.133V111.577H211.117ZM215.598 111.577L212.514 115.039L210.781 116.838L210.617 115.788L211.923 114.351L214.415 111.577H215.598ZM214.65 119L211.902 115.38L212.488 114.6L215.822 119H214.65Z" fill="#484649"/>
<path d="M57.7164 58.5365V66H56.7733V59.7142L54.8718 60.4075V59.5561L57.5686 58.5365H57.7164ZM62.0526 61.8247H62.7256C63.0552 61.8247 63.3271 61.7704 63.5412 61.6616C63.7588 61.5495 63.9202 61.3982 64.0256 61.2079C64.1343 61.0142 64.1887 60.7967 64.1887 60.5553C64.1887 60.2699 64.1411 60.0303 64.0459 59.8365C63.9508 59.6428 63.808 59.4967 63.6177 59.3981C63.4274 59.2995 63.1861 59.2503 62.8938 59.2503C62.6287 59.2503 62.3942 59.3029 62.1903 59.4083C61.9898 59.5103 61.8317 59.6564 61.7162 59.8467C61.604 60.0371 61.5479 60.2614 61.5479 60.5197H60.6048C60.6048 60.1424 60.7 59.7991 60.8903 59.4899C61.0806 59.1806 61.3474 58.9342 61.6907 58.7507C62.0373 58.5671 62.4384 58.4754 62.8938 58.4754C63.3424 58.4754 63.735 58.5552 64.0714 58.715C64.4079 58.8713 64.6696 59.1058 64.8565 59.4185C65.0435 59.7278 65.1369 60.1135 65.1369 60.5757C65.1369 60.7627 65.0927 60.9632 65.0044 61.1773C64.9194 61.388 64.7852 61.5851 64.6016 61.7687C64.4215 61.9522 64.187 62.1034 63.8981 62.2224C63.6092 62.3379 63.2626 62.3957 62.8581 62.3957H62.0526V61.8247ZM62.0526 62.5996V62.0338H62.8581C63.3305 62.0338 63.7214 62.0898 64.0307 62.202C64.3399 62.3142 64.5829 62.4637 64.7597 62.6506C64.9398 62.8375 65.0655 63.0432 65.1369 63.2675C65.2117 63.4884 65.2491 63.7093 65.2491 63.9302C65.2491 64.2769 65.1896 64.5845 65.0706 64.853C64.9551 65.1214 64.7903 65.3492 64.5761 65.5361C64.3654 65.723 64.1173 65.8641 63.8318 65.9592C63.5463 66.0544 63.2354 66.102 62.8989 66.102C62.576 66.102 62.2718 66.0561 61.9864 65.9643C61.7043 65.8726 61.4545 65.74 61.237 65.5667C61.0194 65.3899 60.8495 65.1741 60.7272 64.9192C60.6048 64.6609 60.5436 64.3669 60.5436 64.0373H61.4868C61.4868 64.2956 61.5428 64.5216 61.655 64.7153C61.7705 64.909 61.9337 65.0603 62.1444 65.169C62.3585 65.2744 62.61 65.3271 62.8989 65.3271C63.1878 65.3271 63.4359 65.2778 63.6432 65.1792C63.8539 65.0773 64.0154 64.9243 64.1275 64.7204C64.2431 64.5165 64.3008 64.2599 64.3008 63.9506C64.3008 63.6413 64.2363 63.3881 64.1071 63.191C63.978 62.9905 63.7944 62.8426 63.5565 62.7475C63.322 62.6489 63.045 62.5996 62.7256 62.5996H62.0526ZM66.7967 65.5004C66.7967 65.3407 66.846 65.2064 66.9445 65.0977C67.0465 64.9855 67.1926 64.9294 67.3829 64.9294C67.5733 64.9294 67.7177 64.9855 67.8163 65.0977C67.9182 65.2064 67.9692 65.3407 67.9692 65.5004C67.9692 65.6567 67.9182 65.7893 67.8163 65.898C67.7177 66.0068 67.5733 66.0612 67.3829 66.0612C67.1926 66.0612 67.0465 66.0068 66.9445 65.898C66.846 65.7893 66.7967 65.6567 66.7967 65.5004ZM66.8018 60.9989C66.8018 60.8391 66.8511 60.7049 66.9496 60.5961C67.0516 60.484 67.1977 60.4279 67.388 60.4279C67.5784 60.4279 67.7228 60.484 67.8214 60.5961C67.9233 60.7049 67.9743 60.8391 67.9743 60.9989C67.9743 61.1552 67.9233 61.2878 67.8214 61.3965C67.7228 61.5053 67.5784 61.5597 67.388 61.5597C67.1977 61.5597 67.0516 61.5053 66.9496 61.3965C66.8511 61.2878 66.8018 61.1552 66.8018 60.9989ZM70.827 61.8247H71.4999C71.8296 61.8247 72.1015 61.7704 72.3156 61.6616C72.5331 61.5495 72.6946 61.3982 72.7999 61.2079C72.9087 61.0142 72.9631 60.7967 72.9631 60.5553C72.9631 60.2699 72.9155 60.0303 72.8203 59.8365C72.7251 59.6428 72.5824 59.4967 72.3921 59.3981C72.2018 59.2995 71.9605 59.2503 71.6682 59.2503C71.4031 59.2503 71.1686 59.3029 70.9646 59.4083C70.7641 59.5103 70.6061 59.6564 70.4905 59.8467C70.3784 60.0371 70.3223 60.2614 70.3223 60.5197H69.3792C69.3792 60.1424 69.4743 59.7991 69.6647 59.4899C69.855 59.1806 70.1218 58.9342 70.465 58.7507C70.8117 58.5671 71.2127 58.4754 71.6682 58.4754C72.1168 58.4754 72.5093 58.5552 72.8458 58.715C73.1823 58.8713 73.444 59.1058 73.6309 59.4185C73.8178 59.7278 73.9113 60.1135 73.9113 60.5757C73.9113 60.7627 73.8671 60.9632 73.7787 61.1773C73.6938 61.388 73.5595 61.5851 73.376 61.7687C73.1959 61.9522 72.9614 62.1034 72.6725 62.2224C72.3836 62.3379 72.0369 62.3957 71.6325 62.3957H70.827V61.8247ZM70.827 62.5996V62.0338H71.6325C72.1049 62.0338 72.4957 62.0898 72.805 62.202C73.1143 62.3142 73.3573 62.4637 73.534 62.6506C73.7142 62.8375 73.8399 63.0432 73.9113 63.2675C73.9861 63.4884 74.0234 63.7093 74.0234 63.9302C74.0234 64.2769 73.964 64.5845 73.845 64.853C73.7295 65.1214 73.5646 65.3492 73.3505 65.5361C73.1398 65.723 72.8917 65.8641 72.6062 65.9592C72.3207 66.0544 72.0097 66.102 71.6733 66.102C71.3504 66.102 71.0462 66.0561 70.7607 65.9643C70.4786 65.8726 70.2288 65.74 70.0113 65.5667C69.7938 65.3899 69.6239 65.1741 69.5015 64.9192C69.3792 64.6609 69.318 64.3669 69.318 64.0373H70.2611C70.2611 64.2956 70.3172 64.5216 70.4294 64.7153C70.5449 64.909 70.708 65.0603 70.9188 65.169C71.1329 65.2744 71.3844 65.3271 71.6733 65.3271C71.9622 65.3271 72.2103 65.2778 72.4176 65.1792C72.6283 65.0773 72.7897 64.9243 72.9019 64.7204C73.0174 64.5165 73.0752 64.2599 73.0752 63.9506C73.0752 63.6413 73.0106 63.3881 72.8815 63.191C72.7523 62.9905 72.5688 62.8426 72.3309 62.7475C72.0964 62.6489 71.8194 62.5996 71.4999 62.5996H70.827ZM80.1694 61.6973V62.8291C80.1694 63.4374 80.115 63.9506 80.0063 64.3686C79.8975 64.7867 79.7412 65.1231 79.5373 65.378C79.3334 65.6329 79.087 65.8182 78.7981 65.9337C78.5126 66.0459 78.1897 66.102 77.8294 66.102C77.544 66.102 77.2806 66.0663 77.0393 65.9949C76.798 65.9235 76.5804 65.8097 76.3867 65.6533C76.1964 65.4936 76.0333 65.2863 75.8973 65.0314C75.7614 64.7765 75.6577 64.4672 75.5863 64.1035C75.515 63.7399 75.4793 63.3151 75.4793 62.8291V61.6973C75.4793 61.0889 75.5337 60.5791 75.6424 60.1679C75.7546 59.7567 75.9126 59.427 76.1165 59.1789C76.3204 58.9274 76.5651 58.7473 76.8506 58.6385C77.1395 58.5297 77.4624 58.4754 77.8193 58.4754C78.1081 58.4754 78.3732 58.5111 78.6145 58.5824C78.8592 58.6504 79.0768 58.7609 79.2671 58.9138C79.4574 59.0633 79.6188 59.2639 79.7514 59.5154C79.8873 59.7635 79.991 60.0676 80.0624 60.4279C80.1337 60.7882 80.1694 61.2113 80.1694 61.6973ZM79.2212 62.982V61.5393C79.2212 61.2062 79.2008 60.9139 79.16 60.6624C79.1226 60.4075 79.0666 60.19 78.9918 60.0099C78.917 59.8297 78.8219 59.6836 78.7063 59.5714C78.5941 59.4593 78.4633 59.3777 78.3138 59.3267C78.1676 59.2724 78.0028 59.2452 77.8193 59.2452C77.5949 59.2452 77.3961 59.2877 77.2228 59.3726C77.0495 59.4542 76.9033 59.585 76.7844 59.7652C76.6688 59.9453 76.5804 60.1815 76.5193 60.4738C76.4581 60.7661 76.4275 61.1212 76.4275 61.5393V62.982C76.4275 63.3151 76.4462 63.609 76.4836 63.8639C76.5244 64.1188 76.5838 64.3398 76.662 64.5267C76.7402 64.7102 76.8353 64.8614 76.9475 64.9804C77.0597 65.0994 77.1888 65.1877 77.3349 65.2455C77.4845 65.2999 77.6493 65.3271 77.8294 65.3271C78.0606 65.3271 78.2628 65.2829 78.4361 65.1945C78.6094 65.1062 78.7539 64.9685 78.8694 64.7816C78.9884 64.5913 79.0768 64.3483 79.1345 64.0526C79.1923 63.7535 79.2212 63.3966 79.2212 62.982Z" fill="white"/>
<path d="M57.7164 110.537V118H56.7733V111.714L54.8718 112.408V111.556L57.5686 110.537H57.7164ZM62.0526 113.825H62.7256C63.0552 113.825 63.3271 113.77 63.5412 113.662C63.7588 113.549 63.9202 113.398 64.0256 113.208C64.1343 113.014 64.1887 112.797 64.1887 112.555C64.1887 112.27 64.1411 112.03 64.0459 111.837C63.9508 111.643 63.808 111.497 63.6177 111.398C63.4274 111.3 63.1861 111.25 62.8938 111.25C62.6287 111.25 62.3942 111.303 62.1903 111.408C61.9898 111.51 61.8317 111.656 61.7162 111.847C61.604 112.037 61.5479 112.261 61.5479 112.52H60.6048C60.6048 112.142 60.7 111.799 60.8903 111.49C61.0806 111.181 61.3474 110.934 61.6907 110.751C62.0373 110.567 62.4384 110.475 62.8938 110.475C63.3424 110.475 63.735 110.555 64.0714 110.715C64.4079 110.871 64.6696 111.106 64.8565 111.418C65.0435 111.728 65.1369 112.114 65.1369 112.576C65.1369 112.763 65.0927 112.963 65.0044 113.177C64.9194 113.388 64.7852 113.585 64.6016 113.769C64.4215 113.952 64.187 114.103 63.8981 114.222C63.6092 114.338 63.2626 114.396 62.8581 114.396H62.0526V113.825ZM62.0526 114.6V114.034H62.8581C63.3305 114.034 63.7214 114.09 64.0307 114.202C64.3399 114.314 64.5829 114.464 64.7597 114.651C64.9398 114.838 65.0655 115.043 65.1369 115.267C65.2117 115.488 65.2491 115.709 65.2491 115.93C65.2491 116.277 65.1896 116.584 65.0706 116.853C64.9551 117.121 64.7903 117.349 64.5761 117.536C64.3654 117.723 64.1173 117.864 63.8318 117.959C63.5463 118.054 63.2354 118.102 62.8989 118.102C62.576 118.102 62.2718 118.056 61.9864 117.964C61.7043 117.873 61.4545 117.74 61.237 117.567C61.0194 117.39 60.8495 117.174 60.7272 116.919C60.6048 116.661 60.5436 116.367 60.5436 116.037H61.4868C61.4868 116.296 61.5428 116.522 61.655 116.715C61.7705 116.909 61.9337 117.06 62.1444 117.169C62.3585 117.274 62.61 117.327 62.8989 117.327C63.1878 117.327 63.4359 117.278 63.6432 117.179C63.8539 117.077 64.0154 116.924 64.1275 116.72C64.2431 116.516 64.3008 116.26 64.3008 115.951C64.3008 115.641 64.2363 115.388 64.1071 115.191C63.978 114.99 63.7944 114.843 63.5565 114.747C63.322 114.649 63.045 114.6 62.7256 114.6H62.0526ZM66.7967 117.5C66.7967 117.341 66.846 117.206 66.9445 117.098C67.0465 116.986 67.1926 116.929 67.3829 116.929C67.5733 116.929 67.7177 116.986 67.8163 117.098C67.9182 117.206 67.9692 117.341 67.9692 117.5C67.9692 117.657 67.9182 117.789 67.8163 117.898C67.7177 118.007 67.5733 118.061 67.3829 118.061C67.1926 118.061 67.0465 118.007 66.9445 117.898C66.846 117.789 66.7967 117.657 66.7967 117.5ZM66.8018 112.999C66.8018 112.839 66.8511 112.705 66.9496 112.596C67.0516 112.484 67.1977 112.428 67.388 112.428C67.5784 112.428 67.7228 112.484 67.8214 112.596C67.9233 112.705 67.9743 112.839 67.9743 112.999C67.9743 113.155 67.9233 113.288 67.8214 113.397C67.7228 113.505 67.5784 113.56 67.388 113.56C67.1977 113.56 67.0516 113.505 66.9496 113.397C66.8511 113.288 66.8018 113.155 66.8018 112.999ZM70.827 113.825H71.4999C71.8296 113.825 72.1015 113.77 72.3156 113.662C72.5331 113.549 72.6946 113.398 72.7999 113.208C72.9087 113.014 72.9631 112.797 72.9631 112.555C72.9631 112.27 72.9155 112.03 72.8203 111.837C72.7251 111.643 72.5824 111.497 72.3921 111.398C72.2018 111.3 71.9605 111.25 71.6682 111.25C71.4031 111.25 71.1686 111.303 70.9646 111.408C70.7641 111.51 70.6061 111.656 70.4905 111.847C70.3784 112.037 70.3223 112.261 70.3223 112.52H69.3792C69.3792 112.142 69.4743 111.799 69.6647 111.49C69.855 111.181 70.1218 110.934 70.465 110.751C70.8117 110.567 71.2127 110.475 71.6682 110.475C72.1168 110.475 72.5093 110.555 72.8458 110.715C73.1823 110.871 73.444 111.106 73.6309 111.418C73.8178 111.728 73.9113 112.114 73.9113 112.576C73.9113 112.763 73.8671 112.963 73.7787 113.177C73.6938 113.388 73.5595 113.585 73.376 113.769C73.1959 113.952 72.9614 114.103 72.6725 114.222C72.3836 114.338 72.0369 114.396 71.6325 114.396H70.827V113.825ZM70.827 114.6V114.034H71.6325C72.1049 114.034 72.4957 114.09 72.805 114.202C73.1143 114.314 73.3573 114.464 73.534 114.651C73.7142 114.838 73.8399 115.043 73.9113 115.267C73.9861 115.488 74.0234 115.709 74.0234 115.93C74.0234 116.277 73.964 116.584 73.845 116.853C73.7295 117.121 73.5646 117.349 73.3505 117.536C73.1398 117.723 72.8917 117.864 72.6062 117.959C72.3207 118.054 72.0097 118.102 71.6733 118.102C71.3504 118.102 71.0462 118.056 70.7607 117.964C70.4786 117.873 70.2288 117.74 70.0113 117.567C69.7938 117.39 69.6239 117.174 69.5015 116.919C69.3792 116.661 69.318 116.367 69.318 116.037H70.2611C70.2611 116.296 70.3172 116.522 70.4294 116.715C70.5449 116.909 70.708 117.06 70.9188 117.169C71.1329 117.274 71.3844 117.327 71.6733 117.327C71.9622 117.327 72.2103 117.278 72.4176 117.179C72.6283 117.077 72.7897 116.924 72.9019 116.72C73.0174 116.516 73.0752 116.26 73.0752 115.951C73.0752 115.641 73.0106 115.388 72.8815 115.191C72.7523 114.99 72.5688 114.843 72.3309 114.747C72.0964 114.649 71.8194 114.6 71.4999 114.6H70.827ZM80.1694 113.697V114.829C80.1694 115.437 80.115 115.951 80.0063 116.369C79.8975 116.787 79.7412 117.123 79.5373 117.378C79.3334 117.633 79.087 117.818 78.7981 117.934C78.5126 118.046 78.1897 118.102 77.8294 118.102C77.544 118.102 77.2806 118.066 77.0393 117.995C76.798 117.924 76.5804 117.81 76.3867 117.653C76.1964 117.494 76.0333 117.286 75.8973 117.031C75.7614 116.776 75.6577 116.467 75.5863 116.104C75.515 115.74 75.4793 115.315 75.4793 114.829V113.697C75.4793 113.089 75.5337 112.579 75.6424 112.168C75.7546 111.757 75.9126 111.427 76.1165 111.179C76.3204 110.927 76.5651 110.747 76.8506 110.639C77.1395 110.53 77.4624 110.475 77.8193 110.475C78.1081 110.475 78.3732 110.511 78.6145 110.582C78.8592 110.65 79.0768 110.761 79.2671 110.914C79.4574 111.063 79.6188 111.264 79.7514 111.515C79.8873 111.763 79.991 112.068 80.0624 112.428C80.1337 112.788 80.1694 113.211 80.1694 113.697ZM79.2212 114.982V113.539C79.2212 113.206 79.2008 112.914 79.16 112.662C79.1226 112.408 79.0666 112.19 78.9918 112.01C78.917 111.83 78.8219 111.684 78.7063 111.571C78.5941 111.459 78.4633 111.378 78.3138 111.327C78.1676 111.272 78.0028 111.245 77.8193 111.245C77.5949 111.245 77.3961 111.288 77.2228 111.373C77.0495 111.454 76.9033 111.585 76.7844 111.765C76.6688 111.945 76.5804 112.181 76.5193 112.474C76.4581 112.766 76.4275 113.121 76.4275 113.539V114.982C76.4275 115.315 76.4462 115.609 76.4836 115.864C76.5244 116.119 76.5838 116.34 76.662 116.527C76.7402 116.71 76.8353 116.861 76.9475 116.98C77.0597 117.099 77.1888 117.188 77.3349 117.245C77.4845 117.3 77.6493 117.327 77.8294 117.327C78.0606 117.327 78.2628 117.283 78.4361 117.195C78.6094 117.106 78.7539 116.969 78.8694 116.782C78.9884 116.591 79.0768 116.348 79.1345 116.053C79.1923 115.753 79.2212 115.397 79.2212 114.982Z" fill="white"/>
<rect x="45.3729" y="45.3729" width="282.254" height="86.2542" rx="8.57627" stroke="#EEEFF1" stroke-width="0.745763"/>
<rect x="119" y="125" width="1" height="30" fill="#E959D9"/>
<circle cx="119.5" cy="168.5" r="7.5" fill="#F8D22A"/>
<path d="M121.812 168.859V169.523H117.215V169.047L120.064 164.638H120.724L120.016 165.914L118.132 168.859H121.812ZM120.925 164.638V171H120.116V164.638H120.925Z" fill="#1C2023"/>
<rect x="185" y="125" width="1" height="30" fill="#E959D9"/>
<circle cx="185.5" cy="168.5" r="7.5" fill="#F8D22A"/>
<path d="M184.534 167.972L183.888 167.806L184.207 164.638H187.471V165.385H184.893L184.7 167.115C184.817 167.048 184.964 166.986 185.142 166.927C185.322 166.869 185.529 166.84 185.762 166.84C186.056 166.84 186.32 166.891 186.553 166.993C186.786 167.092 186.984 167.235 187.147 167.421C187.313 167.608 187.44 167.832 187.528 168.094C187.615 168.356 187.659 168.649 187.659 168.972C187.659 169.278 187.616 169.559 187.532 169.816C187.45 170.072 187.327 170.296 187.16 170.489C186.994 170.678 186.785 170.825 186.531 170.93C186.281 171.035 185.985 171.087 185.644 171.087C185.388 171.087 185.145 171.052 184.914 170.983C184.687 170.91 184.483 170.8 184.303 170.655C184.125 170.506 183.979 170.323 183.866 170.104C183.755 169.883 183.685 169.624 183.656 169.326H184.425C184.46 169.565 184.53 169.766 184.635 169.929C184.74 170.093 184.877 170.216 185.046 170.301C185.217 170.382 185.417 170.423 185.644 170.423C185.836 170.423 186.007 170.39 186.155 170.323C186.304 170.256 186.429 170.16 186.531 170.034C186.633 169.909 186.71 169.758 186.763 169.58C186.818 169.402 186.846 169.203 186.846 168.981C186.846 168.78 186.818 168.594 186.763 168.422C186.707 168.25 186.624 168.1 186.514 167.972C186.406 167.844 186.273 167.745 186.116 167.675C185.959 167.602 185.778 167.565 185.574 167.565C185.303 167.565 185.098 167.602 184.958 167.675C184.821 167.747 184.68 167.847 184.534 167.972Z" fill="#1C2023"/>
<rect x="254" y="125" width="1" height="30" fill="#E959D9"/>
<circle cx="254.5" cy="168.5" r="7.5" fill="#F8D22A"/>
<path d="M255.614 164.629H255.684V165.315H255.614C255.186 165.315 254.828 165.385 254.539 165.525C254.251 165.662 254.022 165.847 253.853 166.08C253.684 166.31 253.562 166.569 253.486 166.858C253.413 167.146 253.377 167.439 253.377 167.736V168.671C253.377 168.954 253.41 169.204 253.477 169.423C253.544 169.638 253.636 169.82 253.753 169.969C253.869 170.117 254 170.229 254.146 170.305C254.295 170.381 254.449 170.419 254.609 170.419C254.796 170.419 254.962 170.384 255.107 170.314C255.253 170.241 255.375 170.141 255.474 170.012C255.576 169.881 255.654 169.727 255.706 169.549C255.758 169.372 255.785 169.176 255.785 168.964C255.785 168.774 255.761 168.592 255.715 168.418C255.668 168.24 255.597 168.082 255.501 167.946C255.405 167.806 255.284 167.697 255.138 167.618C254.995 167.536 254.825 167.495 254.627 167.495C254.402 167.495 254.193 167.551 253.997 167.662C253.805 167.769 253.646 167.912 253.521 168.09C253.399 168.265 253.329 168.455 253.311 168.662L252.883 168.658C252.924 168.332 253 168.053 253.11 167.823C253.224 167.59 253.364 167.401 253.53 167.255C253.699 167.107 253.887 166.999 254.094 166.932C254.303 166.862 254.525 166.827 254.758 166.827C255.075 166.827 255.349 166.887 255.579 167.006C255.809 167.126 255.999 167.286 256.147 167.487C256.296 167.685 256.405 167.909 256.475 168.16C256.548 168.407 256.584 168.662 256.584 168.924C256.584 169.224 256.542 169.506 256.458 169.768C256.373 170.03 256.246 170.26 256.077 170.458C255.911 170.656 255.706 170.811 255.461 170.921C255.217 171.032 254.933 171.087 254.609 171.087C254.265 171.087 253.965 171.017 253.709 170.878C253.453 170.735 253.24 170.546 253.071 170.31C252.902 170.074 252.775 169.811 252.691 169.523C252.606 169.235 252.564 168.942 252.564 168.645V168.265C252.564 167.816 252.609 167.376 252.7 166.945C252.79 166.514 252.946 166.123 253.167 165.774C253.392 165.424 253.702 165.146 254.098 164.939C254.494 164.732 255 164.629 255.614 164.629Z" fill="#1C2023"/>
<rect x="108" y="21" width="1" height="30" fill="#E959D9"/>
<circle cx="108.5" cy="7.5" r="7.5" fill="#F8D22A"/>
<path d="M109.169 3.60275V10H108.36V4.61216L106.73 5.20644V4.4767L109.042 3.60275H109.169Z" fill="#1C2023"/>
<circle cx="7.5" cy="61.5" r="7.5" fill="#F8D22A"/>
<path d="M9.69743 63.3358V64H5.5331V63.4188L7.61745 61.0985C7.87381 60.813 8.0719 60.5712 8.21173 60.3731C8.35448 60.1721 8.45352 59.993 8.50887 59.8357C8.56713 59.6755 8.59627 59.5123 8.59627 59.3463C8.59627 59.1365 8.55257 58.9472 8.46517 58.7782C8.38069 58.6063 8.25543 58.4694 8.08938 58.3675C7.92333 58.2655 7.72233 58.2145 7.48636 58.2145C7.20379 58.2145 6.96782 58.2699 6.77847 58.3806C6.59203 58.4883 6.4522 58.6398 6.35898 58.835C6.26576 59.0302 6.21915 59.2545 6.21915 59.5079H5.41075C5.41075 59.1496 5.48941 58.8219 5.64672 58.5248C5.80403 58.2276 6.03708 57.9917 6.34587 57.8169C6.65466 57.6392 7.03483 57.5503 7.48636 57.5503C7.88837 57.5503 8.23212 57.6217 8.51761 57.7644C8.8031 57.9043 9.02158 58.1024 9.17307 58.3587C9.32746 58.6122 9.40466 58.9093 9.40466 59.2501C9.40466 59.4366 9.37262 59.6259 9.30853 59.8182C9.24735 60.0075 9.16141 60.1969 9.05071 60.3863C8.94293 60.5756 8.81621 60.762 8.67055 60.9456C8.52781 61.1291 8.37487 61.3097 8.21173 61.4874L6.50755 63.3358H9.69743Z" fill="#1C2023"/>
<rect x="21" y="61" width="30" height="1" fill="#E959D9"/>
<circle cx="7.5" cy="93.5" r="7.5" fill="#F8D22A"/>
<path d="M6.6916 92.4212H7.26841C7.55098 92.4212 7.78403 92.3746 7.96756 92.2814C8.154 92.1852 8.29237 92.0556 8.38268 91.8925C8.4759 91.7264 8.52251 91.54 8.52251 91.3332C8.52251 91.0885 8.48173 90.8831 8.40016 90.717C8.31859 90.551 8.19624 90.4257 8.0331 90.3412C7.86997 90.2568 7.66314 90.2145 7.41261 90.2145C7.18538 90.2145 6.98438 90.2597 6.80959 90.35C6.63771 90.4374 6.50225 90.5626 6.4032 90.7258C6.30707 90.8889 6.259 91.0812 6.259 91.3026H5.45061C5.45061 90.9792 5.53218 90.685 5.69531 90.4199C5.85845 90.1548 6.08713 89.9436 6.38136 89.7863C6.6785 89.629 7.02225 89.5503 7.41261 89.5503C7.79714 89.5503 8.13361 89.6188 8.42201 89.7557C8.71041 89.8897 8.93472 90.0907 9.09494 90.3587C9.25516 90.6238 9.33528 90.9544 9.33528 91.3506C9.33528 91.5109 9.2974 91.6827 9.22166 91.8663C9.14883 92.0469 9.03377 92.2158 8.87646 92.3731C8.72206 92.5305 8.52105 92.6601 8.27344 92.762C8.02582 92.8611 7.72868 92.9106 7.38202 92.9106H6.6916V92.4212ZM6.6916 93.0854V92.6004H7.38202C7.78694 92.6004 8.12195 92.6484 8.38705 92.7446C8.65215 92.8407 8.86043 92.9689 9.01192 93.1291C9.16631 93.2893 9.2741 93.4656 9.33528 93.6578C9.39936 93.8472 9.43141 94.0365 9.43141 94.2259C9.43141 94.523 9.38043 94.7867 9.27847 95.0168C9.17942 95.247 9.03814 95.4421 8.85461 95.6024C8.67399 95.7626 8.46133 95.8835 8.21663 95.965C7.97193 96.0466 7.70538 96.0874 7.41698 96.0874C7.14023 96.0874 6.8795 96.0481 6.6348 95.9694C6.39301 95.8908 6.17889 95.7771 5.99245 95.6286C5.80601 95.4771 5.66036 95.2921 5.55548 95.0736C5.45061 94.8522 5.39817 94.6002 5.39817 94.3177H6.20657C6.20657 94.5391 6.25463 94.7328 6.35077 94.8988C6.44981 95.0649 6.58965 95.1945 6.77026 95.2877C6.95379 95.378 7.16936 95.4232 7.41698 95.4232C7.66459 95.4232 7.87725 95.381 8.05495 95.2965C8.23557 95.2091 8.37394 95.078 8.47007 94.9032C8.56912 94.7284 8.61864 94.5085 8.61864 94.2434C8.61864 93.9783 8.56329 93.7613 8.4526 93.5923C8.3419 93.4204 8.18459 93.2937 7.98067 93.2121C7.77966 93.1276 7.54224 93.0854 7.26841 93.0854H6.6916Z" fill="#1C2023"/>
<rect x="21" y="93" width="30" height="1" fill="#E959D9"/>
</svg>
