<svg width="300" height="308" viewBox="0 0 300 308" fill="none" xmlns="http://www.w3.org/2000/svg">
<path d="M216 72.9547H214.316V26.7448C214.316 19.6517 211.5 12.849 206.487 7.83338C201.474 2.81775 194.675 3.48872e-09 187.585 3.48872e-09H89.7315C86.2212 -5.67228e-05 82.7451 0.691663 79.502 2.03566C76.2588 3.37967 73.3119 5.34963 70.8297 7.83308C68.3474 10.3165 66.3784 13.2648 65.0349 16.5096C63.6915 19.7544 63.0001 23.2322 63 26.7444V280.255C63 287.348 65.8163 294.151 70.8294 299.167C75.8424 304.182 82.6416 307 89.7311 307H187.584C194.673 307 201.473 304.182 206.486 299.167C211.499 294.151 214.315 287.348 214.315 280.255V105.848H215.999L216 72.9547Z" fill="#3F3D56"/>
<path d="M209 25.3045V282.695C208.999 288.079 206.855 293.243 203.038 297.05C199.222 300.858 194.046 302.998 188.648 303H88.3656C82.9656 303.001 77.7865 300.862 73.9673 297.054C70.1481 293.246 68.0016 288.081 68 282.695V25.3045C68.0016 19.9184 70.148 14.7535 73.967 10.9458C77.786 7.13804 82.965 4.99931 88.3647 5H100.53C99.9322 6.46518 99.7049 8.05427 99.8675 9.62762C100.03 11.201 100.578 12.7104 101.462 14.0232C102.346 15.336 103.541 16.4121 104.94 17.1567C106.339 17.9014 107.899 18.2919 109.485 18.2939H166.658C168.243 18.2919 169.804 17.9014 171.203 17.1567C172.602 16.4121 173.796 15.336 174.681 14.0232C175.565 12.7104 176.113 11.201 176.275 9.62762C176.438 8.05427 176.211 6.46518 175.613 5H188.644C194.042 5.00092 199.218 7.1399 203.035 10.9467C206.853 14.7535 208.998 19.9165 209 25.3006V25.3045Z" fill="white"/>
<path d="M184.357 173H95.6428C95.2072 172.999 94.7896 172.828 94.4817 172.523C94.1737 172.219 94.0005 171.806 94 171.376V149.624C94.0006 149.193 94.1738 148.781 94.4818 148.476C94.7897 148.172 95.2072 148.001 95.6428 148H184.357C184.793 148.001 185.21 148.172 185.518 148.476C185.826 148.781 185.999 149.193 186 149.624V171.376C185.999 171.807 185.826 172.219 185.518 172.524C185.21 172.828 184.793 172.999 184.357 173V173ZM95.6428 148.649C95.3814 148.65 95.1308 148.752 94.9459 148.935C94.7611 149.118 94.6572 149.365 94.6569 149.624V171.376C94.6572 171.635 94.7611 171.882 94.9459 172.065C95.1308 172.248 95.3814 172.35 95.6428 172.351H184.357C184.619 172.35 184.869 172.248 185.054 172.065C185.239 171.882 185.343 171.635 185.343 171.376V149.624C185.343 149.365 185.239 149.118 185.054 148.935C184.869 148.752 184.619 148.65 184.357 148.649H95.6428Z" fill="#E6E6E6"/>
<path d="M123.159 156C122.852 156 122.557 156.105 122.339 156.293C122.122 156.48 122 156.735 122 157C122 157.265 122.122 157.519 122.339 157.706C122.557 157.894 122.852 157.999 123.159 157.999H177.796C178.104 158.009 178.403 157.914 178.628 157.734C178.854 157.554 178.987 157.303 178.999 157.038C179.011 156.773 178.9 156.515 178.691 156.321C178.482 156.126 178.192 156.011 177.885 156.001C177.868 156.001 177.851 156 177.834 156H123.159V156Z" fill="#E6E6E6"/>
<path d="M123.159 163C122.852 163 122.557 163.105 122.339 163.293C122.122 163.48 122 163.735 122 164C122 164.265 122.122 164.519 122.339 164.706C122.557 164.894 122.852 164.999 123.159 164.999H177.796C178.104 165.009 178.403 164.914 178.628 164.734C178.854 164.554 178.987 164.303 178.999 164.038C179.011 163.773 178.9 163.515 178.691 163.321C178.482 163.126 178.192 163.011 177.885 163.001C177.868 163.001 177.851 163 177.834 163H123.159V163Z" fill="#E6E6E6"/>
<path d="M184.357 210H95.6428C95.2072 210 94.7896 209.828 94.4817 209.524C94.1737 209.219 94.0005 208.807 94 208.376V186.624C94.0006 186.193 94.1738 185.781 94.4818 185.476C94.7897 185.172 95.2072 185.001 95.6428 185H184.357C184.793 185.001 185.21 185.172 185.518 185.476C185.826 185.781 185.999 186.193 186 186.624V208.377C185.999 208.807 185.826 209.22 185.518 209.524C185.21 209.828 184.793 209.999 184.357 210ZM95.6428 185.649C95.3814 185.65 95.1308 185.752 94.9459 185.935C94.7611 186.118 94.6572 186.365 94.6569 186.624V208.377C94.6572 208.635 94.7611 208.883 94.9459 209.065C95.1308 209.248 95.3814 209.351 95.6428 209.351H184.357C184.619 209.351 184.869 209.248 185.054 209.065C185.239 208.883 185.343 208.635 185.343 208.377V186.624C185.343 186.365 185.239 186.118 185.054 185.935C184.869 185.752 184.619 185.65 184.357 185.649H95.6428Z" fill="#E6E6E6"/>
<path d="M123.16 193C122.852 193 122.557 193.105 122.34 193.293C122.122 193.48 122 193.735 122 194C122 194.265 122.122 194.52 122.34 194.707C122.557 194.895 122.852 195 123.16 195H177.846C178.15 194.999 178.44 194.895 178.656 194.711C178.871 194.527 178.995 194.278 179 194.016C179.005 193.755 178.891 193.502 178.682 193.312C178.474 193.122 178.187 193.01 177.884 193H123.16V193Z" fill="#E6E6E6"/>
<path d="M123.16 200C122.852 200 122.557 200.105 122.34 200.293C122.122 200.48 122 200.735 122 201C122 201.265 122.122 201.52 122.34 201.707C122.557 201.895 122.852 202 123.16 202H177.846C178.15 201.999 178.44 201.895 178.656 201.711C178.871 201.527 178.995 201.278 179 201.016C179.005 200.755 178.891 200.502 178.682 200.312C178.474 200.122 178.187 200.01 177.884 200H123.16V200Z" fill="#E6E6E6"/>
<path d="M184.357 246H95.6428C95.2072 245.999 94.7896 245.828 94.4817 245.523C94.1737 245.219 94.0005 244.806 94 244.376V222.624C94.0006 222.193 94.1738 221.781 94.4818 221.476C94.7897 221.172 95.2072 221.001 95.6428 221H184.357C184.793 221.001 185.21 221.172 185.518 221.476C185.826 221.781 185.999 222.193 186 222.624V244.376C185.999 244.807 185.826 245.219 185.518 245.524C185.21 245.828 184.793 245.999 184.357 246V246ZM95.6428 221.649C95.3814 221.65 95.1308 221.752 94.9459 221.935C94.7611 222.118 94.6572 222.365 94.6569 222.624V244.376C94.6572 244.635 94.7611 244.882 94.9459 245.065C95.1308 245.248 95.3814 245.35 95.6428 245.351H184.357C184.619 245.35 184.869 245.248 185.054 245.065C185.239 244.882 185.343 244.635 185.343 244.376V222.624C185.343 222.365 185.239 222.118 185.054 221.935C184.869 221.752 184.619 221.65 184.357 221.649H95.6428Z" fill="#E6E6E6"/>
<path d="M123.159 229C122.852 229 122.557 229.105 122.339 229.293C122.122 229.48 122 229.735 122 230C122 230.265 122.122 230.519 122.339 230.706C122.557 230.894 122.852 230.999 123.159 230.999H177.796C177.948 231.004 178.1 230.983 178.243 230.938C178.386 230.892 178.517 230.823 178.628 230.734C178.74 230.644 178.83 230.537 178.894 230.418C178.958 230.299 178.993 230.17 178.999 230.038C179.005 229.907 178.981 229.776 178.928 229.653C178.875 229.53 178.795 229.417 178.691 229.321C178.588 229.224 178.463 229.147 178.325 229.092C178.187 229.037 178.037 229.006 177.885 229.001C177.868 229.001 177.851 229 177.834 229H123.159V229Z" fill="#E6E6E6"/>
<path d="M123.159 236C122.852 236 122.557 236.105 122.339 236.293C122.122 236.48 122 236.735 122 237C122 237.265 122.122 237.519 122.339 237.706C122.557 237.894 122.852 237.999 123.159 237.999H177.796C177.948 238.004 178.1 237.983 178.243 237.938C178.386 237.892 178.517 237.823 178.628 237.734C178.74 237.644 178.83 237.537 178.894 237.418C178.958 237.299 178.993 237.17 178.999 237.038C179.005 236.907 178.981 236.776 178.928 236.653C178.875 236.53 178.795 236.417 178.691 236.321C178.588 236.224 178.463 236.147 178.325 236.092C178.187 236.037 178.037 236.006 177.885 236.001C177.868 236.001 177.851 236 177.834 236H123.159V236Z" fill="#E6E6E6"/>
<path d="M299.216 308H0.783314C0.351021 308 0 307.776 0 307.5C0 307.224 0.351021 307 0.783314 307H299.217C299.649 307 300 307.224 300 307.5C300 307.776 299.648 308 299.216 308Z" fill="#E6E6E6"/>
<path d="M12.8523 290.517C14.1611 291.003 15.5663 291.125 16.9326 290.87C18.2989 290.616 19.5801 289.993 20.6529 289.063C23.3851 286.638 24.2416 282.642 24.9385 278.943L27 268L22.6841 271.143C19.5802 273.403 16.4067 275.736 14.2572 279.01C12.1078 282.284 11.1699 286.753 12.8967 290.296" fill="#E6E6E6"/>
<path d="M13.8924 303.706C13.3195 299.595 12.7304 295.432 13.1323 291.277C13.4892 287.586 14.632 283.983 16.9587 281.027C18.1936 279.462 19.6963 278.121 21.3991 277.064C21.843 276.788 22.2519 277.481 21.8098 277.756C18.8628 279.59 16.5832 282.299 15.2998 285.491C13.8828 289.042 13.6554 292.912 13.9003 296.684C14.0481 298.964 14.3608 301.23 14.6762 303.493C14.701 303.596 14.6854 303.703 14.6327 303.795C14.5799 303.886 14.4938 303.955 14.3919 303.986C14.2879 304.014 14.177 304 14.0833 303.947C13.9897 303.895 13.9208 303.808 13.8916 303.706H13.8924Z" fill="#F2F2F2"/>
<path d="M18 298.062C18.5682 298.998 19.3493 299.759 20.2679 300.273C21.1866 300.787 22.2119 301.036 23.245 300.996C25.9001 300.859 28.1138 298.851 30.1062 296.945L36 291.306L32.0995 291.104C29.2946 290.958 26.417 290.823 23.7434 291.76C21.0699 292.698 18.6076 294.954 18.1193 297.949" fill="#E6E6E6"/>
<path d="M12.0532 306.458C14.8143 301.631 18.0216 296.266 23.7484 294.551C25.3407 294.076 27.0104 293.906 28.6675 294.05C29.1899 294.093 29.0593 294.889 28.536 294.844C25.7583 294.617 22.986 295.341 20.6858 296.895C18.4721 298.383 16.7488 300.45 15.2903 302.644C14.3967 303.985 13.5964 305.388 12.7961 306.786C12.541 307.233 11.796 306.91 12.0532 306.458Z" fill="#F2F2F2"/>
<path d="M106 167C109.866 167 113 163.866 113 160C113 156.134 109.866 153 106 153C102.134 153 99 156.134 99 160C99 163.866 102.134 167 106 167Z" fill="#007AFF"/>
<path d="M103.142 159C103.063 159 103 159.448 103 160C103 160.552 103.063 161 103.142 161H109.84C109.918 161.009 109.983 160.569 109.984 160.017C110.028 159.673 109.98 159.325 109.845 159H103.142V159Z" fill="#007AFF"/>
<path d="M106 204C109.866 204 113 200.866 113 197C113 193.134 109.866 190 106 190C102.134 190 99 193.134 99 197C99 200.866 102.134 204 106 204Z" fill="#007AFF"/>
<path d="M103.142 196C103.063 196 103 196.448 103 197C103 197.552 103.063 198 103.142 198H109.84C109.918 198.009 109.983 197.569 109.984 197.017C110.028 196.673 109.98 196.325 109.845 196H103.142V196Z" fill="#007AFF"/>
<path d="M106 241C109.866 241 113 237.866 113 234C113 230.134 109.866 227 106 227C102.134 227 99 230.134 99 234C99 237.866 102.134 241 106 241Z" fill="#007AFF"/>
<path d="M103.142 233C103.063 233 103 233.448 103 234C103 234.552 103.063 235 103.142 235H109.84C109.918 235.009 109.983 234.569 109.984 234.017C110.028 233.673 109.98 233.325 109.845 233H103.142V233Z" fill="#007AFF"/>
<path d="M161.261 111C160.901 111.001 160.547 110.902 160.24 110.715C159.932 110.527 159.683 110.258 159.519 109.937C158.127 107.215 156.206 104.799 153.867 102.83C151.529 100.861 148.82 99.3797 145.901 98.4719C144.706 98.1092 143.486 97.833 142.252 97.6454L142 97.6073L154.987 57L155.207 57.0076C180.439 63.864 194.875 84.0866 198.698 90.1212C198.844 90.3519 198.94 90.6106 198.979 90.8806C199.019 91.1505 199.001 91.4258 198.928 91.6886C198.854 91.9514 198.727 92.1958 198.553 92.4061C198.379 92.6164 198.163 92.7879 197.919 92.9095L162.137 110.793C161.865 110.929 161.565 111 161.261 111Z" fill="#E6E6E6"/>
<path d="M238.114 197.083C238.249 196.52 238.506 195.993 238.869 195.539C239.231 195.086 239.69 194.716 240.212 194.456C240.735 194.197 241.309 194.054 241.893 194.037C242.478 194.021 243.059 194.131 243.596 194.361L253.204 184L255 191.087L245.599 199.839C245.15 200.705 244.394 201.378 243.476 201.731C242.558 202.083 241.541 202.09 240.619 201.75C239.696 201.41 238.931 200.747 238.469 199.887C238.008 199.027 237.881 198.029 238.114 197.083L238.114 197.083Z" fill="#FEB8B8"/>
<path d="M258.996 302H252.901L250 279H259L258.996 302Z" fill="#FEB8B8"/>
<path d="M261 300H249.395C247.434 300 245.553 300.816 244.166 302.269C242.779 303.722 242 305.693 242 307.748V308H260.999L261 300Z" fill="#2F2E41"/>
<path d="M293 295.939L287.558 298L277 278.041L285.032 275L293 295.939Z" fill="#FEB8B8"/>
<path d="M293.338 294L282.684 298.153C280.884 298.856 279.429 300.263 278.639 302.068C277.849 303.872 277.789 305.924 278.472 307.773L278.557 308L296 301.2L293.338 294Z" fill="#2F2E41"/>
<path d="M272.998 226L277.81 252.292C277.81 252.292 290.87 289.286 289.954 290.217C289.037 291.147 276.435 294.405 277.123 292.311C277.81 290.217 262 258.807 262 258.807L272.998 226Z" fill="#2F2E41"/>
<path d="M253.302 179C253.302 179 243.876 191.872 245.112 192.575C246.347 193.278 251.132 197 251.132 197L256 183.043L253.302 179Z" fill="#E4E4E4"/>
<path d="M251.511 192.112C251.511 192.112 249.887 204.177 250.583 206.729C251.279 209.281 250.815 281.669 250.351 282.829C249.888 283.989 248.495 287.933 249.192 289.789C249.888 291.645 259.398 296.285 260.79 294.661C262.181 293.037 272.388 233.874 272.388 233.874C272.388 233.874 286.77 198.144 283.523 194.665C280.275 191.185 251.511 192.112 251.511 192.112Z" fill="#2F2E41"/>
<path d="M272.5 114C278.851 114 284 108.851 284 102.5C284 96.1487 278.851 91 272.5 91C266.149 91 261 96.1487 261 102.5C261 108.851 266.149 114 272.5 114Z" fill="#FEB8B8"/>
<path d="M260.411 128.069C260.695 126.234 261.603 124.554 262.98 123.317L265.035 117H277.112L280.478 122.309C284.117 123.885 286.815 126.384 286.917 129.33C287.474 131.286 285.076 193.39 284.387 195.702C284.184 196.376 281.432 196.735 277.564 196.895C274.016 197.041 269.533 197.02 265.229 196.921C258.103 196.754 251.459 196.37 250.341 196.165C247.813 195.703 260.16 129.528 260.411 128.069Z" fill="#E4E4E4"/>
<path d="M271.341 210.362C271.844 210.051 272.27 209.638 272.59 209.151C272.91 208.664 273.116 208.115 273.193 207.543C273.269 206.97 273.215 206.389 273.034 205.839C272.853 205.289 272.549 204.785 272.145 204.361L279 192L271.489 192.663L266.131 204.299C265.438 205.003 265.036 205.928 265.002 206.899C264.968 207.87 265.305 208.82 265.947 209.567C266.59 210.315 267.494 210.808 268.488 210.955C269.482 211.101 270.497 210.89 271.341 210.361L271.341 210.362Z" fill="#FEB8B8"/>
<path d="M271.565 121.283C271.565 121.283 260.946 125.718 264.87 136.923C268.795 148.128 273.181 161.432 273.181 161.432C273.181 161.432 267.641 191.543 267.641 192.711C267.641 193.88 264.178 200.18 265.563 201.348C266.947 202.515 276.182 204.849 276.413 203.682C277.12 200.993 277.968 198.344 278.952 195.746C279.414 194.812 290.264 165.635 288.878 163.067C287.858 161.178 286.964 143.865 286.563 134.856C286.47 132.285 285.717 129.782 284.377 127.595C283.037 125.408 281.158 123.611 278.923 122.381C276.772 121.224 274.267 120.6 271.565 121.283Z" fill="#E4E4E4"/>
<path d="M276.386 107.5C275.518 107.096 274.513 107.012 273.576 106.762C270.221 105.863 267.974 102.519 268.692 99.4924C268.824 99.1076 268.883 98.7013 268.868 98.2943C268.742 97.398 267.702 96.8195 266.705 96.6141C265.708 96.4087 264.647 96.439 263.694 96.1083C263.004 95.8616 262.393 95.4319 261.925 94.8643C261.456 94.2967 261.148 93.6122 261.033 92.8828C260.885 91.4655 261.243 90.0415 262.042 88.8668L262.402 89.7811C262.937 89.3911 263.346 88.8513 263.579 88.2288C263.971 88.2761 264.344 88.4206 264.666 88.6492C264.989 88.8778 265.25 89.1835 265.427 89.539C266.005 89.8398 266.088 88.6049 266.728 88.4228C267.006 88.3916 267.286 88.4531 267.525 88.5979C268.812 89.1273 270.307 88.6746 271.689 88.3812C274.088 87.8755 276.564 87.8729 278.963 88.3737C280.552 88.7078 282.125 89.2902 283.262 90.3246C284.134 91.189 284.819 92.2268 285.273 93.3723C286.492 96.0794 287.298 99.0086 286.895 101.9C286.529 104.325 285.398 106.567 283.67 108.293C282.749 109.229 279.745 112.493 278.098 111.937C276.025 111.236 278.825 108.637 276.386 107.5Z" fill="#2F2E41"/>
<path d="M139.5 119C141.433 119 143 117.433 143 115.5C143 113.567 141.433 112 139.5 112C137.567 112 136 113.567 136 115.5C136 117.433 137.567 119 139.5 119Z" fill="#3F3D56"/>
<path d="M116.143 111C115.828 111 115.518 110.922 115.241 110.773L80.0312 92.0855C79.7977 91.9615 79.5918 91.7907 79.4264 91.5836C79.261 91.3765 79.1394 91.1375 79.0694 90.8814C78.9993 90.6252 78.9821 90.3573 79.0188 90.0942C79.0556 89.8312 79.1456 89.5784 79.2832 89.3516C83.9863 81.7672 89.9422 75.0465 96.8941 69.4791C109.053 59.7836 122.884 54.9193 138 55.001C143.669 55.0263 149.311 55.7947 154.783 57.287L155 57.3461L142.142 97.7787L141.962 97.7513C140.803 97.5755 139.636 97.4713 138.465 97.4394C125.382 97.0679 119.713 106.031 117.882 109.901C117.772 110.136 117.615 110.345 117.422 110.517C117.228 110.689 117.002 110.819 116.757 110.899C116.559 110.966 116.352 111 116.143 111Z" fill="#007AFF"/>
<path d="M155 57L145.719 98C144.501 97.6345 143.258 97.3563 142 97.1675L154.996 57H155Z" fill="#3F3D56"/>
</svg>
