<svg width="300" height="274" viewBox="0 0 300 274" fill="none" xmlns="http://www.w3.org/2000/svg">
<g clip-path="url(#clip0_52232_7905)">
<path d="M278.423 211.253C292.073 202.106 301.875 185.854 299.618 169.579C287.388 182.606 270.945 190.888 253.197 192.958C246.35 193.732 238.653 193.88 233.847 198.818C230.856 201.89 229.625 206.341 229.614 210.628C229.603 214.916 230.687 219.123 231.763 223.273L231.525 224.317C247.936 223.5 264.773 220.399 278.423 211.253Z" fill="#F0F0F0"/>
<path d="M299.273 169.58C294.285 182.232 285.437 192.991 273.986 200.329C271.549 201.953 268.871 203.182 266.052 203.971C263.28 204.652 260.377 204.577 257.643 203.756C255.079 203.042 252.539 202.014 249.846 201.935C248.467 201.915 247.1 202.187 245.833 202.733C244.566 203.279 243.43 204.086 242.497 205.102C240.107 207.573 238.748 210.756 237.526 213.914C236.17 217.421 234.817 221.085 231.998 223.705C231.656 224.023 232.169 224.534 232.51 224.217C237.415 219.658 237.869 212.438 241.704 207.172C243.493 204.715 246.033 202.782 249.168 202.662C251.909 202.557 254.529 203.614 257.119 204.36C259.774 205.2 262.594 205.378 265.333 204.877C268.183 204.233 270.904 203.109 273.378 201.553C279.003 198.138 284.057 193.86 288.353 188.876C293.288 183.214 297.218 176.75 299.973 169.763C300.144 169.331 299.442 169.15 299.273 169.58L299.273 169.58Z" fill="white"/>
<path d="M277.813 198.183C279.305 199.938 281.371 201.104 283.644 201.475C285.917 201.846 288.247 201.397 290.219 200.208C290.618 199.966 290.26 199.336 289.862 199.578C288.027 200.689 285.856 201.107 283.741 200.757C281.625 200.407 279.704 199.313 278.325 197.671C278.024 197.315 277.514 197.829 277.813 198.183Z" fill="white"/>
<path d="M258.896 204.29C259.233 199.594 261.327 195.199 264.761 191.979C265.101 191.66 264.589 191.149 264.249 191.467C260.681 194.824 258.511 199.403 258.171 204.29C258.139 204.756 258.864 204.753 258.896 204.29L258.896 204.29Z" fill="white"/>
<path d="M292.373 182.923C291.654 182.365 291.086 181.636 290.718 180.804C290.35 179.971 290.195 179.061 290.266 178.153C290.304 177.688 289.58 177.691 289.542 178.153C289.468 179.156 289.641 180.162 290.045 181.083C290.449 182.003 291.073 182.811 291.861 183.435C291.93 183.5 292.022 183.536 292.117 183.536C292.212 183.536 292.304 183.5 292.373 183.435C292.441 183.367 292.478 183.275 292.478 183.179C292.478 183.083 292.44 182.991 292.373 182.923H292.373Z" fill="white"/>
<path d="M252.284 140.349C252.252 140.639 252.22 140.928 252.183 141.221C251.733 145.115 250.967 148.965 249.893 152.735C249.815 153.028 249.731 153.323 249.645 153.613C246.961 162.668 242.62 171.145 236.843 178.615C234.541 181.585 232.016 184.376 229.291 186.963C225.527 190.536 221.161 194.111 218.865 198.586C218.62 199.051 218.404 199.53 218.219 200.021L230.27 223.945C230.325 223.986 230.374 224.029 230.429 224.07L230.867 225.048C231.017 224.924 231.169 224.792 231.319 224.669C231.407 224.598 231.491 224.521 231.578 224.45C231.636 224.4 231.693 224.351 231.747 224.31C231.766 224.293 231.785 224.277 231.799 224.263C231.854 224.222 231.9 224.178 231.949 224.139C232.805 223.407 233.658 222.667 234.506 221.921C234.512 221.918 234.512 221.918 234.515 221.91C240.967 216.202 247 209.906 251.886 202.894C252.032 202.683 252.185 202.47 252.326 202.248C254.511 199.075 256.433 195.729 258.072 192.243C258.964 190.331 259.758 188.376 260.452 186.384C262.234 181.233 263.196 175.834 263.301 170.385C263.509 159.522 260.241 148.714 252.854 140.937C252.665 140.739 252.478 140.545 252.284 140.349Z" fill="#F0F0F0"/>
<path d="M252.007 140.556C255.642 153.661 255.055 167.579 250.33 180.331C249.362 183.095 247.964 185.688 246.188 188.017C244.384 190.229 242.021 191.917 239.345 192.907C236.867 193.88 234.221 194.589 232.023 196.148C230.91 196.962 229.982 198.002 229.299 199.201C228.616 200.399 228.194 201.728 228.061 203.101C227.641 206.513 228.472 209.873 229.398 213.13C230.427 216.746 231.552 220.486 230.879 224.276C230.797 224.735 231.515 224.835 231.596 224.376C232.768 217.783 228.783 211.744 228.675 205.231C228.624 202.192 229.489 199.12 231.919 197.136C234.044 195.402 236.773 194.669 239.289 193.705C241.915 192.778 244.273 191.222 246.159 189.172C248.048 186.942 249.543 184.407 250.582 181.675C253.017 175.562 254.476 169.103 254.906 162.537C255.437 155.045 254.684 147.518 252.677 140.28C252.553 139.832 251.883 140.111 252.007 140.556L252.007 140.556Z" fill="white"/>
<path d="M252.094 176.315C254.341 176.817 256.694 176.504 258.732 175.432C260.77 174.36 262.36 172.598 263.219 170.461C263.391 170.028 262.727 169.74 262.554 170.174C261.758 172.165 260.276 173.806 258.377 174.8C256.477 175.795 254.284 176.078 252.194 175.597C251.74 175.494 251.642 176.211 252.094 176.315Z" fill="white"/>
<path d="M240.666 192.579C238.108 188.628 237.134 183.857 237.937 179.219C238.017 178.759 237.3 178.659 237.22 179.118C236.393 183.947 237.417 188.909 240.088 193.015C240.342 193.407 240.919 192.968 240.666 192.579Z" fill="white"/>
<path d="M254.532 155.363C253.622 155.35 252.729 155.111 251.934 154.668C251.139 154.225 250.467 153.591 249.978 152.823C249.728 152.429 249.151 152.868 249.4 153.259C249.944 154.105 250.687 154.804 251.565 155.296C252.442 155.787 253.426 156.057 254.431 156.081C254.526 156.091 254.621 156.065 254.696 156.007C254.772 155.95 254.824 155.866 254.84 155.772C254.853 155.677 254.827 155.581 254.77 155.504C254.712 155.428 254.626 155.377 254.531 155.363H254.532Z" fill="white"/>
<path d="M0.177547 241.988C1.1851 231.417 7.4148 220.852 17.3614 217.136C13.7111 228.091 14.0532 239.984 18.3274 250.711C19.9907 254.842 22.2709 259.263 20.9398 263.513C20.1116 266.157 17.9592 268.223 15.5249 269.547C13.0904 270.87 10.3659 271.546 7.67543 272.209L7.15529 272.665C2.57894 263.083 -0.830007 252.558 0.177547 241.988Z" fill="#F0F0F0"/>
<path d="M17.4666 217.333C11.805 224.055 8.40545 232.39 7.75084 241.155C7.57643 243.039 7.7001 244.939 8.11733 246.785C8.58187 248.57 9.5159 250.197 10.8224 251.499C12.0161 252.738 13.3806 253.866 14.2526 255.373C14.6875 256.151 14.953 257.012 15.0317 257.9C15.1105 258.788 15.0007 259.682 14.7095 260.524C14.0386 262.642 12.6468 264.393 11.2262 266.057C9.64885 267.905 7.98124 269.8 7.35734 272.208C7.28174 272.5 6.83344 272.365 6.90892 272.074C7.99442 267.884 11.96 265.409 13.7761 261.611C14.6235 259.839 14.9421 257.801 14.0477 255.982C13.2657 254.391 11.8596 253.226 10.6401 251.983C9.34696 250.732 8.3799 249.183 7.82338 247.472C7.31352 245.653 7.11684 243.761 7.24177 241.876C7.45537 237.629 8.33542 233.442 9.84971 229.468C11.5528 224.923 14.0208 220.703 17.147 216.991C17.3405 216.761 17.6589 217.104 17.4666 217.333V217.333Z" fill="white"/>
<path d="M7.79564 238.32C6.34008 238.011 5.04191 237.194 4.13297 236.016C3.22403 234.837 2.7635 233.375 2.83364 231.888C2.83705 231.827 2.86385 231.771 2.9084 231.729C2.95294 231.688 3.01175 231.666 3.07243 231.667C3.13311 231.668 3.19091 231.693 3.23366 231.736C3.27642 231.779 3.30079 231.837 3.30163 231.898C3.23376 233.282 3.66289 234.645 4.51154 235.74C5.36019 236.836 6.57247 237.592 7.92958 237.872C8.22442 237.933 8.08881 238.381 7.79565 238.32H7.79564Z" fill="white"/>
<path d="M10.1346 250.951C12.7006 249.317 14.5565 246.776 15.3323 243.835C15.4089 243.544 15.8573 243.678 15.7807 243.969C14.9677 247.028 13.031 249.669 10.357 251.363C10.102 251.524 9.88102 251.112 10.1346 250.951H10.1346Z" fill="white"/>
<path d="M11.9999 225.354C12.5381 225.591 13.1268 225.691 13.7131 225.644C14.2994 225.598 14.8649 225.406 15.3589 225.087C15.6117 224.922 15.8324 225.335 15.5813 225.499C15.0339 225.849 14.409 226.06 13.7614 226.112C13.1137 226.165 12.463 226.059 11.8659 225.803C11.8076 225.783 11.7589 225.742 11.7297 225.688C11.7005 225.634 11.693 225.571 11.7087 225.511C11.7267 225.452 11.7674 225.402 11.8219 225.373C11.8765 225.343 11.9404 225.337 11.9999 225.354Z" fill="white"/>
<path d="M46.5076 235.07C46.3526 235.177 46.1977 235.285 46.0427 235.396C43.9665 236.846 44.0258 238.467 42.2115 240.234C42.0692 240.368 41.9269 240.507 41.7887 240.645C37.4649 244.952 33.9783 250.024 31.5061 255.603C30.5243 257.825 29.7131 260.117 29.0792 262.461C28.204 265.699 27.5126 269.279 25.6731 271.959C25.4843 272.241 25.2783 272.511 25.0561 272.767L7.75185 273.264C7.71196 273.245 7.67199 273.231 7.6319 273.212L6.94189 273.263C6.96614 273.14 6.99395 273.013 7.01819 272.89C7.03196 272.818 7.04957 272.747 7.06334 272.675C7.07374 272.627 7.08434 272.58 7.09102 272.536C7.09442 272.52 7.09802 272.504 7.10153 272.492C7.10819 272.449 7.119 272.409 7.12577 272.369C7.27918 271.657 7.43786 270.946 7.60181 270.234C7.6017 270.23 7.60169 270.23 7.60543 270.226C8.80279 264.788 10.6409 259.512 13.0813 254.508C13.1561 254.36 13.2307 254.208 13.3134 254.059C14.4463 251.842 15.7585 249.722 17.2369 247.719C18.0499 246.625 18.9178 245.573 19.8373 244.567C22.218 241.971 24.9921 239.766 28.058 238.032C34.1704 234.577 39.3075 233.116 45.9978 234.927C46.1689 234.973 46.3363 235.02 46.5076 235.07Z" fill="#F0F0F0"/>
<path d="M46.475 235.291C37.9968 237.227 32.0942 241.883 26.3872 248.462C25.1134 249.861 24.0683 251.453 23.2901 253.178C22.5864 254.883 22.3521 256.745 22.6114 258.571C22.8191 260.278 23.2292 262.001 23.0181 263.729C22.897 264.612 22.5905 265.459 22.1189 266.216C21.6472 266.972 21.0211 267.62 20.2814 268.117C18.4707 269.404 16.3054 269.964 14.169 270.438C11.7969 270.964 9.32478 271.472 7.37683 273.019C7.14081 273.207 6.86376 272.83 7.09942 272.642C10.4885 269.951 15.1454 270.362 18.8818 268.423C20.6253 267.518 22.1067 266.083 22.4879 264.092C22.8212 262.351 22.3999 260.574 22.1747 258.847C21.8956 257.07 22.056 255.251 22.6418 253.549C23.3296 251.79 24.3118 250.161 25.5461 248.732C28.2738 245.469 31.4974 242.656 35.099 240.395C39.1915 237.794 41.6986 235.905 46.4257 234.826C46.7185 234.759 46.7659 235.225 46.475 235.291Z" fill="white"/>
<path d="M28.1292 246.226C27.1533 245.102 26.6085 243.669 26.5922 242.181C26.5758 240.693 27.0889 239.247 28.0399 238.103C28.2331 237.872 28.601 238.161 28.4076 238.392C27.5201 239.456 27.0422 240.803 27.0603 242.188C27.0784 243.574 27.5912 244.908 28.5061 245.948C28.7046 246.175 28.3266 246.451 28.1292 246.226Z" fill="white"/>
<path d="M22.3922 257.719C25.4246 257.959 28.4362 257.048 30.8266 255.167C31.0633 254.98 31.3404 255.357 31.104 255.543C28.6129 257.497 25.4769 258.439 22.3218 258.182C22.0211 258.157 22.0931 257.694 22.3921 257.719H22.3922Z" fill="white"/>
<path d="M39.2925 238.404C39.5795 238.917 39.9896 239.351 40.4858 239.667C40.982 239.983 41.5488 240.171 42.1354 240.213C42.4363 240.234 42.364 240.696 42.0651 240.676C41.4172 240.626 40.7914 240.418 40.2424 240.07C39.6934 239.723 39.2379 239.246 38.9156 238.681C38.8808 238.631 38.8666 238.569 38.8758 238.508C38.885 238.447 38.9171 238.392 38.9654 238.354C39.0155 238.318 39.0779 238.303 39.1392 238.312C39.2004 238.321 39.2555 238.354 39.2925 238.404Z" fill="white"/>
<path d="M216.044 1.00612H204.207C204.751 2.34067 204.959 3.78861 204.812 5.22238C204.665 6.65616 204.168 8.03176 203.364 9.22801C202.56 10.4243 201.474 11.4044 200.202 12.0822C198.93 12.76 197.511 13.1146 196.07 13.1147H144.12C142.679 13.1146 141.26 12.76 139.988 12.0822C138.716 11.4045 137.63 10.4243 136.826 9.22802C136.022 8.03176 135.524 6.65615 135.377 5.22237C135.23 3.7886 135.438 2.34066 135.982 1.0061H124.927C120.02 1.0061 115.315 2.95516 111.846 6.4245C108.376 9.89385 106.427 14.5993 106.427 19.5057V253.972C106.427 256.402 106.906 258.808 107.835 261.052C108.765 263.297 110.128 265.336 111.846 267.054C113.563 268.772 115.603 270.134 117.847 271.064C120.092 271.994 122.497 272.472 124.927 272.472H216.044C218.473 272.472 220.879 271.994 223.123 271.064C225.368 270.134 227.407 268.772 229.125 267.054C230.843 265.336 232.206 263.297 233.135 261.052C234.065 258.808 234.544 256.402 234.544 253.973V19.5057C234.544 17.0763 234.065 14.6707 233.135 12.4262C232.206 10.1817 230.843 8.14237 229.125 6.42452C227.407 4.70667 225.368 3.344 223.123 2.41431C220.879 1.48462 218.473 1.00612 216.044 1.00612Z" fill="white"/>
<path d="M216.044 273.478H124.927C119.756 273.472 114.798 271.415 111.141 267.759C107.484 264.102 105.427 259.144 105.421 253.972V19.5057C105.427 14.3343 107.484 9.37637 111.141 5.71962C114.798 2.06287 119.756 0.00590869 124.927 0H137.48L136.914 1.38606C136.432 2.56784 136.248 3.85003 136.378 5.11969C136.509 6.38935 136.949 7.6075 137.661 8.66682C138.373 9.72614 139.334 10.5941 140.461 11.1943C141.587 11.7945 142.844 12.1084 144.12 12.1085H196.07C197.346 12.1084 198.603 11.7943 199.729 11.1941C200.855 10.5939 201.817 9.72596 202.529 8.66667C203.241 7.60738 203.681 6.38927 203.812 5.11964C203.942 3.85002 203.758 2.56785 203.276 1.38606L202.711 0H216.044C221.216 0.00586618 226.174 2.06281 229.83 5.71957C233.487 9.37634 235.544 14.3343 235.55 19.5057V253.973C235.544 259.144 233.487 264.102 229.83 267.759C226.174 271.415 221.216 273.472 216.044 273.478ZM124.927 2.01215C120.289 2.01744 115.843 3.86221 112.563 7.14174C109.284 10.4213 107.439 14.8678 107.434 19.5057V253.972C107.439 258.61 109.284 263.057 112.563 266.336C115.843 269.616 120.289 271.461 124.927 271.466H216.044C220.682 271.461 225.129 269.616 228.408 266.336C231.688 263.057 233.533 258.611 233.538 253.973V19.5057C233.533 14.8678 231.688 10.4213 228.408 7.14173C225.129 3.86218 220.682 2.01743 216.044 2.01217H205.588C205.938 3.45336 205.957 4.95525 205.642 6.40456C205.327 7.85386 204.687 9.21276 203.771 10.3787C202.854 11.5447 201.685 12.4874 200.351 13.1356C199.017 13.7838 197.553 14.1206 196.07 14.1207H144.12C142.637 14.1201 141.174 13.7829 139.84 13.1345C138.507 12.4862 137.337 11.5435 136.421 10.3777C135.504 9.21184 134.865 7.85317 134.549 6.40409C134.234 4.95501 134.252 3.45331 134.602 2.01217L124.927 2.01215Z" fill="#E4E4E4"/>
<path d="M216.728 37.0402H189.251C188.942 37.0402 188.645 36.9174 188.427 36.6989C188.208 36.4804 188.085 36.184 188.085 35.8749C188.085 35.5658 188.208 35.2694 188.427 35.0509C188.645 34.8324 188.942 34.7096 189.251 34.7096H216.728C216.881 34.7093 217.033 34.7392 217.174 34.7976C217.316 34.856 217.445 34.9418 217.553 35.05C217.662 35.1583 217.748 35.2869 217.806 35.4284C217.865 35.5699 217.895 35.7217 217.895 35.8749C217.895 36.0281 217.865 36.1799 217.806 36.3214C217.748 36.4629 217.662 36.5915 217.553 36.6997C217.445 36.808 217.316 36.8938 217.174 36.9522C217.033 37.0106 216.881 37.0405 216.728 37.0402Z" fill="#007AFF"/>
<path d="M216.728 42.2689H189.251C188.942 42.2689 188.645 42.1461 188.427 41.9276C188.208 41.7091 188.085 41.4127 188.085 41.1036C188.085 40.7945 188.208 40.4981 188.427 40.2796C188.645 40.0611 188.942 39.9383 189.251 39.9383H216.728C216.881 39.938 217.033 39.9679 217.174 40.0263C217.316 40.0847 217.445 40.1705 217.553 40.2787C217.662 40.387 217.748 40.5156 217.806 40.6571C217.865 40.7986 217.895 40.9504 217.895 41.1036C217.895 41.2568 217.865 41.4086 217.806 41.5501C217.748 41.6916 217.662 41.8202 217.553 41.9285C217.445 42.0367 217.316 42.1225 217.174 42.1809C217.033 42.2393 216.881 42.2692 216.728 42.2689Z" fill="#007AFF"/>
<path d="M216.728 47.4976H189.251C188.942 47.4976 188.645 47.3748 188.427 47.1563C188.208 46.9377 188.085 46.6414 188.085 46.3323C188.085 46.0232 188.208 45.7268 188.427 45.5083C188.645 45.2898 188.942 45.167 189.251 45.167H216.728C216.881 45.1667 217.033 45.1966 217.174 45.255C217.316 45.3134 217.445 45.3992 217.553 45.5074C217.662 45.6157 217.748 45.7442 217.806 45.8858C217.865 46.0273 217.895 46.1791 217.895 46.3323C217.895 46.4855 217.865 46.6373 217.806 46.7788C217.748 46.9203 217.662 47.0489 217.553 47.1571C217.445 47.2654 217.316 47.3512 217.174 47.4096C217.033 47.468 216.881 47.4979 216.728 47.4976Z" fill="#007AFF"/>
<path d="M77.7549 268.388L82.3587 268.387L84.5489 250.629H77.7544L77.7549 268.388Z" fill="#FFB6B6"/>
<path d="M76.5806 266.884L85.6473 266.884H85.6477C87.1801 266.884 88.6497 267.493 89.7332 268.576C90.8168 269.66 91.4256 271.13 91.4257 272.662V272.85L76.5809 272.85L76.5806 266.884Z" fill="#2F2E41"/>
<path d="M59.7549 264.102L64.0976 265.631L72.0592 249.607L65.6495 247.352L59.7549 264.102Z" fill="#FFB6B6"/>
<path d="M59.1464 262.295L67.699 265.304L67.6993 265.305C69.1448 265.813 70.3289 266.876 70.9913 268.257C71.6537 269.639 71.7401 271.228 71.2314 272.673L71.1691 272.85L57.166 267.922L59.1464 262.295Z" fill="#2F2E41"/>
<path d="M57.0188 165.17L54.2314 168.206L65.498 215.105L77.0734 260.841H86.3278L81.0051 217.196V172.309L57.0188 165.17Z" fill="#2F2E41"/>
<path d="M85.8175 168.932L87.0373 173.474L80.5185 213.979L71.2616 256.899H60.7798L68.6493 204.272L78.2654 165.536L85.8175 168.932Z" fill="#2F2E41"/>
<path d="M91.579 101.637L87.5044 94.3228L77.8387 92.7408C73.0207 94.0149 68.7079 96.7325 65.4791 100.529C62.2504 104.325 60.2603 109.018 59.776 113.978L54.5352 167.654C54.5352 167.654 81.3513 179.996 87.0375 173.048L94.945 112.121C95.2578 110.232 95.1156 108.296 94.5302 106.472C93.9448 104.649 92.9331 102.992 91.579 101.637Z" fill="#3F3D56"/>
<path d="M84.71 90.3682C90.3744 90.3682 94.9664 85.7763 94.9664 80.1118C94.9664 74.4474 90.3744 69.8555 84.71 69.8555C79.0456 69.8555 74.4536 74.4474 74.4536 80.1118C74.4536 85.7763 79.0456 90.3682 84.71 90.3682Z" fill="#FFB6B6"/>
<path d="M98.1839 74.5206C97.5524 74.3439 97.0137 73.9297 96.6807 73.3647C96.4547 72.9868 96.3343 72.555 96.3322 72.1146C96.3302 71.6742 96.4465 71.2414 96.6691 70.8614C96.1973 70.6165 95.6784 70.4759 95.1475 70.4489C94.6166 70.4219 94.0861 70.5092 93.5918 70.7049C94.0094 70.3404 94.3346 69.882 94.5406 69.3674C94.7467 68.8528 94.8277 68.2967 94.777 67.7447C93.5462 68.1612 92.3154 68.5777 91.0847 68.9942C91.5311 68.6528 91.8605 68.1811 92.0273 67.6444C92.1941 67.1077 92.1902 66.5324 92.0161 65.998C91.0058 67.4371 88.9136 67.6304 87.2085 67.2011C85.5033 66.7719 83.928 65.8713 82.1907 65.6004C81.2268 65.45 80.2424 65.4992 79.2984 65.745C78.3543 65.9907 77.4709 66.4278 76.7027 67.029C75.9345 67.6302 75.298 68.3828 74.8326 69.2401C74.3672 70.0974 74.0828 71.0412 73.9972 72.0129C73.549 72.0697 73.1227 72.2396 72.7582 72.5065C72.3937 72.7734 72.1031 73.1286 71.9136 73.5387C71.5442 74.3644 71.376 75.266 71.4227 76.1694C71.4534 78.3252 71.9785 80.4452 72.9575 82.3662C73.9365 84.2872 75.3433 85.9578 77.0696 87.2495L77.6363 87.0545C77.5712 85.8887 77.9578 84.7426 78.7159 83.8546C79.4739 82.9665 80.545 82.4047 81.7066 82.2859C83.211 82.1916 84.9874 82.794 86.0611 81.736C87.0433 80.7681 86.6919 79.0354 87.4935 77.9134C88.1908 76.9374 89.578 76.7098 90.7544 76.9436C91.9309 77.1774 93.0013 77.7732 94.1438 78.1382C95.2864 78.5032 96.6247 78.606 97.607 77.9177C98.0125 77.5919 98.3405 77.18 98.5672 76.7119C98.7939 76.2438 98.9138 75.7311 98.918 75.211C98.9294 75.0007 98.9276 74.7898 98.9127 74.5798C98.6682 74.5929 98.4231 74.573 98.1839 74.5206Z" fill="#2F2E41"/>
<path d="M135.331 170.29H29.7119V200.875H135.331V170.29Z" fill="white"/>
<path d="M136.291 201.835H28.752V169.33H136.291V201.835ZM30.6723 199.915H134.371V171.25H30.6723L30.6723 199.915Z" fill="#E4E4E4"/>
<path d="M114.814 180.807H50.2287C49.8656 180.807 49.5173 180.663 49.2604 180.406C49.0036 180.149 48.8594 179.801 48.8594 179.438C48.8594 179.075 49.0036 178.726 49.2604 178.47C49.5173 178.213 49.8656 178.068 50.2287 178.068H114.814C115.177 178.068 115.526 178.213 115.783 178.47C116.039 178.726 116.184 179.075 116.184 179.438C116.184 179.801 116.039 180.149 115.783 180.406C115.526 180.663 115.177 180.807 114.814 180.807Z" fill="#007AFF"/>
<path d="M114.814 186.952H50.2287C49.866 186.951 49.5183 186.807 49.262 186.55C49.0057 186.293 48.8618 185.945 48.8618 185.583C48.8618 185.22 49.0057 184.872 49.262 184.615C49.5183 184.358 49.866 184.214 50.2287 184.213H114.814C115.177 184.214 115.525 184.358 115.781 184.615C116.037 184.872 116.181 185.22 116.181 185.583C116.181 185.945 116.037 186.293 115.781 186.55C115.525 186.807 115.177 186.951 114.814 186.952Z" fill="#007AFF"/>
<path d="M88.672 193.097H50.2287C49.8656 193.097 49.5173 192.952 49.2604 192.695C49.0036 192.439 48.8594 192.09 48.8594 191.727C48.8594 191.364 49.0036 191.016 49.2604 190.759C49.5173 190.502 49.8656 190.358 50.2287 190.358H88.672C89.0352 190.358 89.3835 190.502 89.6403 190.759C89.8971 191.016 90.0413 191.364 90.0413 191.727C90.0413 192.09 89.8971 192.439 89.6403 192.695C89.3835 192.952 89.0352 193.097 88.672 193.097Z" fill="#007AFF"/>
<path d="M92.6676 174.112C92.257 173.743 91.9324 173.288 91.7165 172.78C91.5007 172.272 91.3989 171.723 91.4182 171.171C91.4376 170.619 91.5778 170.079 91.8288 169.587C92.0797 169.095 92.4355 168.664 92.8709 168.325L88.5479 155.621L95.2958 157.38L98.3665 169.174C98.8881 169.944 99.1094 170.878 98.9884 171.799C98.8675 172.721 98.4127 173.566 97.7102 174.174C97.0077 174.783 96.1064 175.113 95.177 175.101C94.2476 175.09 93.3547 174.738 92.6676 174.112Z" fill="#FFB6B6"/>
<path d="M89.6815 165.644L82.6856 139.781L82.073 108.272C82.042 106.983 82.4306 105.718 83.1805 104.668C83.9303 103.619 85.0007 102.841 86.2307 102.452C87.1512 102.156 88.1296 102.088 89.0824 102.252C90.0351 102.417 90.9339 102.809 91.7019 103.396C92.47 103.984 93.0846 104.748 93.4932 105.624C93.9018 106.5 94.0923 107.463 94.0484 108.428L92.9214 133.221L98.4718 162.816L89.6815 165.644Z" fill="#3F3D56"/>
<path d="M67.3956 174.863C66.985 174.494 66.6604 174.039 66.4446 173.531C66.2287 173.023 66.1269 172.474 66.1463 171.922C66.1657 171.37 66.3058 170.83 66.5568 170.338C66.8078 169.846 67.1635 169.415 67.599 169.076L63.2759 156.372L70.0238 158.131L73.0946 169.925C73.6162 170.695 73.8374 171.629 73.7164 172.55C73.5955 173.472 73.1407 174.317 72.4382 174.925C71.7357 175.534 70.8344 175.864 69.905 175.852C68.9756 175.841 68.0827 175.489 67.3956 174.863Z" fill="#FFB6B6"/>
<path d="M63.3463 164.438L60.3535 137.846L64.5362 106.576C64.6426 105.78 64.9081 105.014 65.3167 104.322C65.7253 103.631 66.2688 103.029 66.9148 102.551C67.5608 102.074 68.2962 101.732 69.0772 101.545C69.8582 101.357 70.6689 101.329 71.4611 101.461C72.2533 101.593 73.0108 101.883 73.6886 102.314C74.3664 102.745 74.9507 103.308 75.4067 103.969C75.8627 104.63 76.1811 105.376 76.343 106.163C76.5049 106.95 76.507 107.761 76.3491 108.548L71.4711 132.883L72.4642 162.977L63.3463 164.438Z" fill="#3F3D56"/>
<path d="M291.759 257.326H130.073V220.116H291.759V257.326Z" fill="white"/>
<path d="M153.408 232.419C152.99 232.419 152.589 232.585 152.294 232.881C151.999 233.176 151.833 233.577 151.833 233.995C151.833 234.413 151.999 234.813 152.294 235.109C152.589 235.404 152.99 235.57 153.408 235.57H268.431C268.848 235.569 269.248 235.403 269.543 235.108C269.838 234.812 270.003 234.412 270.003 233.995C270.003 233.577 269.838 233.177 269.543 232.882C269.248 232.586 268.848 232.42 268.431 232.419H153.408Z" fill="#E6E6E6"/>
<path d="M153.408 241.872C152.99 241.871 152.589 242.036 152.293 242.331C151.997 242.626 151.83 243.026 151.829 243.444C151.828 243.862 151.993 244.263 152.288 244.559C152.583 244.855 152.983 245.022 153.401 245.023H226.12C226.327 245.023 226.532 244.983 226.723 244.904C226.915 244.825 227.089 244.709 227.236 244.562C227.382 244.416 227.498 244.242 227.578 244.051C227.657 243.859 227.698 243.654 227.698 243.447C227.698 243.24 227.657 243.035 227.578 242.844C227.498 242.652 227.382 242.479 227.236 242.332C227.089 242.186 226.915 242.07 226.723 241.991C226.532 241.912 226.327 241.871 226.12 241.872H153.408Z" fill="#E6E6E6"/>
<path d="M291.759 257.326H130.073V220.116H291.759V257.326ZM132.731 254.668H289.101V222.774H132.731V254.668Z" fill="#E5E5E5"/>
<path d="M36.9808 150.307C35.6455 150.307 34.3402 149.911 33.23 149.169C32.1197 148.427 31.2544 147.373 30.7434 146.139C30.2324 144.905 30.0987 143.548 30.3592 142.238C30.6197 140.929 31.2627 139.726 32.2069 138.781C33.1511 137.837 34.3541 137.194 35.6637 136.934C36.9733 136.673 38.3308 136.807 39.5644 137.318C40.7981 137.829 41.8525 138.694 42.5943 139.805C43.3362 140.915 43.7321 142.22 43.7321 143.555C43.7321 145.346 43.0208 147.063 41.7547 148.329C40.4886 149.595 38.7714 150.307 36.9808 150.307Z" fill="#F0F0F0"/>
<path d="M67.783 54.6356C66.3094 54.6356 64.8688 54.1986 63.6435 53.3798C62.4182 52.5611 61.4632 51.3974 60.8992 50.0359C60.3353 48.6744 60.1877 47.1763 60.4752 45.7309C60.7627 44.2856 61.4723 42.958 62.5144 41.9159C63.5564 40.8739 64.8841 40.1643 66.3294 39.8768C67.7748 39.5893 69.2729 39.7368 70.6344 40.3008C71.9959 40.8647 73.1596 41.8197 73.9783 43.045C74.797 44.2703 75.234 45.7109 75.234 47.1846C75.234 48.163 75.0413 49.1319 74.6669 50.0359C74.2924 50.9399 73.7436 51.7613 73.0517 52.4532C72.3598 53.1451 71.5384 53.6939 70.6344 54.0684C69.7304 54.4428 68.7615 54.6356 67.783 54.6356Z" fill="#F0F0F0"/>
<path d="M259.972 107.89C258.705 107.89 257.466 107.514 256.412 106.81C255.358 106.106 254.537 105.105 254.052 103.934C253.567 102.763 253.44 101.475 253.687 100.232C253.934 98.9889 254.545 97.8471 255.441 96.951C256.337 96.0548 257.479 95.4445 258.722 95.1972C259.965 94.95 261.253 95.0769 262.424 95.5619C263.595 96.0469 264.596 96.8682 265.3 97.922C266.004 98.9758 266.38 100.215 266.38 101.482C266.38 103.182 265.705 104.811 264.503 106.013C263.301 107.215 261.671 107.89 259.972 107.89Z" fill="#F0F0F0"/>
<path d="M219.402 67.0434H121.181V141.214H219.402V67.0434Z" fill="white"/>
<path d="M220.688 142.5H119.895V65.7572H220.688V142.5ZM122.467 139.928H218.116V68.3296H122.467V139.928Z" fill="#E4E4E4"/>
<path d="M218.286 68.5585H122.854L218.286 140.493V68.5585Z" fill="#F0F0F0"/>
<path d="M273.521 272.878C270.662 272.878 267.868 272.03 265.491 270.442C263.114 268.853 261.261 266.596 260.167 263.954C259.073 261.313 258.786 258.407 259.344 255.603C259.902 252.799 261.279 250.223 263.3 248.201C265.322 246.18 267.897 244.803 270.701 244.245C273.505 243.688 276.412 243.974 279.053 245.068C281.694 246.162 283.952 248.015 285.54 250.392C287.129 252.769 287.976 255.564 287.976 258.423C287.976 260.321 287.603 262.201 286.876 263.954C286.15 265.708 285.085 267.302 283.743 268.644C282.4 269.986 280.807 271.051 279.053 271.777C277.299 272.504 275.42 272.878 273.521 272.878Z" fill="#007AFF"/>
<path d="M279.225 256.997H274.947V252.719C274.947 252.341 274.797 251.978 274.53 251.711C274.262 251.443 273.9 251.293 273.521 251.293C273.143 251.293 272.78 251.443 272.513 251.711C272.246 251.978 272.095 252.341 272.095 252.719V256.997H267.818C267.44 256.998 267.078 257.148 266.811 257.415C266.544 257.683 266.395 258.045 266.395 258.423C266.395 258.8 266.544 259.163 266.811 259.43C267.078 259.697 267.44 259.848 267.818 259.849H272.095V264.126C272.095 264.505 272.246 264.867 272.513 265.135C272.78 265.402 273.143 265.552 273.521 265.552C273.9 265.552 274.262 265.402 274.53 265.135C274.797 264.867 274.947 264.505 274.947 264.126V259.849H279.225C279.412 259.849 279.598 259.812 279.771 259.741C279.945 259.669 280.102 259.564 280.235 259.432C280.368 259.3 280.473 259.142 280.545 258.969C280.616 258.796 280.653 258.61 280.653 258.423C280.653 258.235 280.616 258.05 280.545 257.876C280.473 257.703 280.368 257.546 280.235 257.414C280.102 257.281 279.945 257.176 279.771 257.105C279.598 257.033 279.412 256.997 279.225 256.997Z" fill="white"/>
<path d="M291.16 273.673H0.759344C0.600791 273.673 0.448884 273.609 0.336932 273.497C0.22498 273.385 0.162109 273.233 0.162109 273.074C0.162109 272.916 0.22498 272.764 0.336932 272.651C0.448884 272.539 0.600791 272.476 0.759344 272.475H291.16C291.318 272.476 291.47 272.539 291.582 272.651C291.694 272.764 291.757 272.916 291.757 273.074C291.757 273.233 291.694 273.385 291.582 273.497C291.47 273.609 291.318 273.673 291.16 273.673Z" fill="#CACACA"/>
</g>
<defs>
<clipPath id="clip0_52232_7905">
<rect width="300" height="273.673" fill="white"/>
</clipPath>
</defs>
</svg>
