<svg width="300" height="209" viewBox="0 0 300 209" fill="none" xmlns="http://www.w3.org/2000/svg">
<g clip-path="url(#clip0_52232_7851)">
<path d="M247.919 178.043C249.132 168.286 255.179 158.672 264.485 155.497C260.815 165.54 260.816 176.557 264.487 186.6C265.917 190.467 267.91 194.621 266.565 198.519C265.728 200.944 263.681 202.8 261.393 203.96C259.104 205.121 256.564 205.674 254.056 206.216L253.563 206.624C249.581 197.634 246.705 187.8 247.919 178.043Z" fill="#F0F0F0"/>
<path d="M264.577 155.681C259.158 161.753 255.79 169.378 254.951 177.473C254.74 179.213 254.804 180.975 255.141 182.694C255.523 184.359 256.345 185.89 257.52 187.13C258.592 188.308 259.825 189.389 260.592 190.807C260.974 191.538 261.196 192.343 261.246 193.166C261.295 193.99 261.17 194.815 260.878 195.587C260.201 197.53 258.866 199.113 257.507 200.616C255.997 202.285 254.404 203.994 253.762 206.207C253.684 206.475 253.273 206.338 253.351 206.071C254.467 202.222 258.203 200.035 259.985 196.568C260.816 194.951 261.165 193.073 260.386 191.365C259.704 189.872 258.434 188.756 257.338 187.573C256.174 186.38 255.32 184.921 254.851 183.322C254.427 181.625 254.295 179.869 254.461 178.128C254.771 174.202 255.697 170.35 257.204 166.712C258.902 162.55 261.298 158.709 264.29 155.356C264.476 155.148 264.761 155.475 264.577 155.681H264.577Z" fill="white"/>
<path d="M255.068 174.851C253.729 174.526 252.549 173.735 251.739 172.62C250.929 171.506 250.541 170.139 250.646 168.765C250.668 168.487 251.101 168.508 251.079 168.787C250.979 170.066 251.34 171.339 252.096 172.375C252.853 173.412 253.955 174.144 255.204 174.439C255.475 174.504 255.337 174.915 255.068 174.851V174.851Z" fill="white"/>
<path d="M256.897 186.604C259.316 185.16 261.101 182.858 261.897 180.156C261.976 179.888 262.387 180.024 262.309 180.292C261.475 183.102 259.612 185.494 257.092 186.992C256.852 187.134 256.658 186.746 256.897 186.605V186.604Z" fill="white"/>
<path d="M259.304 162.961C259.796 163.194 260.338 163.302 260.882 163.275C261.426 163.247 261.954 163.085 262.42 162.802C262.659 162.657 262.852 163.045 262.615 163.189C262.099 163.499 261.515 163.678 260.914 163.709C260.313 163.741 259.714 163.625 259.168 163.372C259.115 163.353 259.071 163.313 259.045 163.263C259.019 163.212 259.014 163.153 259.03 163.098C259.048 163.044 259.087 162.999 259.139 162.973C259.19 162.947 259.249 162.943 259.304 162.961V162.961Z" fill="white"/>
<path d="M292.85 172.924C292.704 173.019 292.557 173.115 292.411 173.213C290.451 174.502 288.599 175.948 286.874 177.536C286.738 177.657 286.603 177.781 286.471 177.906C282.355 181.777 278.993 186.38 276.556 191.479C275.588 193.508 274.777 195.609 274.128 197.762C273.231 200.736 272.496 204.031 270.722 206.463C270.54 206.719 270.342 206.963 270.13 207.195H254.099C254.063 207.176 254.026 207.162 253.99 207.143L253.35 207.173C253.375 207.059 253.404 206.942 253.43 206.829C253.445 206.763 253.463 206.697 253.478 206.631C253.489 206.587 253.5 206.544 253.507 206.503C253.511 206.489 253.514 206.474 253.518 206.463C253.525 206.423 253.536 206.386 253.544 206.35C253.704 205.695 253.87 205.04 254.041 204.386C254.041 204.382 254.041 204.382 254.044 204.378C255.358 199.393 257.098 194.474 259.531 189.975C259.604 189.84 259.677 189.701 259.757 189.566C260.865 187.544 262.136 185.616 263.558 183.802C264.339 182.81 265.171 181.86 266.048 180.952C268.321 178.613 270.947 176.646 273.831 175.123C279.581 172.087 286.237 170.924 292.382 172.778C292.539 172.826 292.693 172.873 292.85 172.924Z" fill="#F0F0F0"/>
<path d="M292.814 173.128C284.831 174.713 277.551 178.774 272.007 184.732C270.791 185.994 269.781 187.439 269.015 189.015C268.319 190.574 268.052 192.292 268.244 193.989C268.391 195.575 268.725 197.18 268.483 198.774C268.348 199.588 268.041 200.365 267.585 201.052C267.128 201.74 266.531 202.323 265.833 202.763C264.123 203.907 262.104 204.367 260.114 204.749C257.904 205.173 255.603 205.578 253.758 206.958C253.535 207.125 253.289 206.769 253.512 206.602C256.72 204.201 261.02 204.705 264.53 203.009C266.168 202.218 267.577 200.929 267.983 199.096C268.338 197.493 267.995 195.838 267.832 194.233C267.621 192.58 267.818 190.901 268.405 189.342C269.089 187.732 270.041 186.25 271.222 184.96C273.833 182.012 276.892 179.494 280.286 177.496C284.146 175.195 288.372 173.572 292.78 172.696C293.053 172.642 293.085 173.074 292.814 173.128V173.128Z" fill="white"/>
<path d="M273.679 182.708C272.806 181.643 272.34 180.301 272.364 178.923C272.389 177.546 272.902 176.221 273.813 175.187C273.998 174.978 274.33 175.256 274.145 175.465C273.295 176.426 272.817 177.66 272.797 178.943C272.777 180.226 273.216 181.474 274.036 182.462C274.213 182.677 273.856 182.922 273.679 182.708V182.708Z" fill="white"/>
<path d="M268.063 193.195C270.864 193.498 273.676 192.734 275.938 191.056C276.162 190.89 276.409 191.246 276.185 191.412C273.827 193.154 270.9 193.943 267.986 193.621C267.708 193.59 267.787 193.164 268.063 193.195V193.195Z" fill="white"/>
<path d="M284.22 175.765C284.472 176.248 284.84 176.661 285.291 176.966C285.742 177.271 286.262 177.46 286.804 177.515C287.082 177.542 287.002 177.969 286.726 177.941C286.128 177.878 285.554 177.669 285.055 177.333C284.556 176.996 284.147 176.543 283.864 176.012C283.833 175.964 283.822 175.906 283.832 175.85C283.842 175.794 283.873 175.744 283.919 175.71C283.966 175.678 284.024 175.665 284.081 175.676C284.137 175.686 284.187 175.718 284.22 175.765Z" fill="white"/>
<path d="M196.144 128.782C196.475 128.439 196.728 128.028 196.883 127.577C197.039 127.126 197.094 126.647 197.044 126.173C196.994 125.698 196.841 125.241 196.595 124.832C196.349 124.423 196.017 124.074 195.621 123.807L198.585 112.6L192.875 114.52L190.936 124.869C190.533 125.563 190.398 126.381 190.558 127.168C190.717 127.955 191.16 128.656 191.802 129.138C192.444 129.621 193.24 129.851 194.04 129.785C194.841 129.719 195.589 129.363 196.144 128.782V128.782Z" fill="#9E616A"/>
<path d="M222.561 204.061L218.583 204.061L216.691 188.72L222.561 188.72L222.561 204.061Z" fill="#9E616A"/>
<path d="M223.575 207.916L210.751 207.916V207.753C210.751 206.43 211.277 205.16 212.213 204.224C213.149 203.288 214.419 202.762 215.742 202.762H215.743L223.575 202.762L223.575 207.916Z" fill="#2F2E41"/>
<path d="M203.745 204.061L199.768 204.061L197.876 188.72L203.746 188.72L203.745 204.061Z" fill="#9E616A"/>
<path d="M204.76 207.916L191.936 207.916V207.753C191.936 206.43 192.462 205.16 193.398 204.224C194.334 203.288 195.603 202.762 196.927 202.762H196.927L204.76 202.762L204.76 207.916Z" fill="#2F2E41"/>
<path d="M201.533 111.631L200.006 112.053C200.006 112.053 196.018 137.908 195.694 151.533C195.369 165.158 196.667 199.545 196.667 199.545H205.101L211.914 141.152L215.158 199.545H224.241C224.241 199.545 230.73 122.985 227.81 116.822C224.89 110.658 201.533 111.631 201.533 111.631Z" fill="#2F2E41"/>
<path d="M213.701 66.009C217.91 66.009 221.322 62.5969 221.322 58.3878C221.322 54.1787 217.91 50.7665 213.701 50.7665C209.492 50.7665 206.08 54.1787 206.08 58.3878C206.08 62.5969 209.492 66.009 213.701 66.009Z" fill="#9E616A"/>
<path d="M233 75.9465L221.171 68.2159L208.913 68.6986L196.991 75.2977L201.533 100.601L199.586 115.2C199.586 115.2 217.104 113.253 220.997 116.173C223.271 117.905 225.952 119.022 228.783 119.417L228.134 94.4376L233 75.9465Z" fill="#3F3D56"/>
<path d="M199.262 74.9733L198.037 74.7189L196.992 75.2977C196.992 75.2977 194.072 79.1905 194.072 82.759C194.072 86.3275 190.503 120.715 190.503 120.715L196.992 123.634L202.182 96.7085L199.262 74.9733Z" fill="#3F3D56"/>
<path d="M220.375 52.8001C220.375 52.8001 222.368 48.9894 217.983 48.643C217.983 48.643 214.244 45.2517 210.434 48.023C210.434 48.023 208.355 48.023 207.219 50.3751C207.219 50.3751 205.584 49.7551 205.225 51.4144C205.225 51.4144 204.028 54.8786 205.225 57.9964C206.421 61.1141 206.818 61.4606 206.818 61.4606C206.818 61.4606 204.852 54.924 209.637 54.5775C214.421 54.2311 219.775 51.2412 220.174 55.0518C220.573 58.8624 221.173 59.8013 221.173 59.8013C221.173 59.8013 224.96 54.3589 220.375 52.8001Z" fill="#2F2E41"/>
<path d="M121.891 97.6346H27.4888V26.9141H121.891V97.6346Z" fill="white"/>
<path d="M121.891 97.6346H27.4888V26.9141H121.891V97.6346ZM28.462 27.8873V96.6614H120.918V27.8873H28.462Z" fill="#E6E6E6"/>
<path d="M74.6606 80.3821C84.5879 80.3821 92.6356 72.3344 92.6356 62.407C92.6356 52.4797 84.5879 44.432 74.6606 44.432C64.7332 44.432 56.6855 52.4797 56.6855 62.407C56.6855 72.3344 64.7332 80.3821 74.6606 80.3821Z" fill="#007AFF"/>
<path d="M82.1247 60.8976H76.0132V54.7861C76.0132 54.4047 75.8617 54.0389 75.592 53.7692C75.3223 53.4995 74.9565 53.348 74.5751 53.348C74.1937 53.348 73.8279 53.4995 73.5582 53.7692C73.2885 54.0389 73.137 54.4047 73.137 54.7861V60.8976H67.0255C66.6441 60.8976 66.2783 61.0491 66.0086 61.3188C65.7389 61.5885 65.5874 61.9543 65.5874 62.3357C65.5874 62.7171 65.7389 63.0829 66.0086 63.3526C66.2783 63.6223 66.6441 63.7738 67.0255 63.7738H73.137V69.8853C73.137 70.2667 73.2885 70.6325 73.5582 70.9022C73.8279 71.1719 74.1937 71.3234 74.5751 71.3234C74.9565 71.3234 75.3223 71.1719 75.592 70.9022C75.8617 70.6325 76.0132 70.2667 76.0132 69.8853V63.7738H82.1247C82.5061 63.7738 82.8718 63.6223 83.1415 63.3526C83.4112 63.0829 83.5627 62.7171 83.5627 62.3357C83.5627 61.9543 83.4112 61.5885 83.1415 61.3188C82.8718 61.0491 82.5061 60.8976 82.1247 60.8976Z" fill="white"/>
<path d="M35.2756 26.6189H0V0H35.2756V26.6189Z" fill="white"/>
<path d="M35.2756 26.6189H0V0H35.2756V26.6189ZM0.648813 25.9701H34.6268V0.648813H0.648813V25.9701Z" fill="#E6E6E6"/>
<path d="M30.6229 7.24988H4.65283V8.98123H30.6229V7.24988Z" fill="#E4E4E4"/>
<path d="M30.6229 12.4436H4.65283V14.175H30.6229V12.4436Z" fill="#E4E4E4"/>
<path d="M30.6229 17.6377H4.65283V19.3691H30.6229V17.6377Z" fill="#E4E4E4"/>
<path d="M269.822 207.962H234.546V181.343H269.822V207.962Z" fill="white"/>
<path d="M269.822 207.962H234.546V181.343H269.822V207.962ZM235.195 207.313H269.173V181.992H235.195V207.313Z" fill="#E6E6E6"/>
<path d="M265.168 188.593H239.198V190.324H265.168V188.593Z" fill="#E4E4E4"/>
<path d="M265.168 193.787H239.198V195.518H265.168V193.787Z" fill="#E4E4E4"/>
<path d="M265.168 198.981H239.198V200.712H265.168V198.981Z" fill="#E4E4E4"/>
<path d="M248.398 160.199L222.05 136.744L239.749 116.862L266.097 140.316L248.398 160.199Z" fill="white"/>
<path d="M248.398 160.199L222.05 136.744L239.749 116.862L266.097 140.316L248.398 160.199ZM222.966 136.691L248.345 159.283L265.181 140.369L239.802 117.778L222.966 136.691Z" fill="#E6E6E6"/>
<path d="M238.403 125.37L237.252 126.664L256.65 143.931L257.801 142.638L238.403 125.37Z" fill="#E4E4E4"/>
<path d="M234.95 129.25L233.799 130.543L253.197 147.81L254.348 146.517L234.95 129.25Z" fill="#E4E4E4"/>
<path d="M231.496 133.129L230.345 134.423L249.743 151.69L250.894 150.397L231.496 133.129Z" fill="#E4E4E4"/>
<path d="M55.2486 42.1904H15.896V12.4951H55.2486V42.1904Z" fill="white"/>
<path d="M55.2486 42.1904H15.896V12.4951H55.2486V42.1904ZM16.6198 41.4666H54.5248V13.2188H16.6198V41.4666Z" fill="#E6E6E6"/>
<path d="M50.0579 20.5828H21.0864V22.5142H50.0579V20.5828Z" fill="#CFCFCF"/>
<path d="M50.0579 26.3768H21.0864V28.3082H50.0579V26.3768Z" fill="#CFCFCF"/>
<path d="M50.0579 32.1711H21.0864V34.1026H50.0579V32.1711Z" fill="#CFCFCF"/>
<path d="M157.375 119.929H97.3218V74.6135H157.375V119.929Z" fill="white"/>
<path d="M157.375 119.929H97.3218V74.6135H157.375V119.929ZM98.4263 118.825H156.27V75.718H98.4263V118.825Z" fill="#E6E6E6"/>
<path d="M149.454 86.9556H105.243V89.903H149.454V86.9556Z" fill="#CFCFCF"/>
<path d="M149.454 95.7973H105.243V98.7448H149.454V95.7973Z" fill="#CFCFCF"/>
<path d="M149.454 104.64H105.243V107.587H149.454V104.64Z" fill="#CFCFCF"/>
<path d="M299.613 208.265H143.803C143.701 208.265 143.603 208.224 143.531 208.152C143.459 208.079 143.418 207.981 143.418 207.879C143.418 207.777 143.459 207.679 143.531 207.606C143.603 207.534 143.701 207.493 143.803 207.493H299.613C299.716 207.493 299.814 207.534 299.887 207.606C299.959 207.678 300 207.777 300 207.879C300 207.982 299.959 208.08 299.887 208.152C299.814 208.225 299.716 208.265 299.613 208.265Z" fill="#CACACA"/>
<path d="M228.967 128.538C228.735 128.121 228.597 127.659 228.563 127.183C228.528 126.707 228.599 126.23 228.769 125.784C228.939 125.339 229.205 124.936 229.547 124.604C229.89 124.273 230.301 124.02 230.752 123.865L230.772 112.272L235.795 115.597L235.006 126.096C235.218 126.87 235.137 127.696 234.781 128.415C234.424 129.134 233.816 129.698 233.072 129.999C232.327 130.3 231.498 130.317 230.742 130.048C229.985 129.779 229.354 129.241 228.967 128.538V128.538Z" fill="#9E616A"/>
<path d="M229.432 77.2441L231.676 75.081L233.325 76.2709C233.325 76.2709 234.947 78.2174 236.244 84.0567C237.542 89.896 236.244 122.012 236.244 122.012L229.108 121.039L230.081 104.17L227.161 89.896L229.432 77.2441Z" fill="#3F3D56"/>
</g>
<defs>
<clipPath id="clip0_52232_7851">
<rect width="300" height="208.265" fill="white"/>
</clipPath>
</defs>
</svg>
