<svg width="300" height="234" viewBox="0 0 300 234" fill="none" xmlns="http://www.w3.org/2000/svg">
<path d="M118.623 62.319C118.484 62.6022 118.368 62.8958 118.275 63.1971L91.1264 71.3467L86.0996 66.6558L78 73.2862L86.0886 82.4519C86.742 83.1923 87.619 83.7017 88.5879 83.9035C89.5567 84.1053 90.5652 83.9887 91.4618 83.5711L120.684 69.961C121.7 70.6314 122.897 70.9777 124.115 70.954C125.334 70.9303 126.516 70.5377 127.505 69.8284C128.494 69.119 129.243 68.1266 129.652 66.9831C130.061 65.8396 130.111 64.5992 129.795 63.4269C129.478 62.2546 128.811 61.2059 127.882 60.4204C126.953 59.6349 125.806 59.1497 124.593 59.0294C123.38 58.9091 122.159 59.1595 121.093 59.7471C120.026 60.3347 119.165 61.2318 118.623 62.319L118.623 62.319Z" fill="#FFB6B6"/>
<path d="M90.0778 71.0858L80.1423 79.4043C79.8596 79.641 79.5296 79.8136 79.1746 79.9104C78.8196 80.0072 78.4481 80.0258 78.0853 79.9651C77.7225 79.9044 77.377 79.7657 77.0722 79.5585C76.7675 79.3514 76.5107 79.0806 76.3194 78.7646L69.6167 67.6913C68.4222 66.2292 67.8526 64.3503 68.0326 62.4665C68.2127 60.5826 69.1277 58.8474 70.5772 57.641C72.0266 56.4347 73.8923 55.8556 75.7654 56.0307C77.6385 56.2058 79.3662 57.1208 80.5699 58.5752L90.1469 67.1875C90.421 67.4341 90.6391 67.7373 90.7862 68.0764C90.9334 68.4155 91.0061 68.7826 90.9996 69.1525C90.993 69.5225 90.9073 69.8867 90.7483 70.2203C90.5892 70.5539 90.3605 70.8491 90.0778 71.0858Z" fill="#3F3D56"/>
<path d="M116.546 208.818L120.788 206.067C120.982 203.652 121.043 201.228 120.97 198.805L118.77 199.378L120.941 197.969C120.821 194.975 120.556 193 120.556 193C120.556 193 111.98 198.671 106.51 206.358L107.443 212.86L105.219 208.313C104.65 209.241 104.139 210.203 103.688 211.196C99.182 221.219 98.7441 230.842 102.71 232.691C106.677 234.539 113.545 227.912 118.051 217.889C119.411 214.666 120.277 211.249 120.619 207.759L116.546 208.818Z" fill="#E6E6E6"/>
<path d="M126.228 218.256L131.391 218.135C132.822 216.2 134.139 214.188 135.337 212.108L133.105 211.45L135.748 211.388C137.204 208.802 138 207 138 207C138 207 127.505 207.337 118.689 210.982L116.119 216.945L116.534 211.96C115.551 212.447 114.6 212.994 113.686 213.597C104.5 219.711 99.0973 227.596 101.62 231.209C104.143 234.822 113.636 232.796 122.822 226.682C125.698 224.669 128.24 222.238 130.361 219.473L126.228 218.256Z" fill="#E6E6E6"/>
<path d="M95.0009 228L100.818 228L103 206L95 206.184L95.0009 228Z" fill="#FFB6B6"/>
<path d="M94 226L104.994 226H104.994C106.852 226 108.634 226.714 109.948 227.986C111.262 229.257 112 230.981 112 232.779V232.999L94.0003 233L94 226Z" fill="#2F2E41"/>
<path d="M30 211.864L33.7193 216L52 204.105L46.5105 198L30 211.864Z" fill="#FFB6B6"/>
<path d="M29.313 209L36.3289 217.148L36.3292 217.149C37.5149 218.526 38.1098 220.322 37.9833 222.142C37.8567 223.962 37.0189 225.657 35.6543 226.853L35.487 227L24 213.659L29.313 209Z" fill="#2F2E41"/>
<path d="M0.546216 234H153.455C153.6 234 153.738 233.947 153.84 233.854C153.943 233.76 154 233.633 154 233.5C154 233.367 153.943 233.24 153.84 233.146C153.738 233.053 153.6 233 153.455 233H0.546216C0.474562 233 0.403566 233.013 0.337306 233.038C0.271046 233.063 0.210823 233.099 0.160082 233.146C0.109341 233.192 0.069081 233.248 0.0416118 233.308C0.0141427 233.369 0 233.434 0 233.5C0 233.566 0.0141427 233.631 0.0416118 233.692C0.069081 233.752 0.109341 233.808 0.160082 233.854C0.210823 233.901 0.271046 233.937 0.337306 233.962C0.403566 233.987 0.474562 234 0.546216 234Z" fill="#CACACA"/>
<path d="M83.5079 176.475L95.0504 220H104L102.034 172.398L96.8459 126.019L78 125L83.5079 176.475Z" fill="#2F2E41"/>
<path d="M62.9159 126C62.9159 126 61.8929 132.611 65.9848 139.731C70.0766 146.851 67.5192 170.753 67.5192 170.753L33 205.235C33 205.235 38.3647 214.488 40.9221 213.98C43.4795 213.471 83.8866 180.924 83.8866 180.924L97 128.034L62.9159 126Z" fill="#2F2E41"/>
<path d="M81.5 49C87.8513 49 93 43.6274 93 37C93 30.3726 87.8513 25 81.5 25C75.1487 25 70 30.3726 70 37C70 43.6274 75.1487 49 81.5 49Z" fill="#FFB6B6"/>
<path d="M81.4552 55.9195C81.4552 55.9195 67.832 50.7559 67.832 52.2821C67.832 53.8084 54.4015 66.7137 57.4503 83.5028C60.4991 100.292 64.056 108.432 62.5316 117.59C61.0072 126.747 62.0235 128.782 62.0235 128.782C62.0235 128.782 97.4086 131.835 97.9168 128.274C98.4249 124.712 96.4408 119.281 96.4408 117.754C96.4408 116.228 82.4001 59.8471 81.4552 55.9195Z" fill="#3F3D56"/>
<path d="M76.8362 44.3768C77.8024 43.8719 78.9248 43.7678 79.9707 43.454C83.7124 42.3311 86.2189 38.1506 85.4187 34.3676C85.2708 33.8824 85.2044 33.3765 85.2222 32.8701C85.362 31.7497 86.522 31.0268 87.6343 30.77C88.7466 30.5133 89.9301 30.5506 90.9932 30.1378C92.6347 29.5004 93.7251 27.8332 93.9614 26.1058C94.1313 24.3571 93.7373 22.6001 92.8358 21.086L92.434 22.2287C91.8212 21.716 91.3664 21.0437 91.1212 20.2881C90.6646 20.364 90.2354 20.5544 89.8745 20.8412C89.5137 21.1279 89.2334 21.5014 89.0605 21.9259C88.4156 22.3018 88.3227 20.7583 87.6103 20.5306C87.2971 20.4919 86.9804 20.5691 86.7212 20.7473C85.2858 21.409 83.6181 20.8433 82.0783 20.4765C79.4119 19.8444 76.6325 19.8411 73.9647 20.4671C72.1923 20.8849 70.4379 21.6125 69.1697 22.9055C68.1777 24.0186 67.4157 25.3127 66.9266 26.715C65.5663 30.0985 64.6677 33.7595 65.1167 37.3732C65.4907 40.3304 66.7424 43.1118 68.714 45.3666C69.741 46.5361 73.092 50.6164 74.9293 49.9207C77.238 49.0466 74.116 45.7983 76.8362 44.3768Z" fill="#2F2E41"/>
<path opacity="0.2" d="M96.5255 145.489L83 181L83.9342 181.357L97.4597 145.845L96.5255 145.489Z" fill="black"/>
<path d="M125.223 57C124.369 57.001 123.549 57.3387 122.945 57.939C122.341 58.5392 122.001 59.3531 122 60.2021V95.7979C122.001 96.6469 122.341 97.4608 122.945 98.061C123.549 98.6613 124.369 98.999 125.223 99H296.777C297.631 98.999 298.451 98.6613 299.055 98.061C299.659 97.4608 299.999 96.6469 300 95.7979V60.2021C299.999 59.3531 299.659 58.5393 299.055 57.939C298.451 57.3387 297.631 57.001 296.777 57L125.223 57Z" fill="#E6E6E6"/>
<path d="M126.869 59C126.374 59.0005 125.899 59.1962 125.548 59.5442C125.198 59.8922 125.001 60.364 125 60.8562V94.1438C125.001 94.636 125.198 95.1078 125.548 95.4558C125.899 95.8037 126.374 95.9995 126.869 96H296.131C296.627 95.9995 297.102 95.8037 297.452 95.4557C297.803 95.1077 298 94.6359 298 94.1438V60.8562C298 60.3641 297.803 59.8923 297.452 59.5443C297.102 59.1963 296.627 59.0005 296.131 59H126.869Z" fill="white"/>
<path d="M284.975 87C285.777 86.998 286.546 86.6816 287.113 86.1201C287.68 85.5586 287.999 84.7977 288 84.004C288.001 83.2104 287.684 82.4486 287.119 81.8856C286.553 81.3226 285.786 81.0041 284.983 81C284.981 81 284.978 81 284.975 81H142.02C141.218 81.0032 140.45 81.3207 139.884 81.883C139.318 82.4452 139 83.2065 139 84C139 84.7935 139.318 85.5548 139.884 86.117C140.45 86.6793 141.218 86.9968 142.02 87H284.975Z" fill="#E6E6E6"/>
<path d="M203.945 74C204.346 74.0005 204.743 73.9232 205.114 73.7727C205.485 73.6221 205.821 73.4012 206.105 73.1226C206.389 72.844 206.614 72.5131 206.767 72.1489C206.921 71.7847 207 71.3943 207 71C207 70.6057 206.921 70.2153 206.767 69.8511C206.614 69.4869 206.389 69.156 206.105 68.8774C205.821 68.5988 205.485 68.3779 205.114 68.2273C204.743 68.0768 204.346 67.9995 203.945 68H142.055C141.654 67.9995 141.257 68.0768 140.886 68.2273C140.515 68.3779 140.179 68.5988 139.895 68.8774C139.611 69.156 139.386 69.4869 139.233 69.8511C139.079 70.2153 139 70.6057 139 71C139 71.3943 139.079 71.7847 139.233 72.1489C139.386 72.5131 139.611 72.844 139.895 73.1226C140.179 73.4012 140.515 73.6221 140.886 73.7727C141.257 73.9232 141.654 74.0005 142.055 74H203.945Z" fill="#007AFF"/>
<path d="M150.282 126C149.677 126.001 149.097 126.242 148.669 126.671C148.241 127.099 148.001 127.681 148 128.287V153.713C148.001 154.319 148.241 154.901 148.669 155.329C149.097 155.758 149.677 155.999 150.282 156H271.718C272.323 155.999 272.903 155.758 273.331 155.329C273.759 154.901 273.999 154.319 274 153.713V128.287C273.999 127.681 273.759 127.099 273.331 126.671C272.903 126.242 272.323 126.001 271.718 126H150.282Z" fill="#E6E6E6"/>
<path d="M151.318 128C150.969 128 150.634 128.138 150.387 128.382C150.139 128.627 150 128.958 150 129.304V152.696C150 153.041 150.139 153.373 150.387 153.618C150.634 153.862 150.969 154 151.318 154H270.682C271.032 154 271.367 153.862 271.614 153.618C271.861 153.373 272 153.041 272 152.696V129.304C272 128.959 271.861 128.627 271.614 128.382C271.367 128.138 271.032 128 270.682 128H151.318Z" fill="white"/>
<path d="M263.841 147C264.413 147 264.962 146.79 265.367 146.416C265.771 146.041 265.999 145.533 266 145.003C266.001 144.472 265.774 143.964 265.371 143.588C264.967 143.213 264.419 143.001 263.847 143C263.845 143 263.843 143 263.841 143H162.154C161.582 143.001 161.035 143.212 160.631 143.587C160.227 143.962 160 144.47 160 145C160 145.53 160.227 146.038 160.631 146.413C161.035 146.788 161.582 146.999 162.154 147H263.841Z" fill="#E6E6E6"/>
<path d="M205.843 138C206.126 138 206.407 137.949 206.668 137.849C206.93 137.748 207.168 137.601 207.368 137.415C207.568 137.229 207.727 137.009 207.836 136.766C207.944 136.523 208 136.263 208 136C208 135.737 207.944 135.477 207.836 135.234C207.727 134.991 207.568 134.771 207.368 134.585C207.168 134.399 206.93 134.252 206.668 134.151C206.407 134.051 206.126 134 205.843 134H162.157C161.874 134 161.593 134.051 161.332 134.151C161.07 134.252 160.832 134.399 160.632 134.585C160.432 134.771 160.273 134.991 160.164 135.234C160.056 135.477 160 135.737 160 136C160 136.263 160.056 136.523 160.164 136.766C160.273 137.009 160.432 137.229 160.632 137.415C160.832 137.601 161.07 137.748 161.332 137.849C161.593 137.949 161.874 138 162.157 138H205.843Z" fill="#E4E4E4"/>
<path d="M150.282 0C149.677 0.000711847 149.097 0.241911 148.669 0.670686C148.241 1.09946 148.001 1.6808 148 2.28718V27.7128C148.001 28.3192 148.241 28.9005 148.669 29.3293C149.097 29.7581 149.677 29.9993 150.282 30H271.718C272.323 29.9993 272.903 29.7581 273.331 29.3293C273.759 28.9005 273.999 28.3192 274 27.7128V2.28718C273.999 1.6808 273.759 1.09946 273.331 0.670686C272.903 0.241911 272.323 0.000711847 271.718 0H150.282Z" fill="#E6E6E6"/>
<path d="M151.318 2C150.969 2.00035 150.634 2.13787 150.387 2.3824C150.139 2.62693 150 2.9585 150 3.30435V26.6957C150 27.0415 150.139 27.3731 150.387 27.6176C150.634 27.8621 150.969 27.9996 151.318 28H270.682C271.032 27.9996 271.367 27.8621 271.614 27.6175C271.861 27.373 272 27.0414 272 26.6957V3.30435C272 2.95855 271.861 2.627 271.614 2.38246C271.367 2.13792 271.032 2.00038 270.682 2H151.318Z" fill="white"/>
<path d="M263.841 21C264.413 21.0004 264.962 20.7903 265.367 20.4157C265.771 20.0412 265.999 19.5329 266 19.0027C266.001 18.4725 265.774 17.9636 265.371 17.5881C264.967 17.2125 264.419 17.001 263.847 17C263.845 17 263.843 17 263.841 17H162.154C161.582 17.0008 161.035 17.2118 160.631 17.5868C160.227 17.9618 160 18.4701 160 19C160 19.5299 160.227 20.0382 160.631 20.4132C161.035 20.7882 161.582 20.9992 162.154 21H263.841Z" fill="#E6E6E6"/>
<path d="M205.843 12C206.126 12.0004 206.407 11.9489 206.668 11.8486C206.93 11.7483 207.168 11.601 207.368 11.4152C207.568 11.2295 207.727 11.0089 207.836 10.766C207.944 10.5232 208 10.2629 208 10C208 9.73711 207.944 9.4768 207.836 9.23396C207.727 8.99112 207.568 8.77051 207.368 8.58475C207.168 8.399 206.93 8.25174 206.668 8.1514C206.407 8.05106 206.126 7.99962 205.843 8H162.157C161.874 7.99962 161.593 8.05106 161.332 8.1514C161.07 8.25174 160.832 8.399 160.632 8.58475C160.432 8.77051 160.273 8.99112 160.164 9.23396C160.056 9.4768 160 9.73711 160 10C160 10.2629 160.056 10.5232 160.164 10.766C160.273 11.0089 160.432 11.2295 160.632 11.4152C160.832 11.601 161.07 11.7483 161.332 11.8486C161.593 11.9489 161.874 12.0004 162.157 12H205.843Z" fill="#E4E4E4"/>
<path d="M114.885 83.2189C114.657 83.4402 114.446 83.6793 114.255 83.9341L85.9787 82.2224L82.8901 76L73 79.489L77.4097 91.0422C77.766 91.9755 78.4118 92.7667 79.2503 93.2971C80.0888 93.8274 81.0747 94.0682 82.06 93.9833L114.171 91.2173C114.892 92.2104 115.894 92.958 117.044 93.3607C118.195 93.7634 119.44 93.802 120.613 93.4715C121.786 93.141 122.831 92.457 123.611 91.5105C124.39 90.564 124.866 89.3998 124.976 88.1728C125.085 86.9459 124.823 85.7142 124.224 84.6417C123.625 83.5692 122.717 82.7067 121.622 82.1689C120.526 81.6311 119.295 81.4436 118.091 81.6311C116.888 81.8187 115.77 82.3725 114.885 83.2189L114.885 83.2189Z" fill="#FFB6B6"/>
<path d="M85.3095 81.551L73.2127 85.8531C72.8685 85.9755 72.502 86.0223 72.1381 85.9902C71.7742 85.9581 71.4215 85.848 71.104 85.6672C70.7865 85.4865 70.5117 85.2395 70.2983 84.9429C70.0848 84.6464 69.9378 84.3073 69.8672 83.9488L67.3932 71.3861C66.7784 69.6213 66.888 67.6846 67.6979 66.0005C68.5079 64.3163 69.9522 63.022 71.7144 62.4011C73.4765 61.7802 75.4129 61.8834 77.0991 62.688C78.7854 63.4927 80.0841 64.9331 80.7106 66.6938L86.7026 77.9614C86.874 78.2841 86.974 78.6399 86.9956 79.0047C87.0171 79.3695 86.9599 79.7346 86.8277 80.0753C86.6955 80.4159 86.4915 80.7241 86.2295 80.9787C85.9675 81.2334 85.6537 81.4286 85.3095 81.551H85.3095Z" fill="#3F3D56"/>
<path d="M127 69C131.418 69 135 65.4183 135 61C135 56.5817 131.418 53 127 53C122.582 53 119 56.5817 119 61C119 65.4183 122.582 69 127 69Z" fill="#007AFF"/>
</svg>
