<svg width="140" height="115" viewBox="0 0 140 115" fill="none" xmlns="http://www.w3.org/2000/svg">
<path d="M70.1198 115.572C98.6216 115.572 121.727 111.238 121.727 105.891C121.727 100.544 98.6216 96.21 70.1198 96.21C41.618 96.21 18.5127 100.544 18.5127 105.891C18.5127 111.238 41.618 115.572 70.1198 115.572Z" fill="#F5F5F7" fill-opacity="0.8"/>
<path fill-rule="evenodd" clip-rule="evenodd" d="M111.405 77.449L93.1932 54.9465C92.3194 53.8873 91.0421 53.2461 89.697 53.2461H50.5409C49.1966 53.2461 47.9193 53.8873 47.0454 54.9465L28.8345 77.449V89.205H111.406V77.449H111.405Z" fill="#AEB8C2"/>
<path fill-rule="evenodd" clip-rule="evenodd" d="M44.264 24.2031H95.9747C96.7822 24.2031 97.5567 24.5252 98.1277 25.0985C98.6987 25.6717 99.0195 26.4493 99.0195 27.26V98.5955C99.0195 99.4062 98.6987 100.184 98.1277 100.757C97.5567 101.33 96.7822 101.652 95.9747 101.652H44.264C43.4565 101.652 42.6821 101.33 42.111 100.757C41.54 100.184 41.2192 99.4062 41.2192 98.5955V27.26C41.2192 26.4493 41.54 25.6717 42.111 25.0985C42.6821 24.5252 43.4565 24.2031 44.264 24.2031V24.2031Z" fill="#F5F5F7"/>
<path fill-rule="evenodd" clip-rule="evenodd" d="M50.9989 31.8096H89.2393C89.6431 31.8096 90.0303 31.9706 90.3158 32.2572C90.6013 32.5439 90.7617 32.9326 90.7617 33.338V52.4107C90.7617 52.816 90.6013 53.2048 90.3158 53.4915C90.0303 53.7781 89.6431 53.9391 89.2393 53.9391H50.9989C50.5951 53.9391 50.2079 53.7781 49.9224 53.4915C49.6369 53.2048 49.4765 52.816 49.4765 52.4107V33.338C49.4765 32.9326 49.6369 32.5439 49.9224 32.2572C50.2079 31.9706 50.5951 31.8096 50.9989 31.8096ZM51.1983 62.2363H89.0399C89.4966 62.2363 89.9345 62.4184 90.2574 62.7426C90.5803 63.0668 90.7617 63.5065 90.7617 63.9649C90.7617 64.4234 90.5803 64.8631 90.2574 65.1873C89.9345 65.5115 89.4966 65.6936 89.0399 65.6936H51.1983C50.7417 65.6936 50.3037 65.5115 49.9808 65.1873C49.6579 64.8631 49.4765 64.4234 49.4765 63.9649C49.4765 63.5065 49.6579 63.0668 49.9808 62.7426C50.3037 62.4184 50.7417 62.2363 51.1983 62.2363ZM51.1983 71.2258H89.0399C89.4967 71.2258 89.9347 71.408 90.2577 71.7322C90.5807 72.0565 90.7621 72.4963 90.7621 72.9548C90.7621 73.4134 90.5807 73.8532 90.2577 74.1775C89.9347 74.5017 89.4967 74.6839 89.0399 74.6839H51.1983C50.7416 74.6839 50.3035 74.5017 49.9805 74.1775C49.6576 73.8532 49.4761 73.4134 49.4761 72.9548C49.4761 72.4963 49.6576 72.0565 49.9805 71.7322C50.3035 71.408 50.7416 71.2258 51.1983 71.2258ZM111.237 104.471C110.647 106.818 108.575 108.567 106.11 108.567H34.1284C31.6636 108.567 29.5917 106.817 29.0025 104.471C28.8901 104.024 28.8334 103.564 28.8335 103.103V77.4504H48.8668C51.0796 77.4504 52.8631 79.3212 52.8631 81.5925V81.623C52.8631 83.8935 54.6671 85.7269 56.8799 85.7269H83.3583C85.5711 85.7269 87.3752 83.8767 87.3752 81.6054V81.5963C87.3752 79.325 89.1586 77.4496 91.3715 77.4496H111.405V103.104C111.405 103.575 111.346 104.033 111.237 104.471Z" fill="#DCE0E6"/>
<path fill-rule="evenodd" clip-rule="evenodd" d="M113.755 25.4424L108.556 27.4676C108.422 27.5198 108.277 27.533 108.136 27.5058C107.995 27.4786 107.865 27.4121 107.76 27.3139C107.656 27.2157 107.581 27.0898 107.544 26.9507C107.507 26.8116 107.511 26.665 107.553 26.5276L109.028 21.7841C107.057 19.5343 105.9 16.7907 105.9 13.8301C105.9 6.19172 113.602 0 123.103 0C132.602 0 140.305 6.19172 140.305 13.8301C140.305 21.4685 132.603 27.6602 123.102 27.6602C119.656 27.6602 116.446 26.8456 113.755 25.4424Z" fill="#DCE0E6"/>
<path d="M129.879 16.327C131.077 16.327 132.048 15.3638 132.048 14.1757C132.048 12.9876 131.077 12.0244 129.879 12.0244C128.681 12.0244 127.71 12.9876 127.71 14.1757C127.71 15.3638 128.681 16.327 129.879 16.327Z" fill="white"/>
<path fill-rule="evenodd" clip-rule="evenodd" d="M118.495 16.0575H114.157L116.363 12.293L118.495 16.0575ZM121.205 12.293H125V16.0575H121.205V12.293Z" fill="white"/>
</svg>
