<svg width="40" height="40" viewBox="0 0 40 40" fill="none" xmlns="http://www.w3.org/2000/svg">
<path d="M29.8642 23.8668C29.4326 24.2852 29.2342 24.8902 29.3326 25.4835L30.8142 33.6835C30.9392 34.3785 30.6459 35.0818 30.0642 35.4835C29.4942 35.9002 28.7359 35.9502 28.1142 35.6168L20.7326 31.7668C20.4759 31.6302 20.1909 31.5568 19.8992 31.5485H19.4476C19.2909 31.5718 19.1376 31.6218 18.9976 31.6985L11.6142 35.5668C11.2492 35.7502 10.8359 35.8152 10.4309 35.7502C9.44422 35.5635 8.78589 34.6235 8.94756 33.6318L10.4309 25.4318C10.5292 24.8335 10.3309 24.2252 9.89922 23.8002L3.88089 17.9668C3.37756 17.4785 3.20256 16.7452 3.43256 16.0835C3.65589 15.4235 4.22589 14.9418 4.91422 14.8335L13.1976 13.6318C13.8276 13.5668 14.3809 13.1835 14.6642 12.6168L18.3142 5.13351C18.4009 4.96684 18.5126 4.81351 18.6476 4.68351L18.7976 4.56684C18.8759 4.48017 18.9659 4.40851 19.0659 4.35017L19.2476 4.28351L19.5309 4.16684H20.2326C20.8592 4.23184 21.4109 4.60684 21.6992 5.16684L25.3976 12.6168C25.6642 13.1618 26.1826 13.5402 26.7809 13.6318L35.0642 14.8335C35.7642 14.9335 36.3492 15.4168 36.5809 16.0835C36.7992 16.7518 36.6109 17.4852 36.0976 17.9668L29.8642 23.8668Z" fill="#FF9B3B"/>
</svg>
